<svg xmlns="http://www.w3.org/2000/svg" width="24" height="24" viewBox="0 0 24 24"><path fill="rgb(100%,78.039216%,17.254902%)" d="M22.434 19.809a10.216 10.216 0 0 0-2.317-.997c-.894-.265-1.824-.55-2.988-1.433-1.281-.977-2.05-2.684-2.203-3.207.523-.086 1.465.515 2.113.598 1.297.16 1.492 1.253 2.113 2.09.657.882 2.516.773 3.489.995.39-1.355 1.46-2.296 1.289-3.828-.168-.187-.34-.41-.547-.558-.387-.086-2.36-2.02-2.512-2.453-.402-1.145-1.496-1.707-1.926-2.88l-.015.02-.04-.265c-.906-.832-4.14-3.489-5.109-3.993l-.035.008-.242-.082a3.175 3.175 0 0 0-.762-.152l-.62-.04c-1.184-1.73-1.556-.921-3.188-1.948.156.367.445.87.668 1.261-2.797-.148-4.47 1.91-6.063 1.914.254.153.55.22.848.192-.809.804-2.051 2.699-3.266 2.71.738.594 1.68.29 1.68.29-.633 1.953-.364 3.355-2.75 4.25 1.265.297 1.672.21 2.527-.196.36 1.735.32 3.684-1.504 4.625.547-.05 1.645-.128 2.324-.882.11 2.273-1.105 3.035-2.668 3.863 4.38.863 7.06 1.305 10.887 2.605 3.832-1.3 6.434-1.648 10.817-2.507Zm0 0"/><path fill="rgb(42.352941%,11.372549%,27.058824%)" d="M15.3 16.164a3.752 3.752 0 0 1-1.277-.25 3.895 3.895 0 0 1-.55-.25l-.02.027a3.81 3.81 0 0 0 2.227 1.079c.07.097.168.246.308.414.176.214.375.406.59.574.258.207.527.398.809.57.222.137.457.262.808.45-1.074-.165-1.351-.208-1.664-.231-2.218-.172-3.054-.293-3.968-.535-.243-.082-.641-.207-1.083-.371a8.132 8.132 0 0 1-1.347-.63 48.78 48.78 0 0 1-2.422-1.593 9.71 9.71 0 0 0 2.098 1.96c.328.231.668.438 1.027.618.648.309 1.324.555 2.023.727.477.109.957.191 1.442.242 1.113.113 2.75.223 3.875.39.37.055.55.075.832.102.273.031.644.07 1.375.16-3.223.7-5.578 1.242-8.766 2.324-3.25-1.105-5.676-1.703-9.02-2.441 2.067-1.531 2.02-3.172 1.813-4.813-.02-.23-.12-.613-.25-1.101a25.395 25.395 0 0 1-.41-1.711c-.258-1.277-.402-2.766 0-4.059.082-.289.188-.57.309-.843.187-.395.437-.758.738-1.075.672-.718 1.805-1.464 3.781-2.02a7.06 7.06 0 0 0-.91.47c-.664.414-1.453 1.058-1.95 1.996-1.253 2.386-.538 5.504.255 6.902l.03-.012s-.776-2.714-.347-4.785C6.004 6.773 7.04 5.484 8.63 4.625c.617-.332 1.05-.563 1.656-.406.285.074.418.27.52.55.11.305-.051.934-.051.938-.078.324-.129.422-.195.637l-.016.05.043-.035c.2-.183.348-.414.441-.668.11-.257.196-.53.309-.785l-.938-1.715c.266.317.602.57.98.73.165.075.313.13.442.192a.776.776 0 0 1 .297.242c.512.543 1.192.86 1.848 1.102.328.121.652.223.945.324.235.078.465.172.688.282-.325-.008-1.36.082-1.45.097l-.468.016.054.031c.29.137.602.223.918.25.254.027.504.04.758.04.55.015.985.25 1.422.6.441.356.887.825 1.457 1.305.008.004.102.075.102.106 0 .015-.008.027-.016.039l-.078.09c.02.05.324.297.41.363.914.652 1.316 1.14 1.55 1.574.231.43.294.805.516 1.223.11.23.239.45.387.656.043.059.078.121.113.184.09.175.172.355.243.543.078.203.156.422.234.629.164.418.34.816.566 1.02.024.007.047.007.075.007l.027.004-.012-.027a1.677 1.677 0 0 1-.105-.59c-.004-.012-.254-.653-.188-.82.055-.141.18.003.196.019.093.195.37.39.617.539.156.09.316.176.48.25.121.055.032.101.004.113-.91.004-.62.512-.383.73.04.032.086.055.133.067l.067.024.027.003c.05.067.062.157.035.235-.004.008-.664 1.77-.86 1.844-.128.054-.956.027-.96.027 0 0-1.313-.043-1.977-.629a1.524 1.524 0 0 1-.074-.137c.168-.437-.953-1.629-1.191-1.754l-.329-.191a1.639 1.639 0 0 1-.382-.332c.097-.41.105-.84.02-1.25a4.46 4.46 0 0 0-.196-.746l-.031.004c0 .172.003.36 0 .547-.004.187-.02.375-.051.558-.063.356-.203.664-.508.832-2.328-.183-4.246-2.457-5.563-4.43a11.509 11.509 0 0 0-.14-.226l-.055-.074-.031.011c.629 1.614 1.89 3.231 3.262 4.426l.101.223c.102.262.211.523.332.789l-.066-.004c-.969 0-2.434-1.101-2.434-1.101a6.209 6.209 0 0 0 1.938 1.453c.289.144.594.254.906.336l.11.199Zm0 0"/><path fill="rgb(100%,78.039216%,17.254902%)" d="m16.625 8.84-.184.055-1.285-1.008 1.465.414.176.484Zm0 0"/></svg>