<svg xmlns="http://www.w3.org/2000/svg" width="24" height="24" fill-rule="evenodd" stroke-linejoin="round" stroke-miterlimit="2" clip-rule="evenodd" viewBox="0 0 24 24" xml:space="preserve"><path fill="#fefefe" fill-rule="nonzero" d="m23.168 18.926-.016-.016a1.025 1.025 0 0 1-.168-.273v-.028l.008-.195c0-.473-.062-.781-.191-.965l.02.028a1.378 1.378 0 0 1-.16-.41v-.075c0-.015-.02-1.5-.438-2.097l-.016-.02-.016-.016a.567.567 0 0 1-.12-.382c0-.008-.055-.887-.294-1.172l-.007-.008a1.134 1.134 0 0 1-.153-.535v-.016l-.012-.125a6.76 6.76 0 0 0-.687-2.465c-.184-.375-.488-1.074-.52-1.351v-.008l-.011-.074c-.137-.891-.457-1.653-.953-2.254l-.008-.008a59.393 59.393 0 0 1-1.735-2.082c-.375-.469-.925-.781-1.636-.926a4.821 4.821 0 0 0-1.082-2.265l.011.015C14.313.38 13.383.23 12.867.563l.016-.008c-.008 0-.012.004-.016.007-.512-.316-1.262-.445-1.933-.335l-.012.003-.152.063a.158.158 0 0 1-.036.02l-.011-.004-.075-.016C9.813.098 9.141.105 8.664.32l-.023.008-.024.016a.558.558 0 0 1-.101.05c-.368-.25-1.184-.515-2.774.25-1.387.672-1.508.934-1.484 1.981l.004.367c0 .23 0 .953.511 1.055a.585.585 0 0 0 .442-.102c-.047.39-.074.782-.082 1.176a4.366 4.366 0 0 0-.387.762 3.18 3.18 0 0 0-.96 1.797v.011c-.032.34-.22.649-.509.829l-.007.003-.004.004c-.91.641-.922 1.797-.922 1.844a.756.756 0 0 1-.094.223l-.012.011-.004.02c-.093.184-.156.54-.156.883-.008.293.05.578.164.847.074.157.11.329.106.504 0 .164-.024.325-.07.48l.003-.019c-.147.445-.22.911-.215 1.38 0 .464.067 1.32.508 1.831l.012.012c.117.16.273 1.156.273 1.379 0 .27.051.758.082 1.027-.201.209-.379.44-.53.688-.45.21-1.087.586-1.24 1.039-.218.207-.667.691-.667 1.156 0 .086.012.168.043.246l.066.168.172.043c.082.016.164.02.25.02 0 0 0 .003.004.007l.106.215.242-.031c.172-.027.34-.066.504-.125.312.137.664.152.984.043.05.035.105.066.164.086l.191.074s.223-.187.297-.258c.222.068.457.08.684.035.236-.043.458-.142.648-.289l.395-.035.059-.027c.421-.219.542-.82.582-1.086a.748.748 0 0 0 .093-.39 1.7 1.7 0 0 0-.12-.594v-.032a.55.55 0 0 1 .077-.246.82.82 0 0 0 .098-.406 1.664 1.664 0 0 0-.164-.668c-.024-.074-.059-.246-.059-.621.012-.528.056-1.055.13-1.578.12-.211.198-.551.241-.77.153-.078.317-.133.489-.152.308-.05.894-.055 1.347.434.473.617 1.672 1.023 1.973 1.039.645.035 1.176.18 1.32.351l.07.086.11.027c.176.04.36 0 .504-.113l.031-.02s.02-.023.024-.03c.004 0 .007-.005.011-.005-.043.16-.066.239-.09.325-.96.383-1.304 1.152-1.304 1.718 0 .094.008.188.031.282l.016.066.043.059.004.004c.062.078.378.457.77.457h.144c.007-.008.015-.02.023-.028.02.008.04.02.055.035l.008.004c.285.211 1.02.184 1.418.118.07-.012.128-.032.19-.047a3.817 3.817 0 0 0-.163.715c-.035.183-.274.402-.387.48l-.02.016-.019.02c-.266.253-.445.722-.445 1.167 0 .156.023.313.074.465.09.254.348.687 1.05.766h-.003l.02.003c.203.036.374-.105.484-.238.207.028.586.086.617.09a.52.52 0 0 0 .258.117.573.573 0 0 0 .383-.101c.363.015.726 0 1.085-.043.145.078.333.062.547-.051.258-.04.5-.129.723-.266l.008-.008.094-.058.035-.11c.05-.144.074-.296.074-.449a2.103 2.103 0 0 0-.25-.976c-.027-.207-.117-.7-.355-1.04a.615.615 0 0 1-.051-.25c.008-.109.129-.8.273-1.124l.004-.016.008-.012c.012-.039.328-.98.332-1.508.02-.32.062-.914.101-1.156.075-.21.114-.426.125-.648v-.02c-.003-.054-.003-.12-.003-.187 0-.36.023-.836.09-1.055.078-.219.136-.445.175-.676a.722.722 0 0 0 .227.133.424.424 0 0 1 .265.195c.258.536.61 1.204.899 1.512.02.254.062.5.133.746l.007.02.012.02c.086.144.149.3.184.464l.004.016c.03.207.078.414.132.617.04.113.06.23.063.352a.63.63 0 0 1-.148.398c-.493.629-.567 1.398-.567 1.797 0 .113.004.223.02.336l.02.164.148.082c.34.21.757.265 1.144.152.328.227.762.2 1.008.16a.695.695 0 0 0 .41.133.768.768 0 0 0 .48-.168.941.941 0 0 0 .704-.55c.078-.184.113-.383.11-.583 0-.46-.165-.918-.329-1.14Zm-9.684 4.93.024.003c-.008 0-.016-.004-.024-.004v.001Z"/><path fill="#96999b" fill-rule="nonzero" d="M16.078 10.719c.031.203.074.402.117.605.055.242.11.485.14.739.07.624.112 1.25.126 1.878.008.356-.008.727-.027 1.098-.024.527-.047 1.059.003 1.555.2-.43.215-1.051.227-1.617.004-.223.008-.438.023-.63.024-.28.07-.57.118-.855.058-.37.12-.746.129-1.113.015-.504-.329-.957-.622-1.34l-.234-.32Zm-1.336 3.597c-.031.176-.062.348-.09.524-.074.418-1.355.7-1.949.832l-.316.074c-.524.125-1.168.281-1.684.18-.457-.086-1.133-.305-1.46-.63.19-.019.386-.003.581.009.172.011.34.027.512.015.422-.023.734-.246 1.066-.484l.078-.055c.118-.086.227-.18.332-.277a6.054 6.054 0 0 1-.96-.399l-.055-.035c.133-.047.285-.054.441-.058.172-.008.356-.012.52-.075.375-.144.8-.382 1.039-.71a2.929 2.929 0 0 1-1.078-.243c.16-.05.344-.046.531-.035.203.008.406.016.574-.054.164-.07.45-.391.48-.614.032-.222-.03-.226-.206-.23l-.215-.016c-.184-.015-.36-.031-.524-.12.153-.083.352-.102.547-.118.313-.027.63-.055.774-.348.082-.16.136-.367.195-.566.035-.13.07-.258.113-.371.043.047.086.093.13.136.112.118.222.23.312.391.27.473.355 1.059.43 1.598.081.597-.016 1.136-.118 1.68v-.001Zm4.727-4.785c-.328.117-.13 1.055-.032 1.5.02.09.036.16.04.2.058.43.148.835.347 1.203.09.164.176.363.266.57.187.437.39.91.676 1.18-.32-.68-.38-1.336-.442-2.036-.008-.117-.02-.234-.031-.351a2.636 2.636 0 0 0-.43-1.27c-.183-.3-.39-.64-.363-.996h-.031ZM5.309 9.36c-.063-.313-.133-.676-.45-.743h-.062c-.043.43-.297.742-.563 1.043-.16.18-.183.281-.226.469l-.035.14c-.047.172-.11.336-.188.497-.2.46-.414.949 0 1.398.063.063.14.102.219.14.059.028.113.06.164.094.176.133.227.262.297.438l.043.109c.3.688 1.031.762 1.742.832.219.024.438.047.637.086a5.983 5.983 0 0 0-.403-.36c-.261-.226-.539-.46-.699-.714.242-.043.488.059.727.156.086.035.172.07.261.098.57.172 1.165.277 1.758.312-.75-.23-1.472-.543-2.152-.937l-.195-.105c-.348-.18-.852-.442-.778-.829.145-.004.29.075.43.153.086.047.168.09.25.12.402.153.816.161 1.234.169h.176c-.957-.395-1.832-1.32-2.129-2.313-.023-.074-.039-.16-.058-.254v.001Zm5.641-4.813c.5.012 1.003.023 1.382.32.469.371.648 1.551.41 2.11-.101.238-.258.3-.437.273.25.473-.332.883-.75 1.016-.387.105-.79.132-1.192.086-.304-.043-.55-.223-.797-.407-.222-.16-.445-.324-.71-.386v-.133c.019-.02.03-.047.042-.07-.312.109-.492.058-.601-.47-.071-.394-.047-.8.07-1.183.149-.394.516-.586.88-.777.202-.11.405-.219.57-.364l.367-.078c.238.047.504.055.765.063h.001Zm4.577 1.031c.024.324.024.672-.101.969l.172-.031c.277.004.324-.18.379-.38.02-.07.039-.14.066-.206.121-.274.34-.426.559-.586.144-.094.28-.207.402-.332l-.047-.047c-.258-.258-.645-.64-.953-.527a1.634 1.634 0 0 0-.527.406c-.086.14-.043.308 0 .48.023.086.046.172.05.254Z"/><path fill-rule="nonzero" d="M9.578 5.227a.159.159 0 0 0-.148.156c0 .086.066.152.148.16a.161.161 0 0 0 .149-.16.159.159 0 0 0-.149-.156Zm-.523.332a.133.133 0 0 0-.133.125.14.14 0 0 0 .133.132.132.132 0 0 0 .12-.105.127.127 0 0 0-.073-.145.184.184 0 0 0-.047-.007Zm.418.273a.13.13 0 0 0-.13.129.13.13 0 0 0 .129.127.13.13 0 0 0 .09-.037.128.128 0 0 0 .032-.14.13.13 0 0 0-.121-.079Zm.507.156a.13.13 0 0 0 .13-.129.123.123 0 0 0-.06-.105.12.12 0 0 0-.12-.012.123.123 0 0 0-.075.094.115.115 0 0 0 .036.113c.023.024.054.04.09.04l-.001-.001Zm2.204-.281a.13.13 0 0 0-.13.129c0 .07.06.129.13.129a.13.13 0 0 0 .129-.13.13.13 0 0 0-.13-.128h.001Zm-.551-.105a.128.128 0 0 0-.09.218c.023.024.059.04.09.04a.13.13 0 0 0 .129-.13c0-.07-.059-.125-.13-.128h.001Zm.562-.22a.132.132 0 0 0-.078-.12.127.127 0 0 0-.14.031.127.127 0 0 0-.028.137c.02.047.067.078.117.078.07 0 .13-.055.13-.125l-.001-.001Zm.242.102c-.046.004-.082.04-.082.082a.08.08 0 0 0 .08.079h.002a.078.078 0 0 0 .07-.079.08.08 0 0 0-.07-.078v-.004Zm.106-1.18c.523.407.691 1.716.719 2.532.008.234-.043 1.746.332 1.094.183-.32-.055-1.688-.133-2.067-.129-.636-.453-1.504-.918-1.558v-.001Zm8.39 15.755.122.011c0-.105.097-.664.297-.851.109-.297-.48.047-.418.84h-.001Zm.899.136.11-.015c-.032-.094.03-.758.03-.758-.093-.047-.296.277-.14.773Zm-5.855 2.192a.174.174 0 0 0 .097.078c.04.012.082.004.121-.016.063-.469-.246-.637-.261-.543.109.153.043.48.043.48v.001Zm6.918-3.254s-.25-.29-.25-.488c0-.079.035-.766-.125-1.004 0 0-.215-.403-.2-.59.012-.188-.054-1.492-.379-1.957 0 0-.21-.203-.21-.617 0-.125-.09-.801-.215-.954-.075-.074-.227-.386-.239-.75-.035-.316-.086-1.332-.664-2.464 0 0-.504-1.028-.554-1.465-.024-.114-.125-1.23-.891-2.156 0 0-.848-.965-1.746-2.094-.434-.551-1.098-.77-1.668-.852-.145-1.379-1.035-2.32-1.035-2.32-.516-.637-1.266-.832-1.668-.57 0 0-.192.113-.324.023-.41-.27-1.114-.414-1.735-.309-.05.012-.219.157-.351.079C10.55.629 9.504.32 8.8.629c0 0-.324.223-.45.066C8.09.5 7.364.242 5.888.953c-1.477.715-1.282.828-1.282 2.035 0 1.203.582.586.649.426.168-.336.52-.465.398-.012-.113.453-.18 1.325-.18 1.813 0 0-.425.7-.425.851a2.79 2.79 0 0 0-.922 1.657c-.043.445-.29.847-.664 1.086-.773.546-.773 1.562-.773 1.562 0 .176-.149.41-.149.41-.098.188-.219.95.012 1.422.226.477.12 1.02.054 1.238-.273.707-.312 2.239.23 2.868.216.23.364 1.425.364 1.613 0 .344.098 1.14.098 1.14s-.61.653-.625.833c0 0-1.168.515-1.195.96 0 0-.774.68-.614 1.102a.864.864 0 0 0 .504-.066c.157-.072-.054.214-.027.27 0 0 .394-.056.558-.165.34.219.868.207 1.059-.027a.307.307 0 0 0 .207.218l.309-.269c.406.285 1.097.027 1.238-.18l.445-.039c.34-.176.407-.894.407-.894.19-.22-.012-.746-.012-.746-.094-.247.097-.575.097-.575.16-.27-.085-.773-.085-.773-.215-.625.054-2.445.054-2.445.153-.176.262-.828.262-.828.094-.204 1.492-.762 2.402.23.395.531 1.492.914 1.739.926.246.011 1.238.082 1.562.472a.253.253 0 0 0 .215-.054c.164-.2.75-.215.75-.215l-.285 1.015c-1.14.368-1.32 1.282-1.223 1.66 0 0 .258.325.5.325.152-.149.438.082.438.082.214.164 1.617.164 1.941-.324.008.136 0 .273-.027.406-.23.23-.34 1.031-.34 1.031-.067.395-.531.707-.531.707-.395.383-.665 1.711.52 1.817.089.023.273-.27.273-.27l.937.137c.14.242.39-.024.39-.024.188.09 1.305-.039 1.305-.039 0 .164.313-.023.313-.023.277 0 .644-.223.644-.223.137-.39-.039-1.008-.191-1.195 0 0-.063-.637-.313-.977a.868.868 0 0 1-.101-.43c0-.113.125-.878.305-1.265 0 0 .312-.941.312-1.406 0 0 .05-.903.113-1.227.067-.187.102-.383.11-.578.008-.2-.024-.941.101-1.355 0 0 .254-.653.188-1.192-.012-.203.14-.152.14-.152s.29.515.504.574c0 0 .332.09.473.379.14.29.625 1.293.914 1.504 0 0 .05.578.129.781 0 0 .2.363.227.594.03.191.07.383.12.574.09.313.153.676-.148 1.055-.629.8-.476 1.867-.476 1.867.59.336 1.043.05 1.043.05.289.4 1.039.188 1.039.188.074.098.187.16.308.164a.419.419 0 0 0 .32-.136c.93-.09.641-1.407.376-1.758h-.001ZM5.355 2.484c-.437 1.344-.503.66-.476.012.027-.648.09-.855.516-1.062.425-.207 1.492-.649 2.007-.711.52-.067.7.218.246.218 0 0-1.851.192-2.293 1.543Zm.2 3.852.004-.066c0-.012.003-.02.003-.028.063-.355.168-1.015.157-1.418C5.609 1.813 9.305.48 10.496.852c0 0 .277.093.434.046.168-.062 1.203-.078 1.636.204 0 0 .246.277.493.136 1.418-.66 2.285 1.617 2.414 2.426.09.418-.024.375-.18.035-.293-.496-.246-.508-.656-.48-.23 0-.293-.031.12 1.683.298 1.563 0 2.024-.01 1.653 0-.121.01-.711-.204-.696.035.782-.023 1.266-.09 1.504v.008c-.058.188-.117.234-.144.14v-.003c-.024-.274-.258-.946-.391-.488-.059.203.09.593.21.843v.008c.009.7-.124 1.406-.507 1.7-.121.058-.316.109-.516.199-.144-.387-.144-.844-.144-1.29 0-.675.004-1.375-.492-1.824-.192-.172-.43-.215-.664-.258-.328-.058-.637-.117-.758-.527a.792.792 0 0 1 .219-.789c.058-.043.109-.062.14-.043.02.012.074.063.055.266l-.004.027.027.008c.196.055.286-.02.325-.094.12-.226-.067-.746-.246-.906-.25-.223-.575-.25-.985-.082-.246-.086-.445-.086-.578.008-.117.082-.176.226-.172.43.004.245.235.542.422.542.059 0 .16-.039.176-.265a.162.162 0 0 1 .097.086.93.93 0 0 1 .07.41c0 .316-.073.683-.163.812-.176.25-.461.32-.739.387-.238.059-.488.121-.664.3-.265.262-.351.66-.433 1.044a2.887 2.887 0 0 1-.203.687c-.329.64-.633.809-1.141.852a.823.823 0 0 1-.152-.051c-.301-.14-.575-.406-.86-.594-.074-.047-.152-.082-.222-.125.011-1.09.113-2.242.687-3.16-.523.54-.586 1.211-.812 1.895-.075.23-.157.421-.211.586-.016-.07-.028-.137-.04-.192-.132-.523-.085-1.035-.085-1.574Zm9.527-2.637c-.137 0-.246.008-.32.012-.008-.207.117-.398.191-.23.047.078.086.148.129.218ZM13.43 19.582s-.735.066-.844-.016c-.11-.078-.27-.203-.27.082l-.136.016c-.043-.07.082-.762.433-.941 0 0 .598-.313.328-.418 0 0-.789.164-.98 1.183l-.352-.015c-.027-.137.22-.778.883-1.196l-.082-.054c-.12 0-.734.3-1.015 1.14-.465-.422.23-1.031.539-1.14.164-.055.574-.23.668-.598.093-.363.27-.934.27-.934s.558-.03.667-.125c.106-.097.352-.394.719-.382-.094 0-.274 2.937-.274 2.937s-.175.418-.554.461Zm8.902 1.105c-.148.227-.328.165-.414-.238-.063.063-.04.215-.04.215s-.374.125-.437.035c-.05-.09-.101-.09-.125.04-.097-.028-.289-.063-.277-.415 0 0-.137-.035-.324.188-.266.062-.254-.336-.203-.586 0 0-.227-.04-.262.512a.227.227 0 0 1-.176-.028c-.054-.031-.05-.902.45-1.402.593-.488.34-1.945.14-2.235-.203-.289-.48-1.27-.48-1.27-.036 0-.625-.687-.676-1.015-.028-.101-.352-.828-.551-.902-.203-.074-.941-.59-.93-1.066.352-.38.051-1.23.051-1.23.89-.614 1.106-1.77.766-2.61-.09-.188-.25-.352-.25-.614a3.003 3.003 0 0 0-.239-1.105c-.148-.348-.05 1.066.024 1.191.793 1.02.238 2.336-.527 2.899 0 0-.528-.813-.993-1.051-.46-.238-.527-.652-.601-1.07-.074-.414-.188-.875-.551-1.047 0 0 .336.52.313.867 0 .094-.13.86.285 1.258 1.773 1.582 1.504 2.242 1.27 2.59-.079.129-.208.57-.106.855.105.285.144.672.015.985a2.604 2.604 0 0 0-.18.84c-.015.288.063.831-.093 1.206-.09.294-.133.6-.129.907.004.307-.027 1.27-.402 2.097 0 0-.39 1.371-.207 1.606.308.386.375.96.375.96.183.102.3.567.195.739-.105.168-.379.086-.379.086-.012.105-.207.234-.219.105-.011-.129-.156-.324-.285-.09-.129.235-.676.301-.906.169a.16.16 0 0 0-.117-.036.142.142 0 0 0-.102.063c-.094.129-.156.023-.156.023.027-.425-.078-.386-.078-.386-.168.363-.711.375-.906.18-.09-.09-.31-.09-.282.257-.441-.152-.25-.852.086-1.098a.574.574 0 0 0 .223-.48l-.117-.012a.226.226 0 0 1-.117.219c-.274.129-.56.363-.543 1.219-.207-.067-.247-.996.324-1.297.144-.063.855-1.45.855-2.563 0 0 .012-1.93.242-2.539 0 0 .29-.804-.074-.906l-.531.14s-.48.067-.563.22a.687.687 0 0 1-.675.44c-.528-.015-1.067.25-1.067.25s-.3-.331-.98-.359a4.567 4.567 0 0 1-2.414-1.105c-.207-.164-.551-.691-1.032-.691-2.171-.125-3.3-.426-3.523-1.79 0 1.93.734 2.247.734 2.247-.058.554.055 2.347.356 2.636-.578-3.52 1.148-2.36.582-1.492-.098.168-.18 1.781-.016 2.582.184.113.153.375.153.375s-.344.469-.153.856c.192.386.086 1.187-.273 1.476-.016-.512-.25-.32-.25-.32-.43.789-1.156.773-1.352.512l-.347.289c-.137-.067.043-.594.043-.594s-.149.016-.22.25c-.07.234-.194.277-.194.277-.274.18-.704.067-.852-.125-.293.25-.39.164-.39.164-.016-.136.109-.343.109-.343l-.442.246-.152.015c-.043-.566.637-.812.637-.812.136-.567 1.203-.774 1.203-.774.039-.125.715-1.007.715-1.007v-.165s.027-1.824-.352-2.546c-.555-.758-.512-2.614-.172-3.282.063-.168.125-.367-.152-1.109-.281-.883.043-2.504.8-3.121.235-.16.669-.637.669-1.223 0-.488.656-1.293.882-1.554-.05.164-.046.418-.062.566-.047.555.14 1.016.23 1.539.047.27.07.387.293.54.211.132.41.284.598.448.164.153.238.285.461.34.137.047.281.082.43.098h.023c.352.125.711.222.984.078.192-.11.329-.324.41-.66l.102-.442c.176-.82.305-1.41 1.184-1.691l.336-.117c.625-.23 1.215-.446 1.812.133.371.359.352.847.332 1.367l-.011.41c.007.637.132.82.457 1.039a1.04 1.04 0 0 0-.383.492c-.235.625-1.309.727-1.399.094h-.004c-.097-.516-.27-1.281-.105-1.75-.266.363-.11 1.055-.324 1.434-.125.218-.457.367-.688.519a.465.465 0 0 1-.316-.398c-.395-.149-.89.183-1.309.05-.133-.046-.285-.238-.433-.195-.204.063.011.29.109.371.207.184.457.313.738.258.13-.031.262-.055.395-.066.16.347.805.449 1.277.421.7.559 1.5.168 1.738-.09.23-.257.747-.75.852-.738.805 0 1.09-.945 1.27-1.687.18-.738.285-.969.683-1.899.34-.78-.015-2.3-.137-2.773l.438.008c.316.453.547.55.52.027V3.98c1.015.075 1.769 1.176 1.769 1.176s2.137 2.23 2.16 3.344c0 0 .11.902.43 1.414 0 0 .805 1.527.805 2.606 0 0 0 .601.214.93a.912.912 0 0 1 .239.675c-.02.25-.051.652.152.93 0 0 .488.625.477 1.351 0 0-.075.82.085 1.02.188.281.293.613.301.953 0 0-.05.453.164.652.418.414.59 1.668-.238 1.657v-.001ZM13.258 1.578c.195.145.87.957 1.066 1.27.192.308.23.18.242.129.016-.055-.05-.258.207-.13.262.13.442.258.235-.218-.207-.484-.633-1.156-1.23-1.324-.481-.106-.778.078-.52.273Zm1.23 20.219s-.125.2-.035.371c.082.11.125.238.129.371 0 .137.094.16.137.063 0 0 .066-.137 0-.45a.805.805 0 0 1 .113-.652c.074-.2-.156-.11-.344.297ZM7.754 3.887c.066.23.164.316.312.336a.382.382 0 0 1 .07-.653c-.038.172-.054.493.09.547.2.07.286-.238.356-.453.07.086.105.191.094.3a.446.446 0 0 1-.078.188c.261-.09.34-.257.613-.12a.473.473 0 0 0 .207-.282 3.94 3.94 0 0 0-.375-.25.832.832 0 0 1-.234-.094l-.004-.004a.958.958 0 0 0-.344-.144c-.27-.04-.55-.012-.813.078-.136.004-.085.098-.175.156-.012.008-.215.102-.227.121-.129.153-.07.328-.031.524.34.172.27-.282.539-.25Zm-.027-1.223c.227-.17.478-.304.746-.398.523-.176 1.058-.254 1.343-.801l-.09.047c-.581.035-1.359.465-1.882.734-.453.238-.516.387-.66.797.222.039.382-.25.543-.379Zm6.062 15.516s-.062.308-.215.308c-.16 0-.531.203-.578.438-.062.152.016.23.098.105 0 0 .183-.172.308-.172s.45-.027.496-.648c-.015-.14-.109-.031-.109-.031ZM7.332 8.676c.379.031.281-.477.281-.68a5.402 5.402 0 0 1 .223-1.676c.137-.445.351-.863.637-1.226a.43.43 0 0 0 .125-.14c.062-.063.129-.126.203-.177a.509.509 0 0 1 .05-.03c.145-.071.294-.122.438-.184.297-.13.426-.418.703-.555.09-.051.184-.094.278-.133.101-.035.203-.027.3-.059a.126.126 0 0 0 .051-.027l.332-.012c.23-.007.438-.03.652.024.325.082.493.238.77.39a.268.268 0 0 0-.063-.203c.184-.047.278.09.5.164a.384.384 0 0 1 .012-.488c.074.215.156.523.356.453.144-.054.129-.375.09-.55a.39.39 0 0 1 .074.656c.144-.02.246-.106.312-.336.27-.032.2.418.535.25.043-.196.098-.371-.023-.528-.016-.015-.219-.109-.23-.117-.09-.058-.04-.152-.18-.156a1.74 1.74 0 0 0-.813-.078.954.954 0 0 0-.343.144v.004c-.043.024-.09.043-.133.063a.522.522 0 0 1-.102.031c-.129.074-.25.156-.367.242-.121-.086-.219-.183-.219-.336.004-.265.102-.539.2-.8.18-.5.187-.985.187-1.504-.117.488-.395.953-.523 1.445-.09.34-.118.723-.18 1.055-.238-.11-.504-.11-.781-.07-.133.015-.204.054-.329.003-.273-.12-.46-.508-.625-.726.008.218.145.511.157.765-.086.094-.133.27-.211.36-.192.226-.563.367-.832.5-.367.175-.77.382-.942.734a3.805 3.805 0 0 0-.941 2.137c-.031.32-.133 1.332.371 1.37v.001Z"/></svg>