<svg xmlns="http://www.w3.org/2000/svg" width="24" height="24" fill-rule="evenodd" stroke-linejoin="round" stroke-miterlimit="2" clip-rule="evenodd" viewBox="0 0 24 24" xml:space="preserve"><path fill="#0c2340" d="M17.008 10.488c.012.018.069.172.069.172h3.669c.26 0 1.181-.461 1.447-1.324.115-.363.173-.741.174-1.122a3.88 3.88 0 0 0-.285-1.434c.528.531 1.035 1.104 1.391 1.757.317.561.487 1.193.491 1.837a3.962 3.962 0 0 1-.162 1.103c-.313 1.092-1.861 1.976-4.358 2.488a1.282 1.282 0 0 0-.16.038l.001-.001-.005.003a.1.1 0 0 0-.048.033.096.096 0 0 0-.017.037v.002-.001l-.003.025a.454.454 0 0 0 .018.103c-.12.143-.853.644-1.324.934a8.467 8.467 0 0 1-1.975.887c.049-.085.1-.175.133-.248l.165-.356-.331.212c-.692.442-1.55.731-1.951.851.049-.127.094-.255.098-.275l.048-.252L12 17.214l-2.093-1.257.048.252c.004.02.049.148.098.275-.401-.12-1.259-.409-1.951-.851l-.331-.212.165.356c.033.073.084.163.133.248a8.467 8.467 0 0 1-1.975-.887c-.471-.29-1.204-.791-1.324-.934a.403.403 0 0 0 .017-.103.21.21 0 0 0-.002-.025v.001l-.001-.002a.082.082 0 0 0-.016-.037.1.1 0 0 0-.048-.033l-.005-.003.001.001a1.24 1.24 0 0 0-.16-.038C2.059 13.453.511 12.569.198 11.477a3.962 3.962 0 0 1-.162-1.103 3.794 3.794 0 0 1 .491-1.837c.356-.653.863-1.226 1.391-1.757a3.88 3.88 0 0 0-.285 1.434c.001.381.059.759.173 1.122.267.863 1.188 1.324 1.448 1.324h3.669s.057-.154.069-.172h10.016Z"/><path fill="#fff" fill-rule="nonzero" d="M22.556 7.679c.587.691.983 1.504.983 2.197 0 .76-.395 1.471-1.349 1.928-.155.074-.446.186-.536.186h-3.968a6.85 6.85 0 0 1-.528-1.082h3.785c.292 0 .856-.402 1.138-.819.32-.47.446-1.046.485-1.572a6.335 6.335 0 0 0-.01-.838Z"/><path fill="#fff" fill-rule="nonzero" d="M1.444 7.679C.856 8.37.461 9.183.461 9.876c0 .76.395 1.471 1.349 1.928.155.074.446.186.536.186h3.968c.208-.344.384-.707.528-1.082H3.057c-.292 0-.856-.402-1.138-.819-.32-.47-.446-1.046-.485-1.572a6.335 6.335 0 0 1 .01-.838Z"/><path fill="#fff" fill-rule="nonzero" d="M7.194 11.91c-.444.71-.849 1.545-1.571 2.274h-.574a11.282 11.282 0 0 0 2.138-3.395h9.626c.504 1.25 1.228 2.4 2.138 3.395h-.574c-.722-.729-1.127-1.564-1.571-2.274H7.194Z"/><path fill="#ffd100" fill-rule="nonzero" d="M12 16.595c-.181.002-3.22-2.132-3.485-2.319.042.187.217.783.338 1.106v.026a12.94 12.94 0 0 1-2.383-1.561l.259.98s-1.116-.643-1.106-.643h-.574c.705.519 1.622 1.12 2.397 1.425a30.722 30.722 0 0 0-.211-.731c.75.522 1.644.981 2.307 1.297-.043-.151-.277-.731-.328-.91.289.2 2.694 1.789 2.786 1.786.092.003 2.497-1.586 2.786-1.786-.051.179-.285.759-.328.91a17.061 17.061 0 0 0 2.307-1.297c-.018.048-.203.695-.211.731.775-.305 1.692-.906 2.397-1.425h-.574c.01 0-1.106.643-1.106.643l.259-.98a12.94 12.94 0 0 1-2.383 1.561v-.026c.121-.323.296-.919.338-1.106-.265.187-3.304 2.321-3.485 2.319Z"/><path fill="#0c2340" fill-rule="nonzero" d="M23.53 9.522V9.7c.005.059.009.118.009.176 0 .76-.395 1.471-1.349 1.928-.155.074-.446.186-.536.186h-3.962a8.85 8.85 0 0 0 1.01 1.422c.087.104.299.359.366.359s1.948-.579 3.036-1.088c1.195-.559 1.657-1.349 1.657-2.193a2.39 2.39 0 0 0-.231-.968Z"/></svg>