<svg xmlns="http://www.w3.org/2000/svg" width="24" height="24" fill-rule="evenodd" stroke-linejoin="round" stroke-miterlimit="2" clip-rule="evenodd" viewBox="0 0 24 24" xml:space="preserve"><path fill="#fc141d" fill-rule="nonzero" d="M13.78 4.714c-.334 0-.676.07-1.046.212-.342.131-.66.307-.927.461a.321.321 0 0 1-.163.044h-.014c-.226-.01-.456-.069-.699-.131a12.719 12.719 0 0 0-1.765-.331c-.503-.06-1.009-.09-1.502-.09-.539 0-1.067.036-1.571.106a9.356 9.356 0 0 0-1.529.344c-1.058.337-1.954.856-2.664 1.543a3.34 3.34 0 0 0-.652.876 3.24 3.24 0 0 0-.332 1.044c-.044.321-.04.642.012.953-.072.116-.194.245-.323.382-.195.205-.396.418-.511.668a.908.908 0 0 0-.089.468.928.928 0 0 0 .206.495s.167.233.353.39c.264.223.603.341.981.341.461 0 .961-.178 1.338-.476.289-.229.595-.382.935-.469.305-.079.598-.095.881-.111.24-.014.468-.027.686-.076a5.788 5.788 0 0 0-.052.507c-.014.261-.01.529.01.775.023.275.066.521.128.73.113.38.291.634.527.752a.444.444 0 0 0 .405-.007l.001-.001a.57.57 0 0 0 .234-.255 6.3 6.3 0 0 1 .346-.663c.114-.186.227-.339.347-.468.117-.125.24-.227.375-.312.136-.084.285-.151.457-.206a.941.941 0 0 0 .584-.522c.043-.093.073-.194.089-.296l.012.001c.053.003.104.006.153.011.368.373.761.723 1.142 1.063l.444.399.011.01.013.009c.065.049.266.247.461.439.34.334.806.792 1.25 1.165.591.496.993.718 1.302.718a.526.526 0 0 0 .456-.241.572.572 0 0 0 .065-.476c-.049-.161-.145-.289-.222-.392l-.009-.013-.003-.004c-.21-.262-.443-.669-.639-1.115a5.625 5.625 0 0 1-.128-.311c.235.117.473.246.713.384a15.843 15.843 0 0 1 2.237 1.578c.288.243.557.49.779.712l.393.416c.545.6.946 1.129 1.1 1.452.032.068.021.092.015.104-.009.02-.036.061-.116.117a1.52 1.52 0 0 1-.302.155c-.258.105-.585.19-.873.266-.115.03-.224.059-.326.088-.22.062-.456.158-.685.279a3.668 3.668 0 0 0-.711.486 2.688 2.688 0 0 0-.585.708 2.02 2.02 0 0 0-.262.941l-.001.01.001.009a.485.485 0 0 0 .085.272.398.398 0 0 0 .329.168h.022a.46.46 0 0 0 .234-.08 3.2 3.2 0 0 1 .871-.437c.232-.071.459-.105.715-.105.22 0 .438.026.648.05.216.025.439.051.668.051.335 0 .637-.056.93-.176.223.353.532.619.936.81.423.2.896.293 1.353.383.725.142 1.409.277 1.839.805a.496.496 0 0 0 .374.186.428.428 0 0 0 .324-.151.605.605 0 0 0 .118-.219.728.728 0 0 0 .026-.303 2.52 2.52 0 0 0-.266-.846 4.25 4.25 0 0 0-.508-.765c-.391-.482-.89-.947-1.372-1.396-.418-.389-.849-.791-1.194-1.191a4.633 4.633 0 0 1-.441-.588 2.43 2.43 0 0 1-.268-.578 47.558 47.558 0 0 0-.821-2.546 14.885 14.885 0 0 0-.763-1.79 10.638 10.638 0 0 0-.896-1.442 24.336 24.336 0 0 0-1.204-1.492c-.162-.19-.311-.362-.443-.514-.561-.647-.87-1.004-1.08-1.432-.075-.154-.058-.237-.038-.286a.557.557 0 0 1 .211-.226c.125-.085.3-.17.519-.25a.459.459 0 0 0 .266-.266.491.491 0 0 0 .005-.336c-.067-.195-.247-.377-.552-.554a3.294 3.294 0 0 0-.564-.259 2.37 2.37 0 0 0-.804-.142Z"/><path fill="#fff" fill-rule="nonzero" d="M19.651 16.337c-1.22-4.079-1.74-4.957-3.623-7.159-.865-1.011-1.286-1.439-1.566-2.01-.277-.567.141-.92.861-1.185.083-.03.116-.131.088-.215-.095-.277-.707-.551-.927-.622-.917-.334-1.744.055-2.523.506a.629.629 0 0 1-.344.085c-.369-.016-.721-.14-1.093-.221-2.738-.638-6.293-.474-8.411 1.576a3.002 3.002 0 0 0-.893 1.742c-.04.289-.038.584.013.877a.212.212 0 0 1 0 .085.288.288 0 0 1-.039.102c-.313.512-1.24 1.033-.742 1.671.172-.241.571-.265.878-.317 1.483-.253.947-2.143 2.449-2.154-.185.04-.474.115-.682.392-.275.367-.581 1.779-1.687 1.924-.35.057-.531.075-.658.15a.544.544 0 0 0-.171.16l.002.003a.681.681 0 0 0 .175.184c.554.473 1.424.266 1.935-.139 1.329-1.051 2.519-.306 3.181-1.02-.331.57-.393 2.767.261 3.095a.128.128 0 0 0 .12-.002.244.244 0 0 0 .104-.115c.487-1.058.935-1.568 1.713-1.813.381-.116.526-.549.455-.87.203.046.415.031.619.067.52.536 1.094 1.022 1.647 1.524.364.27 2.618 2.792 3.03 2.16a.268.268 0 0 0 .029-.221c-.034-.113-.11-.211-.181-.305-.508-.636-.971-1.795-1.001-2.173 1.83.775 3.549 2.138 4.423 3.016l.398.421c.361.397.93 1.064 1.151 1.528.331.694-.998.931-1.795 1.156-.742.21-1.991.95-2.02 2.128.003.091.04.149.115.145a.137.137 0 0 0 .075-.027c1.859-1.272 2.722.017 4.135-.766.806 1.741 3.143.864 4.237 2.207a.197.197 0 0 0 .08.06c.109.045.174-.041.205-.141a.424.424 0 0 0 .015-.177c-.225-1.927-3.475-3.426-4.038-5.312ZM9.378 5.509c1.294.243 1.757.672 2.523.48.37-.092.806-.473 1.15-.618.67-.283 1.435-.159 2.141.423a1.453 1.453 0 0 0-.187.044.604.604 0 0 1-.388.001c-.295-.111-.566-.152-.843-.098a1.646 1.646 0 0 0-.506.193c-1.322.769-1.492.611-3.384.08-1.95-.548-4.653-.273-4.653-.273 1.397-.339 3.15-.418 4.147-.232ZM3.462 8.543c-.583 1.074-1.343.421-2.054 1.144.404-.753 1.017-.388 1.568-.827.309-.301.63-1.017 1.017-1.178.191-.086.549-.149.656.082a.28.28 0 0 1 .023.099c.009.142-.033.248-.147.321-.207.132-.45.178-.57.008a.124.124 0 0 1-.025-.083.105.105 0 0 1 .073-.095c.027-.011.117-.032.117-.032-.035-.029-.092-.052-.179-.021-.197.07-.364.42-.479.582Zm3.448 2.632c-.303.37-.211.849-.186 1.294a.302.302 0 0 1-.059.197c-.212.284-.36.612-.497.937-.411-.908-.316-2.305-.005-2.84a.243.243 0 0 1 .214-.12c.296.002.654.089.8.124.167.041.352.104.468.139-.266.058-.595.096-.735.269Zm-1.01-.74c-.251.145-.498.349-.78.407-.494.103-.96.037-1.442.146a.962.962 0 0 0-.195.069c-.967.468-1.547 1.236-2.575.808 1.42-.057 1.414-.525 1.959-1.167.601-.728 1.529-.294 2.357-.572.475-.192.697-.684 1.259-.746.682-.075 1.578.422 2.165.442.038.368.154.716.336 1.035-.898-.032-2.396-.783-3.084-.422Zm7.541 4.023c.009.007.001.022-.01.018-.242-.093-.614-.386-.887-.612-.711-.589-1.136-1.037-1.728-1.618-.581-.569-1.542-1.404-1.739-1.97-.257-.741.059-1.277.412-1.537.023-.016.051.013.033.035-.37.461-.361 1.012-.092 1.554.29.583 1.198 1.459 2.063 2.328.903.909 1.091 1.12 1.948 1.802Zm-.813-2.623c-.086-.884-.852-1.155-1.644-1.698.846.255 2.23.983 2.23.983 2.698 1.357 4.68 4.155 5.475 5.531.008.014.064.105.074.126-1.483-2.225-3.667-3.956-6.135-4.942Zm6.669 7.645c-.032-.066-.11-.08-.172-.054-1.23.843-2.26-.44-4.065.751.492-1.924 2.649-1.469 3.705-2.448-.477.833-1.454.774-2.153 1.277 1.143-.014 1.396.653 2.628-.114.148-.04.208.11.267.216.234.404.516.797.898 1.073.47.287.983.484 1.527.572.397.087.839.173 1.226.389.161.09.27.251.301.433l.006.036c-1.169-1.181-3.413-.443-4.168-2.131Z"/></svg>