<svg xmlns="http://www.w3.org/2000/svg" width="24" height="24" fill-rule="evenodd" stroke-linejoin="round" stroke-miterlimit="2" clip-rule="evenodd" viewBox="0 0 24 24" xml:space="preserve"><path fill-rule="nonzero" d="M5.414 9.934c-.223-.23-.394-.434-.504-.559-.105-.125-.172-.227-.262-.246a.61.61 0 0 0-.37.035c-.118.059-.184.2-.25.375-.098.23-.22.453-.36.66.086.383.09.781.008 1.168.164.145.203.278.14.461a.315.315 0 0 1 .145.195c.031.114-.031.247-.094.383-.087.18-.181.357-.281.531-.086.137-.156.239-.29.247-.128.004-.163-.09-.23-.223a4.515 4.515 0 0 1-.226-.508c-.137-.015-.156-.098-.188-.176a.496.496 0 0 1-.043-.234c.036-.105.082-.207.141-.305.027-.066-.043-.156-.098-.195a.667.667 0 0 1-.195-.29 1.45 1.45 0 0 1-.023-.487c.011-.18.058-.235.207-.438.148-.203.527-.914.742-1.324.137-.25.23-.52.273-.8.024-.145.078-.169.145-.184.082-.016.164-.04.242-.067a.917.917 0 0 1 .379-.11c.215.012.254.11.367.18.117.07.395.239.7.426.277.149.53.336.761.547.094-.05.227-.105.367-.172a.985.985 0 0 0 .336-.238c.078-.098.09-.227.125-.504.031-.3.098-.594.203-.875.11-.246.371-.437.746-.777.38-.34.43-.645.461-1.008-.246-.016-.82.039-.98.047-.16.004-.758.015-.914.023-.157.004-.282.035-.332-.047-.055-.086-.028-.187.023-.34a1.05 1.05 0 0 0 .027-.492c-.14.086-.226.086-.386.11a.3.3 0 0 1-.297-.11.823.823 0 0 1-.145-.32c-.02-.07 0-.145.047-.2.035.059.1.093.168.09.07 0 .082-.093.102-.18.02-.081.058-.077.136-.077.079 0 .083-.063.047-.106a.412.412 0 0 0-.171-.132.151.151 0 0 0-.184.042c-.046.066-.094.13-.145.192-.046.055-.109.117-.16.125-.054.004-.164-.059-.242-.082a.414.414 0 0 0-.152-.02c-.024 0-.055.004-.067-.035a.662.662 0 0 1-.043-.191c0-.117.004-.23.012-.348a.23.23 0 0 0-.043-.156.11.11 0 0 1 .008-.152c.066-.094.262-.211.488-.348.246-.149.488-.3.723-.461.148-.102.304-.2.46-.285a.756.756 0 0 1 .274-.078c.051-.008.031-.047.051-.133.023-.117.195-.196.394-.274.247-.094.488-.201.723-.32a.187.187 0 0 0 .098-.21.446.446 0 0 1 .015-.192.46.46 0 0 1 .153-.16c.047.039.094.078.144.117a.681.681 0 0 1 .207.242c.27-.117.368-.352.485-.559.32.305.285.594.277.782.149-.082.313-.133.484-.153.141-.008.375.063.48.063-.034.097-.132.144-.222.207.324.008.68.09.824.258.122.148.274.27.45.351.14.063.347.106.437.14a.754.754 0 0 1 .227.16c.062.067.117.142.168.22a.591.591 0 0 1 .133.23.208.208 0 0 0-.204-.062.364.364 0 0 1 .07.152.839.839 0 0 0-.464-.09c-.074.008-.082.035-.047.063.078.074.152.152.215.234.082.098.18.25.277.36.102.105.2.062.262.05.087-.011.173-.027.258-.05-.051.14-.203.257-.348.402l.043.07-.035.02c-.035-.036-.07-.063-.133-.125-.062-.063-.11-.028-.11.035 0 .187.118.492.278.508.164.02.469-.223.727-.418a1.21 1.21 0 0 1-.008-.262c.146-.095.307-.165.476-.207.121-.012.246 0 .368.027.078.012.148 0 .148-.062 0-.063-.105-.153-.277-.23-.29-.141-.368-.235-.57-.52.085-.23.199-.446.34-.645l.097.024c.152-.114.09-.258.25-.438a.844.844 0 0 1 .637-.277l.035-.207c-.598.062-.563-.375-.563-.547 0-.168.098-.465.36-.465.285 0 .464.215.722.2.207-.016.367-.083.602-.055.234.027.43.18.59.359.16.176.422.555.699.82.277.27.691.27.879.297.187.027.465.027.625.117.21.14.39.325.531.54.098.16.113.359.043.534.305.145.395.512.402.68-.005.181-.037.36-.097.531a1.938 1.938 0 0 1-.34.286 1.369 1.369 0 0 1-.414.226c-.086.016-.266-.027-.403-.066-.132-.035-.277-.098-.34-.106-.062-.008-.152.043-.195.016-.047-.024-.117-.176-.172-.328a.262.262 0 0 0-.09-.125c-.027-.02-.062-.047-.062-.082s.055-.07.18-.07.152-.055.187-.153c.035-.101-.027-.18-.125-.234a.4.4 0 0 1-.18-.196.42.42 0 0 0-.206-.18c-.07-.038-.231.009-.403-.046a.436.436 0 0 1-.305-.32.303.303 0 0 1 .188-.325.202.202 0 0 0-.105-.207c-.055-.015-.172.028-.305.028s-.25-.133-.305-.27c-.055-.133-.02-.348-.223-.644-.207-.293-.585-.368-1.03-.368l-.016.395c.527.055.75.465.793.836.05.39-.125.598-.293.797-.028.203-.02.32.09.437.105.117.285.082.421.07 0 .036-.027.063-.066.09.105.09.203.188.289.297a.126.126 0 0 1 0 .168c.266.309.496.645.687 1.004.082.012.153.02.192.074.078.13.152.262.223.403.062.133.027.23-.036.36-.07.132-.164.25-.277.347-.074.043-.117-.008-.172-.043a4.35 4.35 0 0 1-.43.418c-.046.047-.007.125-.007.18a.13.13 0 0 1-.075.117c-.043.027-.535.324-.867.511 0 .242-.152.34-.312.446.113.379.015.511-.102.683.387.051.797.196.988.328.188.137.18.243.16.36.22.12.45.218.692.297.168-.09.125-.239.074-.356-.062-.148-.246-.3-.39-.414.332-.047.609.106.824.215.215.105.441.25.734.305.297.05.637-.036.988-.172.176-.059.344-.153.481-.278-.11.246-.25.48-.418.692a3.264 3.264 0 0 1-1.383.976c.457.457.887 1.075 1.04 1.586.2-.101.376-.242.519-.414.074-.07.254-.242.457-.242.207 0 .254.063.34.25-.25.012-.383.074-.582.262-.196.187-.258.492-.266.812.723.2 1.262.656 1.719 1.219.36.445.558 1 .562 1.57-.004.36-.054.72-.152 1.067-.078.277-.133.457-.125.761 0 .239.07.473.207.668-.7-.105-.395-1.136-.34-1.457.063-.324.106-.648.125-.976 0-.235-.062-.45-.133-.54.035.31.024.618-.027.923-.055.324-.234.976-.29 1.363-.05.387 0 .914.27 1.262.27.351.528.324.762.312-.27.45-.7.246-1.055.055.024.172.079.34.16.492-.386-.152-1.093-.5-1.3-1.125-.258-.79-.188-1.598.012-2.492-.2-.395-.415-.504-.582-.504-.172 0-.415.11-.415.457a.906.906 0 0 0 .137.539c.035.082.258.285.356.555.097.27.062.441-.078.691.035.133.132.395.195.563.062.171.062.234.02.367a4.406 4.406 0 0 0-.18 1.336c.007.664.242 1.543.293 1.836.054.297-.098.394-.25.554.117.344.035.496-.055.602a.853.853 0 0 1-.418.25c-.012.121-.04.238-.082.351-.035.098-.117.278-.188.457-.25.09-.507.149-.77.18-.296.024-.476 0-.558-.11-.078-.109-.023-.312.102-.609.125-.293.312-.492.508-.562.11-.29.261-.504.593-.809-.199-.484-.046-.816.098-1.101-.047-.664-.137-1.371-.305-1.89-.171-.52-.296-.563-.5-.661a.752.752 0 0 1-.476.445c-.195.059-.39.106-.59.14a1.178 1.178 0 0 0-.531.255c-.117.09-.18.242-.285.312-.11.075-.196.075-.29.125-.085.055-.066.157-.148.243-.078.078-.125.074-.226.09-.098.019-.09.1-.09.214 0 .117-.008.2-.07.254-.063.05-.278.098-.395.113a.385.385 0 0 0-.055.254c.012.114.082.176.242.293-.332.145-.492-.008-.582-.097-.09-.09-.133-.325-.14-.563-.235.113-.262.277-.29.418-.027.145-.09.137-.257.137a3.63 3.63 0 0 1-.414-.063c-.098-.011-.196-.062-.297.035-.129.13-.016.23-.106.34-.09.11-.261.09-.554.11-.555.03-.887-.192-.95-.332-.062-.145.036-.243.204-.387.171-.145.324-.27.449-.305.082-.312.582-.312.816-.277.23.035.375.008.492-.098a.5.5 0 0 0 .133-.379c0-.105.028-.152.082-.187a.647.647 0 0 1-.449-.328.884.884 0 0 0-.375.086c-.187.09-.144.27-.144.457-.079-.008-.27-.07-.32-.196-.075-.164-.02-.394.175-.593.2-.196.574-.203.898-.184a.456.456 0 0 1 .332-.129c.34 0 .278.129.625.129.352 0 .567-.21.7-.406-.196-.008-.473.172-.77.144a.32.32 0 0 1-.25-.172c-.047-.07-.074-.187-.125-.257a.454.454 0 0 1-.129-.305c0-.164.168-.492.348-.754-.207-.203-.5-.012-.625.07-.16.11-.223.082-.305.04a.174.174 0 0 0-.215.027.704.704 0 0 1-.332.113 1.76 1.76 0 0 1-.375-.055.156.156 0 0 0-.117.024.145.145 0 0 0-.062.105c.293.262.351.512.351.688a.72.72 0 0 1-.164.492.998.998 0 0 0-.215-.48.464.464 0 0 0-.312-.165c-.09-.007-.223-.023-.23.012-.012.035.07.078.179.125.105.043.086.125.05.242.415.32.352.61.306.95a3.106 3.106 0 0 0-.348-.403.453.453 0 0 0-.172-.11 1.519 1.519 0 0 0-.223-.097c-.125-.047-.117.063-.082.145.035.078.063.125.028.187.16.32.285.403.492.5a.952.952 0 0 1-.403.09c-.277 0-.44-.152-.59-.312h-.09c.036.07.087.132.153.18-.152.007-.344.034-.547-.063-.207-.102-.297-.297-.36-.555-.144-.129-.038-.477.017-.602.101-.23.23-.449.378-.656a.791.791 0 0 1-.027-.457c-.41-.347-.36-.418-.36-.582-.09-.082-.23-.16-.265-.223a1.138 1.138 0 0 1-.074-.34.356.356 0 0 1-.168-.019c-.04.235-.125.324-.262.36a.785.785 0 0 1-.277.375c-.215.164-.367.144-.555.152.07-.09.293-.356.36-.445a.235.235 0 0 0-.02-.27c-.297.242-.645.168-.867.117.008.06.035.116.078.16-.313.043-.457-.074-.645-.25-.015.23-.082.453-.191.66.168.153.086.489-.012.668a.428.428 0 0 1 .086.336c.098.02.172.094.2.188.042.183-.012.266-.215.562a1.81 1.81 0 0 1-.442.489c-.094.074-.215.074-.262.023-.046-.047-.156-.355-.203-.558-.047-.204.047-.274.121-.36.07-.082.012-.203-.05-.32-.059-.121-.227-.145-.262-.383-.047-.324-.016-.559.21-.66-.198-.469.153-.824.278-1.137.125-.316.102-.523.09-.773-.062.058-.18.156-.227.144-.046-.011-.125-.086-.125-.242 0-.41.43-.254.43-.824a.94.94 0 0 0-.215-.645 1.115 1.115 0 0 0-.484-.324 2.32 2.32 0 0 1-.453-.152.753.753 0 0 0-.426-.133c.012-.098.145-.223.254-.258.105-.039.336-.02.562.016.227.035.477-.164.477-.547a.799.799 0 0 0-.324-.664c-.094-.059-.305-.219-.34-.34-.035-.117-.188-.238-.344-.355a.462.462 0 0 1 .383-.157.463.463 0 0 1 .36.203c.109.183.33.271.535.211-.141-.152-.387-.402-.606-.636Zm1.043-5.41c.11.3.156.464.035.835.305 0 .61-.03.91-.082.25-.035.825-.12 1.18-.132.027-.11.047-.223.063-.332-.47.117-.899.238-1.243.261-.347.024-.527.035-.644-.023-.121-.063-.11-.086-.063-.168a.454.454 0 0 0 .047-.285.48.48 0 0 0-.07-.22c-.082.063-.156.11-.215.145v.001Zm.371-.227c.059.148.09.308.094.465-.012.062-.024.215.098.203.117-.012.43-.117.585-.152.153-.04.774-.18 1.063-.227.035-.23.059-.457.012-.516-.047-.058-.145-.093-.25 0a.488.488 0 0 1-.446.121 1.913 1.913 0 0 0-.57-.109 1.055 1.055 0 0 0-.586.215Zm5.434 2.18a.624.624 0 0 0 .324.25c.078-.304.257-.573.508-.762a3.93 3.93 0 0 1-.16-1.11c-.16.122-.352.192-.555.207.07.66-.008 1.137-.117 1.415Zm2.582-.438c.066.14.101.293.105.445.215-.175.36-.43.52-.668.07.047.156.07.242.07v-.081a.453.453 0 0 0 .223-.332c.011-.078-.051-.106-.114-.133a1.373 1.373 0 0 1-.36-.297c-.214.352-.44.773-.616.996Zm-8.02 8.82c.125-.043.188-.14.297-.23.106-.09.234-.098.402-.11.11-.105.313-.292.477-.312.16-.016.313.074.473.25.312-.035.359.082.402.234l.137.028a.451.451 0 0 1 .125-.297.861.861 0 0 1 .078-.492 1.976 1.976 0 0 0-.895-.035c-.312.062-.535.222-.761.43a.7.7 0 0 0-.348-.305c-.332.421-.352.566-.387.84v-.001Zm5.852-.84c.418.063.61-.015.77-.152-.16-.152-.505-.16-.77-.16a1.027 1.027 0 0 0 0 .313v-.001Zm6.539-.332a.366.366 0 0 0-.34.188.736.736 0 0 0-.04.645c.13.351.477.386.622.62.016-.913-.062-1.128-.242-1.453Zm-1.48 3.063c.054.305.566.719.8.71.024-.378-.144-.519-.219-.546a.155.155 0 0 1-.113-.152 1.368 1.368 0 0 0-.469-.012h.001Z"/><path fill="#d1262f" fill-rule="nonzero" d="M7.18 10.086c.156.137.113.3.148.52.101.552.383 1.055.8 1.43.61.538 1.231.718 1.782.886.047-.047.117-.133.164-.18-1.203-.336-1.62-1.195-1.73-1.805-.078-.472 0-.96.226-1.386.157-.32.598-.774.825-.977.226-.203.28-.437.246-.582-.168.2-.38.363-.618.473-.218.094-.425.21-.617.348-.18.144-.23.285-.336.406-.11.117-.336.37-.691.43-.36.058-.469-.204-.586-.454a.451.451 0 0 0 .012.465c.07.117.117.25.058.5-.058.254-.418.406-.68.469-.261.059-.37.047-.527-.012-.156-.062-.242-.234-.355-.312-.09-.067-.285-.102-.395.004l.164.164c.078.09.075.18.18.273.11.098.203.156.336.29.262.26.273.51.226.808a.53.53 0 0 1-.359.437c-.156.047-.371.012-.512-.011-.144-.024-.285.003-.316.105.105 0 .23.129.34.176.105.047.348.094.62.215.274.12.419.394.49.597.058.211.062.434.01.645-.034.11-.105.156-.25.285-.144.133-.093.215-.058.3a.459.459 0 0 0 .168-.144c.094.18.203-.035.297-.144.098-.106.371-.356.656-.414.29-.063.465.035.696.261.129-.132.367-.242.605-.324.242-.082.684-.094 1.102-.047.023-.047.07-.11.094-.156-.474-.13-.958-.225-1.446-.285-.41-.05-.789-.098-1.09-.152a2.946 2.946 0 0 1-.687-.208 1.895 1.895 0 0 1-.317-.199 1.998 1.998 0 0 0-.27-.113c-.108-.047.095-.02.216.027.12.047.32.227.691.332.403.098.809.168 1.219.203.586.067 1.164.18 1.734.336.04-.05.09-.09.145-.12a.493.493 0 0 1 .012-.216 8.17 8.17 0 0 1-1.313-.406 5.802 5.802 0 0 1-1.496-.812 4.384 4.384 0 0 1-.836-.825c-.086-.105-.203-.261-.191-.296.011-.036.129.156.453.488a6.043 6.043 0 0 0 1.683 1.184 9.363 9.363 0 0 0 1.762.585.706.706 0 0 1 .18-.16 6.252 6.252 0 0 1-.95-.332A3.615 3.615 0 0 1 7.927 12c-.262-.25-.477-.68-.574-.93a2.716 2.716 0 0 1-.141-.61c0-.124-.012-.245-.035-.366-.004-.008 0-.016.004-.008H7.18Zm4.84-1.852a.837.837 0 0 1-.395.512c-.031.016-.02.027 0 .035.082.055.129.207.14.274.16-.016.32-.024.477-.024.051-.136.106-.27.172-.398-.152-.008-.297-.07-.312-.184-.02-.113-.043-.199-.047-.226-.008-.032-.028-.02-.035.011Zm-.247 1.051a.31.31 0 0 0-.226.195c-.05.086-.082.172-.113.211-.028.043-.051.079-.024.075.195-.04.195-.188.274-.309.078-.121.195-.125.27-.148.128-.051.257-.106.378-.168.176-.082.324-.204.445-.352.063-.09.075-.305.082-.39a.474.474 0 0 0-.078-.239c-.031-.039-.066-.07-.011-.082.054-.012.171.035.304.035a.586.586 0 0 0 .258-.047c.027-.02.09-.058.094-.007.008.074.011.144.008.214-.012.145.07.211.168.325-.278.261-.188.43-.165.574-.238.191-.18.293-.16.418-.07.004-.18 0-.226.09-.047.09.066.136.168.23.097.086.18.188.238.305-.148-.024-.285.047-.312.168-.024.12.03.183.144.293a.144.144 0 0 1-.16.094c-.18-.036-.227-.215-.324-.344a1.11 1.11 0 0 0-.317-.305c-.113-.074-.156-.098-.32-.023a.399.399 0 0 0-.258.343c-.008.133.059.246.102.383s0 .184-.07.305c-.075.121-.13.184-.2.2.024-.102.035-.204.043-.306.004-.074-.113-.27-.16-.335a.517.517 0 0 0-.18-.18.3.3 0 0 0-.27.02c-.058.038-.066.074-.054.175.121-.05.25-.078.379-.082.016.031.035.059.05.102a2.44 2.44 0 0 0-.554.16.166.166 0 0 1 .047-.137l-.09.008c-.035.207.02.41.05.574-.187-.043-.304-.234-.378-.383l-.078-.011c0-.043.008-.121.012-.211a.682.682 0 0 0-.028-.22c-.011-.05-.18-.175-.265-.198a.729.729 0 0 0-.29.023c-.054-.226.333-.543.532-.558a.658.658 0 0 0 .328-.098c.066.055.16.074.242.055.14-.032.227-.192.29-.301a.607.607 0 0 1 .296-.254.57.57 0 0 1 .453-.012c-.11.055-.226.098-.344.125Zm-2.757 1.067c.007.191-.114.585-.114.812a1.06 1.06 0 0 0 .164.582c.04-.105.094-.2.16-.289-.081-.156-.039-.457-.035-.586a2.748 2.748 0 0 0 0-.363.814.814 0 0 0-.07-.274c-.016-.03-.012-.054.008-.035.074.086.113.2.117.317.02.148.008.375.012.656 0 .262.176.488.43.555.18.054.269.027.496-.055.218-.09.425-.215.609-.363a1.081 1.081 0 0 0-.11-.125c-.25.214-.656.414-.828.398-.304-.023-.406-.184-.406-.316 0-.13.16-.204.227-.22.066-.019.156 0 .261-.054a2.133 2.133 0 0 1-.328-.394c-.156-.215-.129-.309-.265-.473a.59.59 0 0 0-.508-.207.932.932 0 0 1 .18.434Zm1.609.765-.047-.09-.027-.004c-.153.141-.32.27-.5.38a.443.443 0 0 1-.278.074c-.054-.008-.043.015.004.027.114.02.23 0 .332-.055.107-.046.208-.103.301-.172.067-.05.164-.113.215-.16Zm.379-.133c.004.067.016.133.031.2.203-.11.43-.168.656-.168a.297.297 0 0 0-.074-.211 1.755 1.755 0 0 0-.613.18v-.001Zm1.476-.425a.625.625 0 0 0 .22-.145 2.452 2.452 0 0 0-.2-.195.247.247 0 0 0-.332.004c.129.015.258.214.312.336Zm-.445.148c.012.05.04.133.047.176.074-.04.184-.121.195-.16.008-.04-.078-.047-.242-.016Zm-1.047-.316c.07-.047.149-.09.227-.125.062-.028.094-.036.098-.075.003-.043-.063-.086-.13-.113a.267.267 0 0 0-.078-.176c-.043-.05-.18-.062-.277-.047a.954.954 0 0 1 .149.149.35.35 0 0 0-.082.035c.101.024.144.066.16.125-.075.027-.227.125-.258.25s-.008.172.035.215a.423.423 0 0 1 .156-.238Zm-.613-.188a.676.676 0 0 1 .074-.183.242.242 0 0 0-.234.043c-.059.046-.07.078-.063.128.075-.004.149 0 .223.012Zm1.004-.32c.05.062.187.023.27.047l.003.039c.051-.024.102-.047.157-.067.062-.02.199-.082.261-.105.082-.02.168-.05.246-.086.059-.031.059-.055.059-.133a.241.241 0 0 1 .059-.14c.027-.036.078-.047.09-.028.015.031.03.024.046 0 .02-.023.051-.074.09-.133a.82.82 0 0 1 .36-.257c.027-.004.027-.016.003-.016-.039.004-.074.016-.113.027a.588.588 0 0 0-.183.106 2.738 2.738 0 0 1-.196.144.64.64 0 0 1-.297.074c-.1.012-.199.032-.296.06a.319.319 0 0 0-.145.097 1.773 1.773 0 0 1-.105.191.475.475 0 0 1-.282.164c-.023-.012-.035.004-.027.016Zm1.5-1.086c-.004.02.012.023.023.008a.879.879 0 0 1 .059-.063l.16-.187a.946.946 0 0 0 .149-.207c.015-.036.035-.102.015-.13-.023-.027-.062-.019-.113.02a.467.467 0 0 0-.133.172c-.048.1-.092.202-.133.305-.008.023-.015.05-.027.082Zm.234-.02c.016-.007.032-.011.063-.027s.12-.059.156-.082c.031-.02.082-.043.082-.078 0-.04-.05-.05-.078-.043a.285.285 0 0 0-.113.09 1.908 1.908 0 0 0-.121.133c-.008.007-.004.015.011.007Zm-.18.664a.553.553 0 0 1 .11.07c.039.04.05.012.074 0 .02-.007.016-.073.008-.109-.004-.035-.055-.035-.086-.03-.062.003-.121 0-.184-.005a.201.201 0 0 0 .079.074h-.001Zm-1.25 1.676a.635.635 0 0 0-.417.149c-.082.074-.176.242-.16.347.082-.031.175-.078.308.114.074-.067.227-.22.387-.094.062-.094.117-.27.449-.238.043-.168.078-.399.46-.356 0-.129.08-.25.2-.3a.822.822 0 0 0-.133-.212c-.21.118-.34.215-.41.258-.074.047-.191.14-.258.18-.058.144-.093.273-.218.383a.245.245 0 0 1-.254.062c.027-.098.043-.195.047-.293h-.001Zm.122.695c-.032-.09-.149-.156-.278-.023.11.008.203.016.278.024v-.001Zm1.59-2.156c.015.024.015.063-.012.04a.1.1 0 0 0-.074-.005.075.075 0 0 0-.051.047c-.028.059.031.153.137.223a.563.563 0 0 1 .19.215.217.217 0 0 1-.003.183.17.17 0 0 0-.121-.046.174.174 0 0 0-.172.156c-.004.148.106.176.215.219a.174.174 0 0 1-.066.074c.074.062.214.172.214.328 0 .242-.316.566-.57.777-.254.207-.516.344-.953.602-1 .594-1.149.75-1.254.914a1.813 1.813 0 0 0-.203.597 2.16 2.16 0 0 0-.012.59c.004.067-.023.067-.023 0a.526.526 0 0 0-.047-.187.538.538 0 0 0-.39-.266c-.13-.012-.352.055-.497.113-.14.06-.39.176-.473.297-.148.223-.093.477-.058.621.2-.171.441-.285.703-.332.2-.05.406-.074.613-.07-.156.113-.144.211-.117.258.027.05.035.066.016.101-.19.262-.344.549-.457.852a3.346 3.346 0 0 1-.117.484.541.541 0 0 0 0 .465c-.09.176-.047.266.023.45a6.135 6.135 0 0 0-.473.78c-.09.196-.027.282.051.376.063-.114.176-.117.316-.114.022-.057.039-.115.051-.175.008-.075-.004-.29.012-.387.027-.106.07-.211.125-.305a.62.62 0 0 1 .008.317c-.05.176-.083.357-.098.539a.447.447 0 0 0 .277.402.748.748 0 0 1 .368-.184c-.016-.066-.047-.234.02-.304.066-.067.179-.008.214.004.035.015.078.03.09-.012a.376.376 0 0 1 .219-.246c-.04-.027-.082-.078-.153-.133-.066-.059-.14-.113-.129-.223.016-.105.184-.09.371-.082a.842.842 0 0 1 .012-.265.375.375 0 0 1 .164-.207c.063-.032.043-.063.035-.094a.218.218 0 0 0-.125-.137c-.148-.05-.3-.07-.457-.07.098-.066.141-.086.141-.18 0-.093-.09-.066-.172-.082-.078-.02-.086-.078-.008-.187a.854.854 0 0 1 .282-.285c.062-.024.261 0 .402.027.035-.04.2-.137.273-.219-.093-.144-.03-.32 0-.387.04-.082.07-.168.094-.257.012-.055-.008-.149-.098-.309s-.332-.2-.558-.2c.058-.171.191-.444.707-.46.515-.012.812.379 1.023.61a.852.852 0 0 1 .442-.528c.222-.117.484-.152.855-.172a.362.362 0 0 1 .07-.336c.106-.137.27-.137.481-.105 0-.18.125-.332.3-.368.223-.074.739-.015 1.165.047.437.07.879.11 1.324.114.406-.008.813-.04 1.215-.094.035-.008.11-.004.023.027-.27.079-.547.129-.828.149-.555.02-1.11 0-1.66-.059-.629-.07-1.082-.133-1.285-.059-.2.07-.18.239-.16.399-.356-.094-.492-.027-.54.074-.042.106.055.234.192.41-.484-.133-.918-.02-1.098.09-.21.145-.375.348-.472.586-.094-.105-.25-.242-.336-.336a.93.93 0 0 0-.711-.332c-.305-.004-.442.121-.527.262a.554.554 0 0 1 .52.293c.07.12.085.27.038.402a.863.863 0 0 0-.129.328c-.015.14.14.211.223.223a.505.505 0 0 1 .062-.344c.059-.117.223-.207.446-.215a.705.705 0 0 1 .492.137c.152.121.265.29.316.48.04.149.055.364.086.493.031.132.149.18.29.195a.66.66 0 0 1-.052-.367.924.924 0 0 1 .188-.457.702.702 0 0 1 .504-.211c.223-.004.512.05.637.27.125.218.09.472.058.667.146-.054.298-.09.453-.105.215.015.422.074.61.18a.87.87 0 0 1 .386.398c.075.172.11.355.098.543-.016.09-.074.187-.074.273 0 .082.066.168.066.344.18-.125.196-.281.23-.433.032-.187.083-.371.153-.547.117-.218.297-.395.516-.508.218-.117.496-.102.808-.07-.093-.223-.414-.442-.722-.665a8.293 8.293 0 0 0-1.098-.62c-.29-.13-.848-.317-1.18-.465-.332-.149-.402-.27-.472-.41-.02-.04 0-.07.03-.008.04.082.24.23.442.332.207.097.825.25 1.746.746.625.336 1.028.648 1.27.925.148.168.18.247.18.336.175.137.226.356.285.59.203-.355.129-.445.086-.562a5.805 5.805 0 0 0-.313-.547c-.101-.168-.199-.32-.207-.496a.656.656 0 0 1 .117-.438.662.662 0 0 1 .457-.218c.157-.004.43.19.63.343.011-.34-.227-.46-.407-.562-.18-.106-.277-.203-.344-.535-.066-.332.028-.532.211-.704.184-.167.442-.214.703-.246a.351.351 0 0 0-.285-.187c-.11 0-.113.023-.226-.035a.265.265 0 0 1-.157-.211 1.978 1.978 0 0 1-.011-.59.997.997 0 0 1 .273-.64c.145-.173.356-.227.512-.258a.205.205 0 0 0-.184-.106.462.462 0 0 0-.308.121c-.094.07-.266.254-.38.336-.116.078-.304.211-.468.316-.305.204-.89.422-1.371.567-.477.14-.656.156-1.23.2-.575.046-1.403.05-1.641.05-.235 0-.367.078-.422.18-.05.082-.04.25-.012.367.028.113.047.16-.035.277-.082.117-.277.207-.516.281-.18.051-.37.055-.55.004-.13-.023-.426-.09-.559-.101a2.43 2.43 0 0 0-.371-.028c-.17.012-.335.062-.484.145-.086.059-.075.02-.024-.02a.98.98 0 0 1 .356-.164c.386-.086.62-.02 1.027.067-.043-.907.773-1.313 1.102-1.715.398-.48.687-1.004.687-1.817a1.108 1.108 0 0 0-.973-1.101c-.03.215.024.258.036.277Zm.332 6.883c.156-.164.32-.324.488-.477.09-.082.223-.199.324-.289-.187-.05-.559-.054-.7.153-.109.156-.179.441-.112.613Zm-1.141.234c.031.04.078.063.129.067.078.004.2-.074.254-.102.105-.054.219-.093.34-.113-.164-.164-.067-.39-.2-.695-.11.316-.288.604-.523.843Zm-.3-.628c-.106.289-.282.496-.556.789a.582.582 0 0 0 .282.046c.25-.011.375-.152.484-.261.188-.172.344-.376.461-.602a.563.563 0 0 0 .023-.36c-.082-.257-.37-.284-.558-.284-.004.23-.05.457-.137.672h.001Zm-1.216.64c.149.031.285.082.344.227a1.55 1.55 0 0 0 .441-.352 2.83 2.83 0 0 0 .336-.555c.07-.199.11-.406.114-.617a.31.31 0 0 0-.278.215.51.51 0 0 0-.004.23c.028.012.055.016.082.024a.278.278 0 0 1-.207.063.292.292 0 0 1-.168-.043c-.226.156-.32.226-.363.308-.066.117-.199.328-.297.5Zm.266-.582c-.086-.02-.25-.058-.336-.02a.632.632 0 0 0-.21.22c-.04.054-.056.113.026.124.086.012.114-.004.137.051.024.04.04.086.043.133a.993.993 0 0 0 .203-.297c.043-.074.086-.144.137-.21v-.001Zm-.145 1.332c.004.063.028.067.086.078a.467.467 0 0 1 .141.075c.117.109.21.242.27.39a.65.65 0 0 0-.04-.52.786.786 0 0 0-.28-.347c-.153.05-.184.223-.177.324Zm-.105.613a.322.322 0 0 0-.191.227c.187.11.351.246.488.41.02-.223-.04-.43-.297-.637Zm-.887.696c.04.101.094.191.168.273.082.082.344.153.535.13a1.31 1.31 0 0 1-.394-.536.496.496 0 0 0-.309.133Zm-.222.25c-.125-.16-.188-.38-.235-.61-.207-.007-.258.024-.293.078a.148.148 0 0 0 0 .168c.153.258.395.387.528.364Zm-3.309-3.711c.004.191.043.558.379.676a1.863 1.863 0 0 1-.059-.414c0-.102.008-.254.016-.375a.371.371 0 0 0-.336.113Zm.281-.445c-.273.027-.289.214-.281.34a.537.537 0 0 1 .305-.098c-.024-.078-.028-.16-.024-.242Zm.242.671c.032.16.122.32.149.32.027 0 .058-.128.074-.261a.96.96 0 0 1 .152-.395.288.288 0 0 0-.355-.09c-.074.036-.066.047-.066.133.011.102.027.196.046.293Zm.59-.308c-.011-.02-.176.011-.23.172a3.169 3.169 0 0 0-.098.418c-.02.078-.008.082.059.011.076-.069.144-.146.203-.23.05-.09.148-.254.066-.371Zm.086-.024a.469.469 0 0 1-.066.418 1.167 1.167 0 0 1-.239.262c.106.02.172.012.352-.133a.942.942 0 0 0 .309-.379c-.094-.117-.125-.18-.356-.168Zm.317.657a.44.44 0 0 1-.075.277 2.285 2.285 0 0 1-.207.281.401.401 0 0 0 .328-.12.741.741 0 0 0 .23-.372.468.468 0 0 0-.276-.066Zm.27-.043c.054.027.07.039.081.023.05-.05.05-.152.063-.226a.853.853 0 0 1 .09-.239c.035-.062.062-.07.113-.07.047 0 .039.043.035.121-.004.105-.008.102.023.105.098.016.133-.09.16-.14a.363.363 0 0 0 .051-.16.623.623 0 0 0-.027-.192.882.882 0 0 1-.04-.265c-.058-.008-.112-.024-.19-.032a.253.253 0 0 0-.075-.191c-.05-.055-.23-.078-.336-.082.004-.047-.093-.148-.21-.2a.405.405 0 0 0-.356.012.775.775 0 0 0-.293.258.6.6 0 0 0-.477.258.203.203 0 0 0 .043.25.532.532 0 0 1 .254-.078c.11.004.215.039.305.105a.559.559 0 0 1 .086-.187c.035-.055.203-.23.238-.266.055-.054.07-.058.063-.004-.004.079-.055.11-.114.18a.529.529 0 0 0-.132.27c.238-.024.363.097.484.222a.963.963 0 0 0 .246-.515c.024.039.066.082.059.152-.016.121-.078.125-.102.176-.023.05.024.16-.016.238-.035.07-.105.066-.222.125s-.13.184-.13.29c.11 0 .224.019.325.062h.001Zm1.206.777c.02-.137.05-.273.09-.402.047-.189.1-.377.16-.563a.502.502 0 0 0-.312.18.636.636 0 0 0-.168.398.404.404 0 0 0 .23.387Zm-.324-.543a.978.978 0 0 1 .234-.363.883.883 0 0 1 .387-.192c.088-.163.186-.321.293-.472a.354.354 0 0 1-.008-.211 1.293 1.293 0 0 0-.62.097.897.897 0 0 0-.446.38.547.547 0 0 0-.078.39c.02.152.109.289.238.371Zm-.066-1.797c.199-.125.613-.324.902-.316.14-.004.281.05.383.148.011-.14.062-.32.054-.363a.504.504 0 0 0-.195-.285c-.14-.094-.394-.098-.61-.024-.214.07-.32.153-.374.235a1.767 1.767 0 0 0-.137.304.984.984 0 0 0-.023.301Zm.425-.902c.192-.055.461-.106.64-.043a.547.547 0 0 1 .33.254c.073-.164.16-.332.19-.387a.17.17 0 0 0 .024-.2.442.442 0 0 0-.211-.25.647.647 0 0 0-.43.009c-.133.058-.254.14-.355.238-.063.074-.195.23-.188.379Zm.528-.719c.148-.035.46-.055.609.066.148.122.176.168.184.286a3.69 3.69 0 0 1 .562-.407c-.023-.074-.113-.175-.285-.273-.168-.094-.387-.07-.512-.05-.125.015-.363.089-.426.16a.433.433 0 0 0-.132.218Zm.652-.555c.277.012.684.086.89.391.172-.09.337-.184.5-.285a.312.312 0 0 0-.081-.262c-.067-.059-.172-.09-.348-.11-.164-.03-.33-.04-.496-.03a.5.5 0 0 0-.332.136.477.477 0 0 0-.133.16Zm1.023-.324c.172.031.387.027.567.297.2-.113.394-.238.578-.379a.448.448 0 0 0-.277-.312 1.134 1.134 0 0 0-.368-.114.26.26 0 0 0-.043.14c-.152 0-.261-.003-.34.071a.367.367 0 0 0-.117.168v.13-.001Zm.57-.594c.16.028.317.082.462.16.092.06.167.144.215.243a.476.476 0 0 0 .222-.196c.078-.109.176-.23.176-.336 0-.109-.023-.18-.195-.28-.086.054-.172.132-.383-.012-.094.039-.168.124-.133.304-.187.004-.328.043-.363.117h-.001Zm5.196 1.164c-.355-.414-.797-.863-1.668-.863-.441 0-1.32.3-1.32.95a.735.735 0 0 0 .066.355.55.55 0 0 0 .156.023.46.46 0 0 1-.003-.465.22.22 0 0 0-.102 0 .266.266 0 0 1 .145-.125.52.52 0 0 1 .199-.066.754.754 0 0 0-.211.316c-.028.082-.043.247.066.332.055.004.113.008.172.004-.043-.086-.121-.164-.09-.296.031-.13.074-.215.29-.32a.538.538 0 0 1 .187-.063c.035-.004.031.015 0 .027-.07.035-.137.078-.2.129a.522.522 0 0 0-.156.25.29.29 0 0 0 .067.277c.074.004.148 0 .222-.008-.039-.152-.046-.21-.03-.25a.3.3 0 0 1 .124-.152c.063-.05.262-.195.309-.195.07.02.136.058.183.113l-.011.012a.217.217 0 0 0-.137-.055.708.708 0 0 0-.188.11c-.109.078-.187.136-.187.21 0 .07.008.141.023.207.098-.003.18-.015.25-.023.008-.078.032-.156.094-.184.031-.011.031.004.012.028a.207.207 0 0 0-.024.152c.139.003.277-.007.414-.031a.332.332 0 0 0-.242-.156c.008-.028.035-.055.117-.047a.28.28 0 0 1 .25.172c.27-.036.536-.102.79-.207a2.396 2.396 0 0 0-.641-.567 2.071 2.071 0 0 0-1.035-.238.372.372 0 0 1 .164-.078c.136-.031.281-.035.418-.008.203.07.398.152.59.246.258.157.492.35.695.574.082-.023.164-.054.242-.09Zm1.39-3.394a2.32 2.32 0 0 1-1.03.277c-.337.016-.672-.183-.852-.273-.18-.09-.45-.238-.664-.258.11.098.246.227.277.344.031.117.059.242-.058.375.207.074.421.12.636.14.196.008.39.004.582-.015.098-.008.106 0 .02.027a1.859 1.859 0 0 1-.672.055 3.514 3.514 0 0 1-.914-.23 7.243 7.243 0 0 1-.55-.22c-.052-.027-.09-.023-.24.028-.07.027-.347.148-.452.3a.582.582 0 0 0-.051.59c.074.153.2.274.351.34.2.075.41.106.618.09-.23-.082-.43-.156-.54-.289-.113-.137-.203-.27-.18-.433.02-.168.106-.297.493-.27.387.027.852.184.879.457.012.152-.18.25-.293.316-.098.06-.133.063-.043.106.129.05.27.07.406.047.305-.035.603-.121.88-.254.333-.166.64-.381.91-.637.253-.238.382-.394.488-.613h-.001Zm-4.546 1.031c0 .457.25.695.578.922.328.227.855.285 1.152.328.301.043.39.145.45.262.292.121.562.297.789.52.25-.337.214-.657-.137-1.051-.356-.395-.988-.34-1.387-.348-.398-.004-.578-.078-.703-.18-.125-.101-.36-.355-.348-.59.012-.234.118-.418.348-.59-.395-.007-.742.372-.742.727Zm-1.684 8.66a2.026 2.026 0 0 0-.617.008.81.81 0 0 0-.367.27c-.04.062-.098.265.035.402a.734.734 0 0 1 .168-.316 1.01 1.01 0 0 1 .555-.137c.055.1.134.184.23.246a.542.542 0 0 0-.004-.473Zm.645.442a.72.72 0 0 0 .293-.106c.082-.09.172-.172.27-.246.116-.078.16-.047.32-.043a.792.792 0 0 0 .37-.05c.115-.047.227-.099.337-.157.046-.031.086-.02.039.024-.094.086-.2.156-.317.207a.904.904 0 0 1-.453.082.424.424 0 0 0-.394.175.29.29 0 0 1-.25.145c-.082.016-.262.055-.329.07a.852.852 0 0 0-.25.192c-.062.066-.074.125-.066.27-.066.081-.203.226-.246.398-.04.144 0 .3.098.414.066-.169.165-.324.293-.453a.164.164 0 0 0 .062-.098.181.181 0 0 0-.039-.14c-.031-.032-.035-.051-.02-.055a.173.173 0 0 1 .11.004c.035.02.074.113.16.253a.955.955 0 0 1 .238-.039c-.015-.23.145-.308.262-.394a.7.7 0 0 0 .227-.262c.062-.094.152-.101.234-.117.117-.031.23-.07.336-.125.105-.056.204-.124.293-.203a.736.736 0 0 1 .23-.133c.075-.02.137 0 .024.047a.863.863 0 0 0-.184.133c-.063.07-.136.132-.215.183-.058.024-.261.098-.379.145a.757.757 0 0 0-.23.117 1.17 1.17 0 0 0-.137.176c-.031.027-.113.078-.164.113a.68.68 0 0 0-.191.215c-.016.066.031.172.086.351a.39.39 0 0 0-.09.282.62.62 0 0 0 .113.316c.07.106.125.137.274.137-.047-.07-.13-.18-.137-.27a.435.435 0 0 1 .125-.293.656.656 0 0 0-.14-.32.316.316 0 0 1 .269.137c.023.047.05.054.086.035a.466.466 0 0 0 .175-.172c.09-.145.036-.215.083-.27.046-.054.203-.046.261-.101.063-.055.11-.191.172-.246.063-.05.219-.067.3-.145.099-.093.2-.234.34-.363.145-.125.36-.16.622-.215.265-.05.437-.094.62-.254a.526.526 0 0 0 .216-.457 1.27 1.27 0 0 0-.149-.484c-.035-.059-.101-.027-.136.008a.5.5 0 0 0-.082.246.84.84 0 0 1-.188.422.575.575 0 0 1-.375.21.473.473 0 0 0 .129-.269.363.363 0 0 0-.035-.27.2.2 0 0 0 .012-.226c-.04-.055-.262-.023-.43-.027-.164-.008-.27-.121-.39-.188a.895.895 0 0 0-.403-.066c-.149 0-.297.008-.441.023-.126.02-.211.043-.29.063-.074.015-.039-.024-.003-.035.078-.032.156-.055.238-.075.113-.023.297-.043.394-.054a.983.983 0 0 0 .34-.13c.309-.19.383-.3.473-.5a.794.794 0 0 0-.395-.128c-.21.012-.422.054-.62.129a.79.79 0 0 0 .066-.434.52.52 0 0 0-.246-.422c-.09.082-.31.274-.407.36a3.823 3.823 0 0 0-.418.445c-.066.101-.234.316-.34.48a1.269 1.269 0 0 0-.19.387c-.024.094-.056.149-.005.227.047.078.149.226.184.297.035.074.054.175.11.222.05.047.32-.047.433-.078.164-.047.333-.074.504-.082.187-.008.289.063.355.07.066.008.238 0 .348 0a.981.981 0 0 0 .258-.043c.078-.015.062.024.027.043a.758.758 0 0 1-.262.047.921.921 0 0 0-.387.133 1.565 1.565 0 0 1-.382.195c-.168.055-.215.02-.301.028-.082.004-.297.11-.434.164-.136.054-.246-.012-.39-.082a.525.525 0 0 0-.453-.02c.113.203.066.395.02.574.187.012.37-.007.554-.054Z"/><path fill="#fefefe" fill-rule="nonzero" d="M11.848 9.75a.439.439 0 0 1-.04-.098c-.015.012-.03.028-.046.043a.071.071 0 0 0-.024.035c0 .016.004.032.012.043a.178.178 0 0 0 .121.059.104.104 0 0 0 .055-.023.163.163 0 0 1-.078-.059Zm.066-.16c.02.02.05.023.066.066.008.046.011.093.008.14.106-.026.09-.124.082-.187a.136.136 0 0 0-.101-.109.07.07 0 0 0-.063.004.092.092 0 0 0-.043.05c.02.012.035.024.051.036Z"/></svg>