<svg xmlns="http://www.w3.org/2000/svg" width="24" height="24" fill-rule="evenodd" stroke-linejoin="round" stroke-miterlimit="2" clip-rule="evenodd" viewBox="0 0 24 24" xml:space="preserve"><path fill="#fefefe" fill-rule="nonzero" d="M22.754 18.441h-9.54l.97-.617c1.23-.777 3.972-2.773 2.949-4.453a1.984 1.984 0 0 0-1.559-.719c-.476 0-.996.153-1.535.453-.926.516-1.48 1.082-1.969 1.582-.73.754-1.363 1.399-2.82 1.579a7.66 7.66 0 0 1-1.004.066 7.891 7.891 0 0 1-1.355-.129l-.04-.004a7.856 7.856 0 0 0-1.831-.113c-.547.062-1.098.098-1.645.098-2.582 0-3.191-.82-3.25-1.508-.02-.215.082-.656.59-.946l.246-.14.156.191.102-.183.105-.196c-1.191-.18-1.304-.836-1.316-.914-.063-.531.199-1.644 1.64-2.074 1.094-.324 1.395-.668 1.688-1 .105-.125.219-.242.34-.351.058-.051.116-.103.172-.157.507-.472 1.273-1.183 3.05-1.418l.66-.082c1.657-.207 3.223-.406 4.43-.968a10.15 10.15 0 0 1 4.133-.88c1.535 0 2.95.368 4.207 1.09.067.04 1.574.957 2.645 2.852.984 1.75 1.761 4.684-.13 8.75l-.089.191ZM1.676 13.445l.078.086.172.184.125-.164.031-.043c-.137-.024-.27-.043-.406-.063Z"/><path fill="#002d71" fill-rule="nonzero" d="M20.16 6.938c-3.191-1.844-6.703-.817-8.031-.196-1.418.66-3.297.832-5.188 1.078-1.89.246-2.55 1.059-3.046 1.492-.493.438-.602.958-2.153 1.422C.192 11.195.34 12.45.34 12.45s.062.52 1.176.645c1.109.12 2.52.469 2.984.687-.371.028-1.102.117-1.102.117l-.418-.257-.347.464-.317-.351-.363.48-.445-.476-.336.617-.293-.355c-.457.257-.422.628-.422.628.145 1.692 4.531 1.106 4.531 1.106 1.899-.102 2.262.422 4.219.18 2.309-.282 2.363-1.836 4.668-3.118 2.305-1.285 3.504.317 3.54.371 1.144 1.868-1.466 3.91-3.052 4.922h8.18C26.09 10.49 20.16 6.937 20.16 6.937v.001Z"/><path fill="#81c240" fill-rule="nonzero" d="M2.902 10.898c.618-.668.668-.78.914-1.058.09-.106.184-.203.282-.293.058-.055.12-.11.187-.172.192-.188.399-.36.617-.516 0 0-.25.59-.203.97 0 0 1.45-1.083 2.778-1.18 1.324-.098 2.441-.075 4.625-.926 2.183-.852 9.492-2.899 10.976 5.082 0 0-1.61-5.746-6.844-5.559-3.039.106-4.18 1.117-6.062 1.543-1.879.426-2.707.402-3.137.563 0 0 .203-.012.817.746 0 0-1.243-.371-2.2.277-.957.648-.82.969-1.968 1.059 0 0 .097-.47.183-.856l-.965.32Z"/><path fill="#fefefe" fill-rule="nonzero" d="M6.203 11.14a.688.688 0 0 1-.684.729.686.686 0 0 1-.586-.331 1.6 1.6 0 0 1-.25.146.975.975 0 0 0 .837.472.986.986 0 0 0 .976-.976.991.991 0 0 0-.21-.61 2.23 2.23 0 0 0-.278.125c.117.12.187.279.195.446v-.001Z"/><path fill="#fbb81b" d="m18.29 17.094-.539.336h-1.153a6.16 6.16 0 0 0 .445-.385.474.474 0 0 0 .871-.291h.001a.479.479 0 0 0-.261-.406c.195-.275.357-.573.467-.895l.008-.022a.498.498 0 0 0 .391-.15.478.478 0 0 0-.258-.793c-.025-.476-.185-.953-.471-1.424a.397.397 0 0 0 .264-.373v-.007c0-.012 0-.02-.005-.028a.392.392 0 0 0-.766-.093 2.908 2.908 0 0 0-.557-.319.488.488 0 1 0-.045-.019 2.854 2.854 0 0 0-.994-.213.491.491 0 0 0 .253-.426l.001-.027a.49.49 0 0 0-.488-.458.49.49 0 0 0-.489.485c.001.198.123.37.294.446a3.983 3.983 0 0 0-1.44.463.383.383 0 0 0-.757.06v.012a.39.39 0 0 0 .152.291c-.11.072-.214.145-.313.218a.387.387 0 0 0-.366-.275.382.382 0 0 0-.378.383v.011a.38.38 0 0 0 .202.321 8.863 8.863 0 0 0-.242.222.38.38 0 0 0-.711.188v.008a.383.383 0 0 0 .197.318c-.698.714-1.207 1.229-2.431 1.377-.192.023-.387.043-.578.055a7.086 7.086 0 0 1-1.606-.114 8.453 8.453 0 0 0-2.015-.125h-.024a9.967 9.967 0 0 1-.894.078c-1.985.106-3.211-.222-3.289-.882a.366.366 0 0 1 .062-.2l.386.375.36-.535.402.43.36-.477.301.336.383-.437.14.114.223.25s2.515 0 4.578-.52c-1.086-.633-5.738-1.122-5.738-1.122-.266-.027-.496-.05-.676-.07-.746-.082-.887-.347-.902-.39-.013-.153-.016-1.008 1.187-1.368 0 0 .715-.226.945.547.235.778.907.387 1.528.082 0 0 .227.887 1.347.824C6.777 12.422 7 11.227 6.8 10.777c0 0 1.805.5 4.22-1.136 0 0-1.844.546-2.813.015 0 0 2.609-.261 4.117-1.051 1.508-.785 7.516-2.531 9.774 3.383a7.693 7.693 0 0 1-.5 5.442h-.453a.92.92 0 0 0 .175-.59.915.915 0 0 0-.902-.847h-.003a.908.908 0 0 0-.904.904c0 .199.066.383.176.533h-.795l-.602-.336Zm1.175-1.079.001.038a.658.658 0 0 1-.653.654.66.66 0 0 1-.653-.652v-.004c0-.358.295-.653.653-.653.345 0 .633.273.652.617Zm2.191-1.347a.895.895 0 0 1-.246.672.907.907 0 0 1-.656.289.91.91 0 0 1-.902-.867c-.004-.012-.004-.028-.004-.04a.916.916 0 0 1 .906-.906.915.915 0 0 1 .902.852Zm-10.449-.262v.014a.39.39 0 0 1-.379.389.388.388 0 0 1-.383-.36v-.023a.386.386 0 0 1 .383-.38c.2 0 .367.161.379.36Zm8.512-.343a.63.63 0 0 1-.164.457.609.609 0 0 1-1.059-.391v-.024a.612.612 0 0 1 1.223-.043v.001Zm-9.774.156v.02a.346.346 0 0 1-.343.343.35.35 0 0 1-.344-.324v-.02a.353.353 0 0 1 .344-.343c.183 0 .335.144.343.324Zm.755-.817a.382.382 0 0 1-.38.406.383.383 0 0 1-.379-.367v-.011c0-.211.172-.383.38-.383.199 0 .363.156.378.355h.001Zm.945-.277a.371.371 0 0 1-.102.285.37.37 0 0 1-.277.121.384.384 0 0 1-.38-.367v-.012a.38.38 0 0 1 .759-.027Zm9.835-.715a.92.92 0 0 1-.246.668.916.916 0 0 1-.656.285.916.916 0 0 1-.906-.906v-.023c0-.497.408-.905.905-.905.487 0 .891.394.904.881h-.001Zm-1.96.211a.609.609 0 1 1-.609-.581.62.62 0 0 1 .609.581Zm-9.668.008.001.022a.382.382 0 0 1-.38.379.38.38 0 0 1-.379-.358v-.02c0-.21.168-.379.379-.382.203.003.367.16.379.359Zm1.043-.172v.02c0 .21-.172.382-.38.382a.391.391 0 0 1-.382-.382c0-.207.172-.38.383-.38.199 0 .367.16.379.36Zm1.405-.148a.394.394 0 0 1-.1.285.396.396 0 0 1-.278.125.387.387 0 0 1-.383-.367v-.016c0-.207.172-.379.383-.379.195 0 .363.156.379.352H12.3Zm-10.347-.422s-.215-.254-.617-.024c-.399.227-.125.813.297.414.148-.175.039-.297.32-.39Zm11.407-.121.001.028c0 .24-.195.44-.435.445a.437.437 0 0 1-.434-.426V11.8c0-.239.195-.434.434-.434a.442.442 0 0 1 .433.399l.001.001Zm1.3-.066a.486.486 0 1 1-.975.023.49.49 0 0 1 .488-.488.49.49 0 0 1 .487.465Zm-4.445.085a.393.393 0 0 1-.102.29.386.386 0 0 1-.277.12.383.383 0 0 1-.379-.367v-.015c0-.208.172-.38.379-.38.2 0 .363.157.379.352Zm1.027-.281a.388.388 0 0 1-.379.41.387.387 0 0 1-.379-.367v-.016a.382.382 0 0 1 .38-.369c.194 0 .359.149.378.342Zm7.558-.34a.605.605 0 0 1-.608.639.612.612 0 0 1-.61-.61c0-.335.275-.61.61-.61.323 0 .594.258.609.581H18.8Zm-6.534-.012.001.027c0 .24-.195.439-.435.443a.44.44 0 0 1-.434-.423v-.015a.437.437 0 0 1 .435-.426c.223 0 .412.172.433.394Zm8.437-.785a.912.912 0 0 1-.902.96.913.913 0 0 1-.906-.901.916.916 0 0 1 .906-.906c.473.003.87.375.902.847Zm-6.672.301a.487.487 0 0 1-.484.524.492.492 0 0 1-.489-.473v-.012c0-.27.22-.488.489-.488.254 0 .465.195.484.449Zm-3.781.246v.024a.262.262 0 0 1-.523.003v-.004c0-.144.118-.262.262-.262.135 0 .249.104.261.239Zm7.156-.48a.643.643 0 0 1-.164.46.61.61 0 0 1-1.058-.394v-.02a.62.62 0 0 1 .613-.613c.316.004.582.25.61.567h-.001Zm-1.64-.157a.598.598 0 0 1-.164.457.607.607 0 0 1-1.055-.39v-.033c0-.335.275-.61.61-.61.322 0 .591.255.609.576Zm-4.426.164.001.028a.439.439 0 0 1-.435.437.437.437 0 0 1-.433-.418v-.015c0-.239.195-.434.433-.434.227 0 .414.176.434.402Zm1.398-.644a.611.611 0 0 1-.172.453.636.636 0 0 1-.445.195.624.624 0 0 1-.613-.586v-.02a.617.617 0 0 1 .614-.607c.318 0 .587.248.612.565h.004Zm6.219-.586-.21.562a.745.745 0 0 1-.548.239h-.002a.764.764 0 0 1-.76-.76c0-.416.342-.759.758-.76.407 0 .739.317.762.719Zm-4.336-.078a.67.67 0 1 1-1.336.07v-.02c0-.367.3-.671.668-.671.352.004.64.273.668.62v.001Zm2.152-.387c.002.019.002.038.002.057 0 .365-.3.666-.666.666a.676.676 0 0 1-.671-.653v-.015c0-.367.304-.668.671-.668.348 0 .637.265.664.613Z"/></svg>