<svg xmlns="http://www.w3.org/2000/svg" width="24" height="24" fill-rule="evenodd" stroke-linejoin="round" stroke-miterlimit="2" clip-rule="evenodd" viewBox="0 0 24 24" xml:space="preserve"><path fill="#fefefe" d="M7.031 1.027c.895.203 1.79.563 2.918 1.032 1.04.433 2.52.425 4 .261.73-.078 1.446-.195 2.082-.308l.461-.082c.387-.07.774-.133 1.16-.192 1.7-.23 2.883.04 3.828.844.766.648 1.067 1.781.926 2.813-.14 1.046-.75 2.085-1.918 2.5-.543.19-1.172.234-1.808.195-.645-.035-1.32-.156-1.973-.305a32.767 32.767 0 0 1-1.844-.496l-.047-.012c1.711.785 3.621 2.106 5.524 4.934l3.367-.145-.555.66c-1.597 1.907-2.707 3.547-3.297 5.47l-.125.406-.894-.391-.16.46c-.375 1.063-.68 1.923-.89 3.157l2.16 1.332h-2.688l-1.274-.773c-2.754-1.535-6.59-2.887-10.109-1.305l-2.582 1.16L5.75 20.22l.184-.2c.195-.226.37-.472.52-.738.323-.601.515-1.207.452-1.754-.125-.89-.218-1.82-.21-2.765-.989.343-1.872.394-2.633.218A3.466 3.466 0 0 1 1.98 13.56c-.94-1.352-1.015-3.336-.12-4.813l.402-.668c-.594-.45-1.04-.89-1.352-1.351C.414 6 .258 5.262.297 4.469.387 2.812 1.723 1.219 4.09.922c1.144-.14 2.039-.102 2.94.105h.001ZM2.504 8.254l.058.656v.008c.055.355.168.703.329 1.027.25.48.632.89 1.242.95.34.03.55-.032.66-.106.094-.066.144-.156.137-.297-.012-.16-.098-.402-.352-.703-.246-.297-.633-.629-1.191-.96-.301-.18-.598-.372-.883-.575Zm10.82-1.613.004.004-.004-.004ZM7.223 6.34c.136.082.375.156.73.129 1.348-.11 2.195.14 2.777.668.196-.133.399-.262.606-.387a1.05 1.05 0 0 1-.137-.414c-1.172.094-1.726-.016-2.55-.18l-.5-.093c-.473-.09-.77-.047-.93.015a.29.29 0 0 0-.125.082c-.012.012-.012.02-.012.024 0 0 0 .074.14.156h.001Z"/><path fill="#d1262f" fill-rule="nonzero" d="M4.094 11.293c1.578.156 1.828-1.371-.512-2.77C1.238 7.125.605 5.961.68 4.512c.074-1.45 1.25-2.914 3.46-3.192 2.208-.273 3.395.168 5.665 1.114 2.265.945 6.265-.079 7.898-.297 1.633-.219 2.695.047 3.531.758 1.282 1.085 1.133 3.953-.875 4.667-1.894.672-5.359-.667-6.785-1.011-.832-.2-.734.394-.234.566l-.621.211c-1.078-.437-1.297-.95-1.059-1.406l-.328.047c-1.457.133-1.922-.035-3.113-.258C6.156 5.328 6.313 7 7.984 6.867c1.676-.129 2.403.313 2.875 1.035-2.77 2.414-3.066 5.973-3.066 5.973-5.121 2.828-7.324-2.074-5.61-4.91.016.183.337 2.176 1.91 2.332l.001-.004Z"/><path fill="#fefefe" fill-rule="nonzero" d="M5.367 1.754c-1.148-.102-4.054.383-4.054 3.078 0 2.715 4.597 3.207 4.597 5.75 0 1.172-1.18 1.285-1.18 1.285.891.047 1.567-.484 1.567-1.402 0-2.602-4.547-3.356-4.57-5.633-.02-1.973 2.16-3.14 3.64-3.078Zm16.016 3.789c-.02.959-.789 1.394-1.708 1.545-.92.151-1.991.018-2.616-.162 1.441.058 4.105-.055 4.324-1.383Z"/><path fill-rule="nonzero" d="M20.145 12.621c-2.875-4.371-5.75-5.14-7.934-5.906C6.824 9.55 6.766 13.816 7.28 17.5c.078.66-.156 1.355-.496 1.988-.161.289-.352.56-.57.809l-.2.219-.296.242c3.699-1.664 7.68-.227 10.457 1.324l1.187.719h1.242l-1.234-.758c.27-1.742.707-2.758 1.238-4.32l.883.382c.613-1.992 1.762-3.68 3.371-5.597l-2.717.113Zm.246 1.316-.254.438-.344.645c-.035.066-.07.136-.105.207l-.211.437c-.2.414-.407.871-.625 1.39-.993-.343-4.375-1.09-6.41-1.343a23.204 23.204 0 0 0-.5-1.852 1.253 1.253 0 0 1-.829.141c.242.754.442 1.52.594 2.297l.008-.004v.012c2.566.383 3.906 1.343 5.058 2.187l-1.46 2.383a34.282 34.282 0 0 0-2.84-1.281c-2.13-1.805-4.84-5.418-.828-11.18l.136-.187c-3.12 2.824-3.86 6.16-2.422 10.277-.34-.106-.62-.188-.832-.254-1.77-5.926.559-9.262 3.84-11.035 5.305 2.066 6.809 5.547 6.809 5.547l-.66-.016-.461-.656-4.664-.617.757 1.214c-.23 0-.832-.035-1.55-.097.023.207 0 .414-.078.61 2.316.136 6.906.292 8.246.19l-.059.055c-.105.16-.21.325-.312.492h-.004Zm-1.251.004c-.398.786-.788 1.575-1.183 2.364.215.054.41.11.586.156.293-.594.816-1.64 1.258-2.523-.219.003-.442.003-.66 0l-.001.003Zm-1.113-.015c-.359.712-.716 1.425-1.07 2.14.207.047.402.094.594.141.375-.758.754-1.516 1.133-2.27l-.657-.011Zm-1.105-.028c-.326.648-.65 1.297-.973 1.946l.598.129c.297-.598.687-1.38 1.027-2.055-.215-.008-.433-.012-.652-.02Zm-5.594-.308h-.027a.858.858 0 0 1-.825-.854c0-.457.368-.837.825-.853h.027a.864.864 0 0 1 .852.855.86.86 0 0 1-.852.852Z"/></svg>