<svg xmlns="http://www.w3.org/2000/svg" width="24" height="24" fill-rule="evenodd" stroke-linejoin="round" stroke-miterlimit="2" clip-rule="evenodd" viewBox="0 0 24 24" xml:space="preserve"><path fill="#fefefe" fill-rule="nonzero" d="M22.977 14.027c-.309-.175-.747-.8-.856-1.058-.105-.242-.348-.805-1.012-.856a.468.468 0 0 1-.148-.117c-.133-.148-.273-.219-.434-.3a4.235 4.235 0 0 1-.59-.352c-.535-.38-.886-.801-1.433-1.547l-.176-.242.137-.14c.113-.122.215-.263.176-.438a.406.406 0 0 0-.246-.278c-.149-.066-.34-.097-.582-.097h-.372l-.25-.102c-.171-.07-.343-.14-.52-.21a16.273 16.273 0 0 1-.706-.302 2.875 2.875 0 0 0-1.211-.261c-.285 0-.566-.059-.828-.176-.184-.082-.36-.184-.551-.254a2.451 2.451 0 0 0-1.363-.059h-.004c-.137.032-.27.07-.399.117-.96.34-1.496.582-1.921.875-.165.11-.32.239-.461.38-.23.23-.47.453-.704.683-.496.488-1.246 1.227-1.488 1.305-.441.144-.598.183-.805.183-.062 0-.125-.004-.19-.008l-.317-.12a1.658 1.658 0 0 1-.567-.337c-.12-.105-.234-.257-.156-.421.172-.356.531-.407 1.102-.461.328-.032.648-.067.949-.204.281-.125.535-.316.73-.55.14-.192.239-.407.29-.637a2.607 2.607 0 0 0 0-.738 1.733 1.733 0 0 0-.43-.793c-.598-.64-1.68-.809-2.164-.809-.247 0-.516.078-.653.293a.51.51 0 0 0-.078.344.505.505 0 0 0 .086.207c.195.273.668.312.879.312.703.07 1.156.266 1.309.575.097.191.09.453-.051.62-.297.356-.875.387-1.305.38h-.008c-.058 0-1.445.035-1.75 1.148-.094.324-.066.672.082.977.098.207.23.39.399.546.082.075.164.145.25.207a3.11 3.11 0 0 0-.324.383c-.043.078-.27.48-.196.942.04.254-.07.597-.316 1.004a.76.76 0 0 0-.367-.098c-.16 0-.399.055-.641.312-.061.073-.117.15-.168.23-.113.18-.309.481-.5.567l-.102.051a.384.384 0 0 1-.093.04.873.873 0 0 1-.203-.024 1.29 1.29 0 0 0-.176-.012.646.646 0 0 0-.492.207.55.55 0 0 1-.227-.039l-.539-.344.055.637c.02.187.136.535.468.68a.646.646 0 0 0 .274.222l.02.055c.062.18.265.48.644.48a.801.801 0 0 0 .238-.039c.16-.023.703-.12.977-.457a.537.537 0 0 1 .265-.168c.124.054.259.08.395.075.11.004.215.03.316.074.063.027.13.05.2.062.087.017.176.028.265.032a.885.885 0 0 0 .602-.239c.113-.105.23-.215.343-.328a.848.848 0 0 0 .2.024c.129-.004.254-.024.375-.059a.754.754 0 0 0 .093.016.629.629 0 0 0 .516.035c.106-.04.207-.074.281-.164a.5.5 0 0 0 .098-.278.71.71 0 0 1 .094-.304.542.542 0 0 1 .445-.254c.238 0 .637.273.957.496.379.262.711.488 1.016.488.09 0 .183-.023.265-.066.317-.149.457-.555.52-.903.07.075.144.141.21.207.126.114.243.235.352.364.286.347.477.594.618.777.347.45.44.57.847.57.11-.003.219 0 .328.012.098.016.2.016.297 0 .195-.02 1.113-.05 1.445-.058.192-.004.458-.016.645.062.148.117.285.25.43.375.054.05.285.258.336.313a.569.569 0 0 0 .37.347c.122.168.356.426.677.5l.418.098-.036-.48c.364.34.496.34.578.34l.348-.012-.035-.333v-.035c.234.227.297.282.437.282l.301-.004.016-.297a1.484 1.484 0 0 0-.008-.258c.035.043.074.098.117.164l.469.715.11-.879c-.02.156.062-.543-.13-.945a.657.657 0 0 0-.015-.153c-.031-.367-.32-.554-.527-.625-.098-.066-.313-.172-.872-.36-.972-.323-1.32-.542-1.441-.644a1.299 1.299 0 0 0-.895-.332c-.14 0-.28.016-.421.04a.696.696 0 0 1-.516-.118 4.925 4.925 0 0 1-.164-.12c.275-.072.539-.18.785-.321.191.113.508.258.867.258.223 0 .442-.055.633-.168.23-.13.414-.325.531-.559.059-.14.106-.285.145-.43.148.153.297.32.476.442.141.09.301.14.465.16.254.023.504.066.754.121.07.016.137.04.203.07l-.058.047a.438.438 0 0 0-.223.188.905.905 0 0 0-.086.379c-.008.105 0 .214.024.32a.845.845 0 0 0 .261.422c.18.156.418.219.637.297l.258.09-.121-.551-.012-.094c.07-.008.145-.016.215-.016.148 0 .504.024.75.207.074.094.222.207.515.282.176.047.227.086.239.101a6.448 6.448 0 0 1-.032.461l-.07.645s.508-.313.785-.582c.058-.052.112-.11.16-.172-.046.187-.3.84-.3.84s.613-.38.742-.434c.277-.156.71-.574.64-1.176.133-.48-.496-.84-.71-.96v-.001ZM4.242 9.687c.246-.894 1.45-.914 1.45-.914s1.546.055 1.714-.851c.094-.488-.11-1.203-1.648-1.348 0 0-.762-.008-.66-.332.027-.086.105-.156.238-.183h.008c.226-.055 1.488.043 2.097.695.524.562.48 1.305.07 1.824l.005-.008c-.176.223-.442.403-.817.489-.715.164-1.597-.008-1.949.722-.348.727.89 1.188.89 1.188-.214.02-.421.097-.593.234 0 0-1.067-.562-.805-1.515v-.001Zm5.48 5.47a.371.371 0 0 1-.202.148c-.438.117-1.45-1.051-2.102-.97-.766.095-.785.868-.785.868-.008.074-.051.117-.094.113-.023 0-.164.114-.355.008 0 0 .18-.066.164-.113 0 0-.016-.02-.016-.024-.066.07-.223.157-.355.079-.012-.008-.274.101-.485.066l1.336-1.137h1.086l1.727-.043.332-.007s-.016.699-.25 1.011l-.001.001Zm7.454-2.282c-.04.113-.07.242-.117.355a.632.632 0 0 1-.086.157l-.008.008c-.096.128-.22.232-.363.304-.63.32-1.293-.215-1.293-.215-.61.422-1.352.493-1.442.496.184.223.403.415.64.575.216.152.485.21.747.168.437-.075.73-.051 1.055.222.347.293 1.203.59 1.543.703.335.11.734.258.82.344 0 0 .351.07.363.387.016.058.02.117.008.176.203.328.133.867.133.867-.293-.453-.473-.477-.473-.477-.11.067-.21-.015-.27-.12l-.035.027c.012.031.016.064.012.097-.008.02-.008.07-.05.086-.028.008.152.227.132.637 0 .047-.52-.504-.566-.5l-.11.008c-.07.004-.125-.063-.125-.055-.011.027.051.648.051.648-.144.004-.66-.554-.66-.554-.055.058-.273.047-.273.047l.046.554c-.34-.078-.566-.484-.566-.484-.113.027-.25-.094-.258-.164-.008-.07-.183-.215-.183-.215s-.528-.484-.692-.617c-.164-.13-.832-.121-.832-.121s-1.222.035-1.472.062c-.25.024-.145-.015-.512-.015-.453 0-.246.043-1.297-1.23-.32-.388-.594-.524-.941-1.032H6.793c-.547.336-1.711 1.496-1.961 1.723-.25.222-.492.144-.605.128-.114-.015-.293-.136-.563-.136-.27 0-.32-.098-.32-.098a.892.892 0 0 0-.582.305c-.235.285-.805.347-.805.347-.379.145-.512-.234-.512-.234.121 0 .313-.168.313-.168-.719-.008-.656-.266-.656-.266-.364-.05-.399-.449-.399-.449.188.121.543.086.543.086.2-.277.356-.199.59-.183.234.015.086.07.46-.102.372-.176.642-.738.763-.867.12-.133.312-.27.543-.192.132.04.234.149.261.286.547-.754.649-1.246.598-1.575-.05-.332.101-.64.156-.726.051-.09.39-.477.578-.582.265-.145.566-.211.867-.192.38.028.555-.007 1.098-.191.426-.14 1.52-1.313 2.25-1.996l-.015.012.078-.079c.464-.464 1.086-.761 2.261-1.18 1.094-.382 1.657-.027 2.055.18.29.137.602.211.922.211.703-.015 1.152.246 1.305.309.148.066.898.383.898.383.168.043.328.117.469.21.101-.011.617-.081.89.04.13.058.04.133.016.164l-.348.367c.043.086.055.215.118.484.117.528.207.739-.024 1.399-.21.601-.527.504-.86 1.453h.001Zm5.719 3.023c.27-.71-.395-.738-.395-.738-.008.434-.457.73-.457.73s.031-.257.035-.468c0-.215-.164-.328-.473-.406-.312-.082-.363-.196-.363-.196-.476-.402-1.293-.312-1.426-.238-.136.074-.062.426-.062.426-.582-.2-.426-.692-.414-.801.015-.113.086-.113.12-.129.056-.039.106-.082.157-.129.496-.554-.808-.652-1.156-.703-.352-.05-.402-.172-.465-.215-.058-.043-.484-.488-.484-.488.072-.162.172-.309.297-.434.242-.234.468-.738.503-.964.106-.72-.05-1.141-.05-1.141.574.789.941 1.219 1.504 1.617.562.399.777.399.968.606.192.207.336.214.336.214.453.028.633.364.766.668.129.305.605.989.988 1.204.38.218.63.44.551.632l-.008.016v.004c.113.605-.472.933-.472.933Z"/><path fill-rule="nonzero" d="M9.695 9.914c.075-.402.172-.793.297-1.18.125-.386-1.543 1.63-2.426 2.34-.902.723-1.699.672-1.699.672s.363-.219.477-.406c0 0-.63-.176-1.094.219-.469.39-.648.921-.29.773.36-.148.45-.195.677-.227 0 0-.664.192-.907 1.094-.242.899-.855 1.59-1.23 1.547 0 0-.043.816.617.887.66.07 1-.488 1.196-.664.195-.172.925-1.258 1.144-1.285 0 0-.61-.29-.844-.797 0 0 .477.644 1.574.668.934.02 1.868.09 2.793.215 0 0-.695-1.125-.199-3.282 0 0-.426 2.832.946 3.985.34.316.652.66.933 1.03.477.626.567.509.7.536a7.143 7.143 0 0 1-.708-1.934c.114.524.434 1.61 1.125 1.825.578.175 2.2-.07 2.47.187.265.262.796.781.796.781s.008.399.207.415c0 0-.063-.586.39-.223 0 0 .118.183.176.148 0 0 .278-.402-.253-.687a.16.16 0 0 1-.114-.086c-.012-.02-.207-.211-.117-.215.328-.012.637.664.695.578.215-.305.25-.328.016-.637-.02-.03-.563-.562-.953-.683-.297-.09-.844-.348-1.164-.367-.91-.063-1.524.14-1.895-.172-.3-.25-.87-1.82-.91-2.88-.012-.152 0-.3.04-.448.081-.27.335-.575 1.038-1.164.043-.036.082-.07.121-.106.121-.121.227-.25.32-.39.368-.637-.203-1.02-.203-1.02l.028.012c.379.183.863.73.488 1.148-.441.5-1.09 2.102-.379 3.426.285.281.79.34 1.672-.176a2.307 2.307 0 0 0-.187-.422c-.028-.043-.829.192-1.477-.469 0 0 .676.532 1.234.29.114-.047.157-.258-.156-.543-.851-.782-.738-1.625-.36-2.422l.032-.067s-.117-.18-.312-.5c-.133-.21-.207-.492.878-.265l.004-.004c.34-.196.778-.102 1.02-.016.285.024.39-.043.465-.05-.645-.454-1.196-.516-1.453-.516l-.16.011c.09.122.218.29.261.348l.016.016h-.004l.004.004a6.1 6.1 0 0 0-1.36-.688c-1.574-.539-2.468.094-2.468.094 1.16-.059 1.64.445 1.64.445a3.197 3.197 0 0 0-.5-.195c-.699-.192-1.965-.25-2.668 1.492Zm7.352 7.266c.32-.567.582-.059.582-.059.016-.078-.121-.332-.32-.285-.254.055-.29.39-.262.344Zm1-.356c.148-.023.265.121.265.121s-.03-.215-.285-.21c-.254.007-.105.374-.105.374s-.027-.261.125-.285Zm-.012-.574c-.164 0-.402-.121-.402-.121l-.832-.383.86.563s.503-.102.726.507a.595.595 0 0 1 .011.04l.036-.032a.483.483 0 0 1-.067-.187c-.02-.153-.172-.387-.332-.387Zm.942.238s-.094-.222-.282-.086c-.156.118-.058.403-.023.41 0 0-.035-.574.305-.324Zm-2.211-.938c.168.09 1.257.669 1.562.548 0 0-1.648-.782-1.922-.883l-.031-.012c-.262-.086-.012.113.39.344l.001.003ZM3.117 14.531c-.207.473-.992.89-.992.89.617-.175.89-.444.89-.444l.016.222c-.336.313-.992.477-.992.477.281.183.887-.082 1.004-.153.117-.07.16.012.16.012-.2-.45.008-1.074.008-1.074.004-.16-.094.07-.094.07Zm18.613-.632-.218-.618.008.02c.062.125.418.824.808 1.047.23.129.32.238.274.464v-.007c0 .027-.004.05-.016.074a1.218 1.218 0 0 1-.074.21c-.032.067.254-.007.386.173.391-.422.247-.578-.21-.836-.461-.262-1.02-1.324-1.106-1.496-.09-.176-.168-.23-.418-.297a3.411 3.411 0 0 1-.43-.137 9.501 9.501 0 0 1-.406-.16c-.695-.29-1.047-.492-1.223-.621a.847.847 0 0 1-.156-.137c-.008-.008-.012-.015-.02-.027l.024.02c.067.046.14.085.215.117.367.164.906.265.906.265-.351-.117-.984-.566-1.3-1v-.004a.949.949 0 0 0-.063.578c.078.356-.258.711-.258.711l-.2.14s-.37.15-.355.259c.012.11.512.57 1.051.46 0 0 .36-.058.535-.007.172.05.137-.055.164-.125.024-.074.165-.344.368-.438 0 0-.586.79 0 .7 0 0 .445-.09.425.003-.093.438.489.778.614.91 0 0-.543-.273-.66-.554-.122-.281-.438-.34-.48-.125a.695.695 0 0 0 .007.348c.032.114-.106.289-.25.316-.063.012-.035.035-.035.035s.222.145.218.227c0 0 .352.011.352-.297 0 0 .05.289.316.293.27.008.38.004.485.105.113.098.324-.027.324-.027s-.152.328.934.664c0 0 .293-.414-.11-.676-.168-.054-.304-.273-.426-.55Zm-13.054.578s.46.761.832.656a.238.238 0 0 0 .055-.028c.136-.257.117-.878.078-.953l-1.727.043c.082.016.668.461.797.578l-.035-.296Zm-2.301.512.004-.015-.004.014v.001-.001l.004-.014c.021-.074.135-.424.441-.587 0 0-.332.074-.605.562 0 0 .219-.176.16.04Zm.125-.048s.09-.066.117-.011c0 0-.035-.317.367-.563 0 0-.336.102-.484.574Zm6.781-.777s.339.569-.093.563c-.001 0 0 0 0 0l.001.001.007.006c.005.004.012.01.022.016l-.029-.022c.172.073.355.116.541.131.286.016.735-.062.329-.363a2.678 2.678 0 0 1-.43-.387l-.008-.011h-.004a2.168 2.168 0 0 1-.41-.676l-.012-.027v-.004c-.207-.536-.285-1.29.008-2.34v-.008s-.7 1.727.078 3.121Zm2.496-.57c.236-.049.417-.041.539-.021.121.02.184.052.184.052-.316-.23-.723-.031-.723-.031Zm.433-4.469.013.016c.074.082.129.18.164.289v.004l-.032-.028c-.453-.34-.804-.36-1.054-.316-.176.047-.344.16-.496.379 0 0 .242-.067.601.383 0 0-1.11-.938-.761.609l-.196-.129s-.738.95.512 1.79c.281.187-.098-.923-.098-.923s.5.742.43 1.668c0 0-.035.692.465.531.291-.003.581.012.87.043a.2.2 0 0 0 .25-.054c.024-.043.048-.09.067-.137l.16-.75c.102-.5.25-1.07.465-1.238 0 0-.402 1.23-.066.699.34-.527.816-1.39.305-1.465 0 0 .433-1.55-.809-.652 0 0 .031-.125.387-.387 0 0-.121-.23-.664-.34a2.04 2.04 0 0 0-.512.008h-.001Zm.661 2.879c-.058.351-.164.46-.164.46.02-.14.016-.28-.012-.421-.234.3-.285.707-.136 1.059.035-.036.062-.106.054-.254a.42.42 0 0 1 .094.476c-.07.16-.066.078-.148-.02-.063-.074-.664-.12-.805-.03-.137.085-.145.035-.168.011 0 0-.11-.277.098-.469a.655.655 0 0 0 .023.211c.246-.515.11-.836-.016-.996-.03.133-.046.27-.05.406-.145-.199-.133-.48-.133-.48.015-.094.254-.086.254-.086.093 0 .23.004.379.004.039 0 .07-.11.07-.11s.012.11.062.114c.133.012.266.016.403.012.258 0 .195.113.195.113Zm-.695.5c.054 0 .074-.496.12-.543-.073-.004-.151-.004-.23-.004.047.059.063.547.11.547Zm.785-.703c.088-.48.042-.695-.026-.79-.068-.095-.158-.07-.158-.07.473-.222.184.86.184.86Zm-1.094-.856c-.024-.007-.143-.055-.245.023-.103.079-.19.284-.149.782 0 0-.207-1.098.394-.805Zm.09.157c-.031-.008-.066-.008-.098-.008-.062-.082.04-.098.145-.074h.02c.023.007.05.015.074.027.082.035.183.058.457-.008.27-.066.168.066.168.066a.657.657 0 0 1-.153.016c-.242.012-.297.152-.308.23.008-.078.023-.21-.305-.253v.004Zm1.211-.219a.448.448 0 0 0-.422-.012c.188-.242.422.012.422.012Zm-1.793-.043s.058-.063.14-.097c.082-.033.188-.036.282.085a.427.427 0 0 0-.422.012Zm.887-.075v.001h-.001l.001-.001c-.009-.01-.129-.147-.442-.117l-.039.016s.145-.098.446.027c.039.008.08.004.117-.011.047-.02.164-.067.437.011 0 0-.366-.086-.519.074Zm-11.485-.199a.828.828 0 0 1-.226-.515c0-.098.015-.196.05-.285.215-.586.891-.664.891-.664-.023-.016-.824.046-1.012.699-.187.652.48.926.473.918a.894.894 0 0 1-.172-.153h-.004Zm10.95-.343v-.001.001c.016.017.308.318.418.277.175-.063.128-.281.128-.281.02.008.04.18.04.18-.004.066.046.132.101.117.016-.004.238-.293.363-.414.012-.008-.32.386-.238.425.11.051.266-.02.164.032-.164.086-.238.054-.308.03a.583.583 0 0 0-.204-.01c-.273.042-.406-.06-.406-.06.047.024.184.024.192-.007.003-.02-.122-.114-.25-.289Zm1.254.168c.035-.02.07-.04.109-.051a.348.348 0 0 0 .015.25.337.337 0 0 0 .024-.262c.074-.012.16-.004.203.09 0 0 .066.195-.242.184-.152-.008-.195-.067-.254-.079-.02-.003-.035.004-.05.012a.977.977 0 0 1 .194-.144h.001Zm-1.754.117a.15.15 0 0 1-.051-.094.147.147 0 0 1 .031-.105.207.207 0 0 1 .195-.032.335.335 0 0 0 .008.282.349.349 0 0 0 .02-.274c.054.02.101.047.148.082.16.125.152.164.152.164-.023-.043-.101-.031-.101-.031-.227.102-.336.066-.402.008Zm.823-.297c-.054.023-.347-.39-.347-.39s.426.35.348.39h-.001Zm.348 0c-.041-.012.015-.125.081-.235.066-.111.142-.218.142-.218s-.156.476-.223.453Zm-1.66-1.071c-.226-.124-.582-.05-.582-.05.035.156.278.426.278.426a1.55 1.55 0 0 1 .304-.375V9.14Zm3.34-.011c-.012-.074-.398-.04-.578-.024.027.02.055.043.078.067.117.113.195.176.254.23.023-.02.047-.039.07-.062.063-.059.118-.125.172-.192.004-.003.004-.007.004-.007v-.012ZM5.75 6.203c-.09-.012-.2-.012-.238.031 0 0-.211.121.308.192.723.094 2.106.422 1.63 1.781 0 0 .48-.898-.427-1.531a2.557 2.557 0 0 0-.652-.317 4.74 4.74 0 0 0-.621-.156Z"/><path fill="#fef21f" fill-rule="nonzero" d="M17.09 10.602c.308.011.242-.184.242-.184-.047-.094-.129-.102-.203-.09.027.09.02.184-.024.262a.348.348 0 0 1-.015-.25c-.04.012-.074.031-.11.05-.07.044-.132.09-.195.145.016-.008.031-.015.05-.012.06.012.102.07.255.079Zm-1.461-.102s.078-.012.098.031c0 0 .011-.039-.149-.164a.565.565 0 0 0-.148-.082.349.349 0 0 1-.02.274.335.335 0 0 1-.008-.282.207.207 0 0 0-.195.032.147.147 0 0 0-.031.105.15.15 0 0 0 .05.094c.063.058.176.094.403-.008Z"/><path fill="#53555b" d="m16.13 17.235.008.011.009.01.011.012.008.007a.022.022 0 0 0 .005.004l.011.008.01.006.011.005.009.004.013.004.011.002.011.001.003.004v-.002l-.12-.076.117.074c-.197-.017-.204-.411-.204-.411l-.797-.78c-.27-.259-1.89-.013-2.469-.188a.999.999 0 0 1-.413-.264l-.303-.436.298.809c-.129-.027-.222.09-.699-.535a8.073 8.073 0 0 0-.933-1.031c-1.372-1.153-.946-3.985-.946-3.985-.496 2.157.2 3.282.2 3.282a24.93 24.93 0 0 0-2.797-.215c-1.094-.024-1.57-.668-1.57-.668.234.508.843.797.843.797-.219.027-.95 1.113-1.144 1.285-.196.176-.54.734-1.196.664-.66-.067-.617-.887-.617-.887.375.043.988-.648 1.23-1.547.243-.902.907-1.094.907-1.094-.227.032-.32.079-.676.227-.36.148-.18-.379.289-.773.465-.395 1.094-.22 1.094-.22-.114.188-.477.407-.477.407s.797.05 1.7-.672c.882-.71 2.425-2.34 2.425-2.34a9.608 9.608 0 0 0-.297 1.18c.703-1.742 1.97-1.684 2.668-1.492.172.05.336.117.5.195 0 0-.48-.504-1.64-.445 0 0 .894-.633 2.468-.094.25.086.489.188.72.309.222.113.433.242.64.379l-.004-.004h.004l-.016-.016.012.016-.274-.364.161-.011c.257 0 .808.062 1.453.515-.039.015-.101.042-.102.075-.001-.034.063-.062.102-.075-.075.008-.18.075-.465.051-.242-.086-.68-.18-1.02.016l-.004.004c-1.085-.227-1.007.054-.878.265.195.32.312.5.312.5l-.031.067c-.38.797-.492 1.64.36 2.422.312.285.269.496.155.543-.558.242-1.234-.29-1.234-.29.648.66 1.45.426 1.477.47a2.4 2.4 0 0 1 .187.421c-.883.516-1.387.453-1.672.176-.71-1.324-.062-2.926.38-3.426h-.001c.375-.418-.11-.965-.488-1.148l-.027-.012c-.008-.004.57.383.203 1.02-.094.14-.2.269-.32.39-.04.035-.079.07-.122.106-.703.59-.957.894-1.043 1.164a1.442 1.442 0 0 0-.035.449c.035 1.058.61 2.629.91 2.879.371.312.985.11 1.895.172.32.023.867.277 1.164.367.39.12.933.656.953.683.234.309.2.332-.016.637-.058.086-.367-.59-.695-.578-.09.004.105.195.117.215a.158.158 0 0 0 .113.086c.532.285.254.687.254.687-.058.035-.175-.148-.175-.148-.439-.352-.394.188-.391.221l.039.025s.227.41.566.484l-.046-.55s.218.007.277-.051c0 0 .512.558.656.554 0 0-.062-.62-.05-.648 0-.008.054.063.124.055l.11-.008c.047-.004.566.547.566.5.02-.41-.16-.629-.133-.637.043-.015.043-.062.051-.086a.404.404 0 0 0-.023-.133l-.008-.011a.65.65 0 0 0 .008.011c-.223-.609-.727-.507-.727-.507l-.858-.563.831.383s.238.121.402.121c.16 0 .313.234.332.387.009.066.032.13.067.187.058.106.16.188.27.125 0 0 .179.024.472.473 0 0 .07-.54-.133-.867a.388.388 0 0 0-.008-.176c-.012-.317-.363-.387-.363-.387-.086-.086-.485-.234-.82-.344-.34-.113-1.196-.41-1.543-.703-.325-.273-.618-.297-1.055-.222a.994.994 0 0 1-.746-.168 3.073 3.073 0 0 1-.64-.57l-.001-.001c.091-.007.832-.078 1.442-.5 0 0 .664.536 1.293.215l.227-.296.043-.009.007-.007-.046.069a1.07 1.07 0 0 1-.231.244c.14-.071.265-.177.363-.305l.008-.008.023-.032v-.003a.687.687 0 0 0 .067-.122c.042-.113.074-.242.113-.355.332-.945.648-.852.86-1.453.23-.66.144-.871.023-1.399-.063-.27-.075-.398-.118-.484l.348-.367c.023-.031.113-.106-.016-.164-.273-.121-.785-.051-.89-.035a1.449 1.449 0 0 0-.469-.215l-.898-.38c-.153-.066-.598-.327-1.305-.312-.32 0-.633-.074-.922-.21-.199-.102-.439-.243-.766-.31l-.562-.03a2.86 2.86 0 0 0-.727.164c-1.175.414-1.796.71-2.261 1.175l-.078.079.015-.012c-.73.683-1.824 1.86-2.246 1.996-.547.184-.719.219-1.101.191a1.59 1.59 0 0 0-.868.192c-.187.105-.527.492-.578.582-.05.086-.207.398-.156.726.05.329-.05.82-.598 1.575a.378.378 0 0 0-.261-.286c-.235-.078-.422.063-.543.192-.122.129-.391.691-.762.867-.375.172-.227.121-.461.102-.234-.016-.39-.094-.59.183 0 0-.351.035-.543-.086 0 0 .035.399.399.45 0 0-.063.257.656.269 0 0-.192.164-.313.164 0 0 .133.379.512.234 0 0 .574-.062.805-.347a.892.892 0 0 1 .582-.305c.226-.024.05.098.32.098s.45.12.563.136c.113.02.355.098.605-.128.25-.227 1.414-1.387 1.961-1.723h3.309c.347.508.62.644.941 1.031 1.05 1.274.844 1.23 1.297 1.23.367 0 .262.044.512.016.25-.027 1.472-.062 1.472-.062s.668-.008.832.12c.164.134.692.618.692.618s.175.145.183.215l.099.063Zm.183.038s-.055-.183.046-.222l.45.71s-.364-.12-.497-.488h.001Zm1.378.438s-.484-.387-.554-.574c0 0 .09-.164.199-.168 0 0 .074.472.36.742h-.005Zm.754-.137s-.328-.347-.488-.449c0 0 .008-.234.078-.242 0 0 .375.558.41.691Zm.684-.304s-.18-.293-.399-.38a.997.997 0 0 1 .024-.34c.023-.109.32.43.375.72Zm-1.503-.154.003.005h-.004l.001-.005c-.029-.053-.279-.464-.579.064-.027.047.008-.29.262-.344.195-.046.33.196.317.28Zm.401-.382a.266.266 0 0 1 .285.211c.028.133-.117-.144-.265-.12-.152.023-.125.284-.125.284s-.149-.367.105-.375Zm.645.079c-.035-.008-.133-.293.023-.41.188-.137.282.085.282.085-.34-.25-.305.325-.305.325Zm-.961-.231a.935.935 0 0 1-.129.066.171.171 0 0 1-.073.018c.034.002.095-.021.202-.084Zm-1.184-1.013-.011-.007.058.051.894.827.005.01.003.008.002.01.002.015-.001-.01-.004-.018-.005-.011-.001-.003-.001-.001-.008-.012-.014-.016-.018-.02-.018-.019-.025-.024-.027-.027-.032-.031-.034-.032-.036-.034-.039-.037-.041-.038-.032-.029a8.944 8.944 0 0 0-.066-.06l-.035-.032-.036-.032-.037-.033-.038-.034-.038-.035a1.504 1.504 0 0 1-.041-.036l-.042-.038a1.392 1.392 0 0 1-.042-.037l-.042-.037a1.504 1.504 0 0 1-.041-.036l-.04-.035-.072-.063-.047-.044Zm2.323.618ZM1.532 16.07c.105 0 .238-.11.238-.11-.063.114.113.274.113.274a.288.288 0 0 1-.352-.164h.001Zm15.242-.519-.031-.015.02.01.449.279.273.146.379.16.078.002c.323.112.494.053.671.023l-.671-.023-.582-.29-.016-.007-.038-.017-.037-.018a.565.565 0 0 1-.043-.02l-.043-.02-.044-.021-.043-.021-.042-.022a.519.519 0 0 1-.041-.02l-.038-.019-.036-.019-.033-.017-.047-.025-.041-.022-.044-.024Zm-.407-.35-.021-.007-.022-.006-.019-.004-.016-.001h-.01l-.003.001-.003.001h-.001l-.002.001-.001.001v.001l-.001.002v.001l-.001.001.001.002v.003l.002.006.007.01.011.013.013.012.017.015.018.015.017.014.02.015.026.019a.121.121 0 0 1 .014.01.121.121 0 0 1 .014.01.13.13 0 0 1 .015.01.13.13 0 0 1 .015.01l.015.01.016.011.017.011.017.011.017.011.018.011.018.012.019.011.019.012.019.012a.16.16 0 0 1 .022.013l.022.013.022.013.023.013.045.026c-.002-.001-.006-.005-.006-.003 0 .003.004.003.006.004l.008.004.586.292-.594-.296c.168.094 1.257.671 1.562.551 0 0-1.648-.782-1.922-.884l-.031-.01c-.246-.11-.211-.345-.879-.36l.871.357Zm6.993-.234-.261.214-.201.081v.004c-.132-.184-.386-.176-.386-.176.031-.067.054-.137.074-.211a.153.153 0 0 0 .016-.066l.01-.072a.385.385 0 0 0 .001-.059l-.005-.039a.237.237 0 0 0-.009-.036c-.004-.013-.01-.025-.015-.037l-.028-.046a.447.447 0 0 0-.06-.063l-.026-.021-.141-.092-.809-1.047-.008-.02.027.086c.059.184.121.367.195.531.118.278.254.497.422.551.403.262.11.676.11.676-1.086-.336-.934-.664-.934-.664s-.21.125-.324.027c-.11-.101-.215-.097-.485-.105-.265-.004-.316-.293-.316-.293 0 .308-.352.297-.352.297.004-.082-.218-.227-.218-.227s-.028-.023.035-.035c.144-.027.25-.316.25-.316a.745.745 0 0 1-.008-.348c.043-.215.36-.156.48.125.118.281.66.555.66.555-.12-.133-.706-.473-.613-.91.02-.094-.425-.004-.425-.004-.586.09 0-.7 0-.7-.203.094-.344.364-.368.438-.027.07.008.18-.164.125-.175-.05-.535.008-.535.008-.539.109-1.039-.352-1.05-.461-.016-.11.355-.258.355-.258l.2-.14s.335-.356.257-.712a.948.948 0 0 1 .062-.578v.004c.317.434.95.883 1.301 1 0 0-.539-.101-.906-.265a1.15 1.15 0 0 1-.215-.118l-.023-.02c.011.016.02.032.035.044.043.047.09.086.14.12.176.13.528.333 1.223.622.125.05.258.101.402.16h.004c.141.055.286.102.43.137.25.066.328.12.418.297.086.172.645 1.234 1.105 1.496.458.258.602.414.212.835l-.001.001.001-.001-.001.001.462-.295.008-.006.007-.016c.078-.191-.172-.414-.55-.629-.384-.218-.86-.902-.993-1.207-.129-.3-.309-.64-.762-.668 0 0-.144-.007-.336-.214-.191-.207-.406-.207-.968-.606-.567-.398-.93-.828-1.504-1.613-.137-.336.156.418.05 1.137-.035.226-.261.73-.503.964a1.375 1.375 0 0 0-.297.434c-.07.162.425.445.484.488.063.043.113.164.465.215.348.05 1.652.149 1.156.703-.05.047-.101.09-.156.13-.035.015-.106.015-.121.128-.012.11-.168.602.414.8 0 0-.074-.35.058-.425.141-.074.954-.164 1.43.238 0 0 .051.117.36.196.312.078.476.191.476.406-.004.215-.035.473-.035.473s.45-.301.457-.735c0 0 .664.027.395.742 0 0 .585-.332.472-.937v-.002l-.007.004Zm-20.157.568s-.043-.082-.16-.012-.723.336-1.004.153c0 0 .656-.164.992-.477l-.015-.222s-.274.27-.891.445c0 0 .785-.418.992-.89 0 0 .098-.231.094-.071 0 0-.207.625-.008 1.074Zm19.801.191v.001h-.001l.001-.001-.043-.414s.273-.074.332-.144c0 0 .02.308-.289.558Zm-.875-.003s.11-.332-.02-.461c0 0 .246.027.301-.032 0 0 .016.204-.281.493Zm-5.602-.154.002.001-.013-.011.011.01Zm-15.425-.057s-.239.015-.305-.258c0 0 .234.086.402.055a.882.882 0 0 0-.097.203Zm8.621-.356-.164.129-.002.001h.002l.164-.13c.234-.312.25-1.011.25-1.011l-.332.007c.039.075.058.696-.079.953h.001l-.012.02.011-.02a.231.231 0 0 1-.054.028c-.371.105-.832-.656-.832-.656l.035.296c-.129-.117-.715-.566-.797-.578H6.828l-1.336 1.137c.211.035.473-.074.485-.066.132.078.289-.008.355-.079 0 .004.016.024.016.024.015.047-.164.113-.164.113.191.106.332-.008.355-.008.043.004.086-.039.094-.113 0 0 .02-.773.785-.867.652-.078 1.664 1.086 2.102.969l.203-.149Zm-3.45.16a.326.326 0 0 0 .133-.086c.008.032.09.063.09.063-.156.074-.223.023-.223.023Zm3.265-.022h-.001.001Zm.01-.004-.009.003.009-.003Zm-.054.002.001.001-.001-.001Zm-3.885.001c.09-.063.176-.133.254-.203.02.043.043.082.074.117a.954.954 0 0 1-.328.086Zm3.943-.005-.002.001.002-.001Zm6.816-.087-.872-.357c.668.015.633.25.879.36l-.007-.003Zm-6.857-.005-.001.001.001-.001Zm.003-.005-.001.001.001-.001Zm4.008-.284-.057-.02.119.042.093.02.317.033-.338-.039-.134-.036Zm-6.902-.422.2-.098a.87.87 0 0 0-.334.338l-.109.255c.052-.203-.162-.031-.162-.031.137-.244.288-.385.405-.464Zm-.003.445c-.027-.051-.117.011-.117.011.148-.472.484-.574.484-.574-.402.246-.367.563-.367.563Zm6.586-3.883v-.004s-.699 1.727.078 3.121l-.094.563c.172.073.354.117.54.132.285.016.738-.063.332-.363a2.632 2.632 0 0 1-.43-.387l-.012-.011c-.172-.2-.312-.43-.41-.676l-.012-.027v-.004c-.207-.536-.285-1.289.008-2.344Zm6.481 3.797s-.344-.106-.211-.653c0 0 .242.094.289.274a.294.294 0 0 0-.078.379Zm2.526-.383h.001a.43.43 0 0 1 .004 0h-.005Zm-9.003-1.039a2.183 2.183 0 0 0 .41.676 2.385 2.385 0 0 1-.41-.676Zm3.057.153a.816.816 0 0 1 .177.028.425.425 0 0 1 .059.022l-.236-.05Zm0 0-.487.019s.102-.05.243-.071l.244.052Zm.449-4.46.01.002a1.868 1.868 0 0 0-.512.008l.008.011.004.004a.782.782 0 0 1 .164.29v.004l-.032-.028c-.453-.34-.804-.359-1.054-.316h-.002l-.494.379s.241-.067.601.382c0 0-1.109-.937-.761.61l-.196-.129s-.738.949.512 1.789c.282.188-.098-.922-.098-.922s.5.742.43 1.664c0 0-.035.695.465.535.291-.003.582.011.871.043l.2-.038.116-.153c.016-.059.035-.144.059-.254.028-.167.061-.332.101-.496.102-.5.25-1.07.465-1.239 0 0-.402 1.231-.066.7.34-.527.816-1.387.305-1.465 0 0 .433-1.551-.809-.652 0 0 .031-.125.387-.387 0 0-.121-.23-.664-.34l-.01-.002Zm.265 4.264.005-.007-.018.023.013-.016Zm-.201-2.438s.09-.025.158.07.114.31.026.79c0 0 .289-1.082-.184-.86Zm-1.193.063c-.085.098-.147.31-.111.746 0 0-.112-.594.068-.79l.293-.025-.25.069Zm.276.083.101-.04-.001.003.244.078-.243-.077-.101.036-.001.007c.032 0 .067 0 .098.008.328.039.313.171.305.25.011-.079.066-.22.304-.23v-.001a.692.692 0 0 0 .157-.016h.001c.024-.006.035-.031.018-.046 0-.031-.034-.058-.187-.02-.274.066-.375.043-.457.008a.478.478 0 0 0-.075-.027h-.02c-.103-.024-.202-.009-.143.067Zm-8.347-2.51c.409-.515.452-1.261-.071-1.819-.61-.653-1.872-.754-2.098-.7h-.008l-.01.003c-.126.028-.202.097-.228.181-.106.324.66.336.66.336 1.539.14 1.742.86 1.648 1.348-.168.902-1.715.847-1.715.847s-1.203.02-1.449.915c-.265.957.805 1.515.805 1.515.172-.133.379-.215.594-.234H5.64s-1.238-.461-.89-1.188c.352-.726 1.234-.558 1.95-.722.372-.082.637-.264.813-.482Zm8.354 2.368v.005a.24.24 0 0 0-.033-.015l.033.01Zm1.301-.062s-.058-.063-.14-.097c-.082-.033-.188-.036-.282.085a.448.448 0 0 1 .422.012Zm-1.371-.055c-.094-.121-.199-.118-.281-.085-.082.034-.141.097-.141.097a.427.427 0 0 1 .422-.012Zm.033-.179.334.047.097.07.265-.081-.182-.005a.204.204 0 0 1-.117.011c-.202-.084-.334-.067-.397-.042Zm-2.524.064-.015.046.015-.046ZM4.48 9.8c.188-.653.989-.715 1.012-.7 0 0-.676.079-.89.665a.773.773 0 0 0-.051.285.812.812 0 0 0 .23.515.928.928 0 0 0 .172.153c.008.008-.66-.266-.473-.918Zm8.875.77-.046.136.046-.136Zm3.171.115a.675.675 0 0 1 .177-.005c.047.004.078.011.078.011l-.255-.006Zm-.696-.036-.009-.001-.04.016.049-.015Zm2.573-.328.018.041.143.263-.161-.304Zm-2.676-.098.25.289c-.008.031-.145.031-.192.008 0 0 .133.101.406.058a.608.608 0 0 1 .204.008c.07.027.144.059.308-.027.102-.051-.055.02-.164-.032-.082-.039.25-.433.238-.425-.125.12-.347.41-.363.414-.055.015-.105-.051-.105-.118 0 0-.016-.171-.036-.18 0 0 .047.22-.128.282l-.418-.277Zm.671-.008c.034.01.089-.104.137-.221.047-.117.086-.236.086-.236s-.305.43-.223.457Zm-.348-.008c.079-.039-.347-.387-.347-.387s.293.414.348.39l-.001-.003ZM14.156 9.09s.356-.074.582.05c-.12.11-.222.235-.304.376 0 0-.243-.27-.278-.426Zm3.746.25a1.033 1.033 0 0 1-.07.062c-.059-.054-.137-.117-.254-.234a.597.597 0 0 0-.078-.063c.18-.02.566-.05.578.024v.012s0 .004-.004.007c-.054.067-.11.133-.172.192Zm-2.611-.249-.01.002c-.256.046-.374.041-.422.017.048.025.166.03.422-.016l.01-.003Zm1.35.012.066.01c-.022-.004-.044-.008-.066-.01Zm-1.342-.013.002-.001-.008.002.006-.001Zm-5.398-.439-.144.07-.346.2.248-.152.098-.048.054-.031.09-.039.127-.062.363-.133.437-.109h.002l.002-.001.349-.046.267-.01-.268.011-.35.046-.436.108-.258.095-.235.101Zm-2.384-.079-.005.006.001-.002.003-.002.001-.002Zm.046-.117.001-.003-.001.003ZM5.75 6.204c-.09-.013-.199-.013-.242.03 0 0-.208.122.312.192.723.094 2.106.421 1.629 1.781 0 0 .481-.898-.426-1.531a2.631 2.631 0 0 0-.648-.317 5.335 5.335 0 0 0-.625-.156l-.035-.008.035.009Zm1.907 1.855.001-.009-.001.009Zm.007-.072v-.003.003Zm-.005-.311.001.005-.001-.005ZM7.558 7.3l.001.001-.001-.001Zm-.042-.087.001.002-.001-.002Zm-.017-.032.005.009-.005-.009Zm-.006-.011.002.004-.002-.004Zm-.01-.017.003.006-.003-.006Zm-.011-.018.007.011-.007-.011Zm-.092-.131.016.02-.016-.02Zm-.087-.1.009.009-.009-.009ZM7.29 6.9l.002.003L7.29 6.9Zm-.035-.034.005.004a.022.022 0 0 1-.005-.004Zm-.075-.07.002.003-.002-.003Zm-.018-.015.011.01-.011-.01Zm-.005-.004.003.003-.003-.003Zm-.049-.039.008.006-.008-.006Zm-.009-.007.004.003-.004-.003Zm-.015-.012.001.002-.001-.002Zm-.007-.004.003.002-.003-.002Zm-.017-.013.006.005-.006-.005Zm-.021-.015.004.003-.004-.003Zm9.674 2.428Zm0 0h-.001.001Zm-.001 0Z"/><path fill="#fefefe" fill-rule="nonzero" d="M16.313 17.273a.862.862 0 0 0 .496.489l-.45-.711c-.101.039-.047.222-.047.222h.001Zm.824-.136c.07.187.554.574.554.574-.28-.27-.355-.742-.355-.742-.11.004-.2.168-.2.168h.001Zm.82-.012c.16.102.488.45.488.45-.035-.134-.41-.692-.41-.692-.07.008-.078.242-.078.242Zm.773-.23c.22.082.399.375.399.375-.055-.29-.375-.72-.375-.72a1.001 1.001 0 0 0-.024.345ZM1.77 15.96s-.133.11-.239.11a.292.292 0 0 0 .352.164c.14-.043-.176-.16-.113-.273v-.001Zm21.19-.647c.153.144.044.414.044.414.308-.25.289-.559.289-.559-.059.07-.332.145-.332.145h-.001Zm-.85-.051c.128.129.019.46.019.46.297-.288.281-.492.281-.492-.055.06-.3.032-.3.032ZM.797 15.254c.066.273.305.258.305.258a.741.741 0 0 1 .101-.203c-.172.03-.402-.051-.402-.051l-.004-.004Zm5.609-.024a.326.326 0 0 1-.133.086c-.05.02.067.051.223-.023 0 0-.082-.031-.09-.063Zm-.796.063a.954.954 0 0 0 .327-.086.473.473 0 0 1-.074-.117c-.078.07-.164.14-.254.203h.001Zm13.863-1.102h-.001.001c-.133.547.21.653.21.653a.294.294 0 0 1 .079-.38c-.045-.173-.273-.266-.289-.273Zm-3.035-1.081c-.352-.102-.586-.012-.586-.012-.082.035-.125-.008-.145-.07a.661.661 0 0 1-.023-.212c-.207.192-.098.47-.098.47.023.023.031.073.172-.013.137-.09.738-.043.8.032.083.097.149.02.149.02a.418.418 0 0 0-.094-.477c.008.148-.02.218-.054.254a.105.105 0 0 1-.122.007l.001.001Zm.238-1.22c-.137.005-.27 0-.403-.011-.05-.004-.062-.113-.062-.113s-.031.109-.074.109c-.145 0-.282-.004-.375-.004 0 0-.239-.008-.254.086 0 0-.012.281.133.48.004-.136.02-.273.05-.406.016-.054.036-.09.059-.094 0 0 .05.235.078.231 0 0 .02-.152.067-.207a.889.889 0 0 1 .171-.004c.157 0 .309.008.461.016a.387.387 0 0 1 .055.175c.04-.054.07-.113.098-.171.04.159.05.325.027.488-.023.163.105-.11.164-.461 0 0 .063-.113-.195-.113v-.001Z"/><path fill="#ed3023" fill-rule="nonzero" d="M16.582 12.148a.453.453 0 0 0-.055-.175 2.2 2.2 0 0 0-.23-.012c-.047.05-.067.543-.121.543-.047 0-.063-.488-.11-.547a.889.889 0 0 0-.171.004c-.047.055-.067.203-.067.203-.027.008-.078-.226-.078-.226-.023.003-.043.039-.059.09.125.163.262.484.016 1 .02.062.063.105.145.07 0 0 .234-.09.585.011.04.024.086.02.122-.007a1.059 1.059 0 0 1 .136-1.059.371.371 0 0 0-.015-.066c-.027.06-.06.117-.098.171Z"/></svg>