<svg xmlns="http://www.w3.org/2000/svg" width="24" height="24" viewBox="0 0 24 24"><path fill="rgb(0%,0%,0%)" d="M3.113 15.652c-.277.032 1.098-.3 1.106-.3.965-.239.277-.239-.125-.329a6.162 6.162 0 0 1-.782-.23c-.078-.027-.41-.102-.539-.012-.152.102-.714.114-1.218.317-.438.175-1.121.547-1 .906.113.344.836.21 1.386-.133.118-.074.79-.18 1.172-.219Zm15.45.965c-.364-.105-.981-.242-1.536-.445-.554-.2-.945-.555-1.195-.762-.25-.2-.691-.262-.996-.363-.3-.102-.25-.152-.45 0a4.668 4.668 0 0 1-.554.363c.64.18.848.102 1.297.168.328.05.965.922 1.824 1.29.875.378.719.366 1.7.366.792 0 .437-.464-.09-.617Zm3.472 0c-.351-.254-.832-1.582-1.07-1.898-.254-.34-.617-.114-1.207-.801-.469-.54-.66-1.34-.918-1.82-.356-.66-.906-.762-.73-.938.742.442 1.03.328 1.495-.062.196-.164.38-1.207-.265-1.508-.957-.442-1.457.59-1.48.598-1.235-1.051-3.934-.829-5.184-.407-.305.102-.028.137.226.164.164.016.422.285-.504.153-.363-.055-2.039-.395-2.996-.395-.82 0-1.433.067-1.836.27-.382.191-1.285.492-1.636.605-.207.07-.274-.113-.047-.191C9.422 9.19 9.484 8.289 11 7.477c-.504 0-2.402.125-2.805.125-1.36.171-2.265.902-2.668 1.418-.105.14-.273.02-.148-.149.644-.898 1.902-1.46 3.144-1.535.149-.05 1.258-1.074 1.887-1.453-2.113.062-2.617.062-3.726.52-1.106.452-1.797 1.554-2.352 2.113-.55.554-1.242.379-2.164 1.289-.406.406-.719 1.258-1.031 1.62-.317.372-1.032 1.192-.89 1.61.097.3.097.192.35.238-.077.102.005.372.051.508.13.383.657.442.641.418.316.43 1.184.262 1.774.34.476.063 1.03.356 2.113.356.804 0 1.242-.622 1.37-.938.126-.3.177-.277-.034.293-.235.613-.922.926-1.422.82-.113.297-.84.375-1.524.633-.503.192-1.421.797-1.675 1.102-.243.297-.528.457-.364.773.11.215 1.188-.183 1.536-.406.402-.254.53-.086.882-.238.352-.157.551-.317 1.153-.57 1.16 0 1.738-.102 2.797-.102.867 0 1.257-.317 1.62-.938.395-.672.364-.156.231.164 1.36.387 4.031-.312 4.188-.418.285-.191.593-.152.05-.515-.304-.207-.336-.575 0-.293.38.316.602.418 1.004.62.203.102.98.278 1.106.415.586.644 1.914 1.015 2.668 1.117.758.102.957.05 1.308.453.364.418 1.555 1.04 2.016 1.168.555.152 1.734.152 1.684-.406-.032-.356-1.098-.559-1.735-1.012Zm-18.344-5.93.032.067a.526.526 0 0 1-.157.621c-.27.195-.582.035-.636-.152-.125.047-.192.148-.29.3-.042.067-.081.059-.105.043-.062-.043-.047-.097.008-.222.047-.125.394-.703 1.098-.856.062-.015.136-.015.16.032.058.132-.117.14-.11.168Zm-.277.11a.142.142 0 0 0-.133.144c0 .075.059.137.133.145a.148.148 0 0 0 .145-.149.14.14 0 0 0-.145-.14Zm0 0"/></svg>