<svg xmlns="http://www.w3.org/2000/svg" width="24" height="24" fill-rule="evenodd" stroke-linejoin="round" stroke-miterlimit="2" clip-rule="evenodd" viewBox="0 0 24 24" xml:space="preserve"><path fill="#002d5b" fill-rule="nonzero" d="M23.074 7.219c-.082-.051-1.879-1.137-4.168-1.2.23-.093.469-.16.715-.203l1.438-.238.007-.125-1.398-.406c-.105-.031-2.52-.727-4.844-.211.703-1.414 1.281-2.012 3.645-3.3l.004-.005.222-.168-.234.028-.07.007-1.618.227c-.996.137-5.335 1.27-6.906 3.906-.87-.316-3.144-.96-6.43-.582l-1.359.156-.015.125 1.28.485c.028.008 2.637 1.015 3.966 3.027-.606.113-1.418.387-2.04 1.055-.558.605-.843 1.406-.843 2.387l.015.421.063.825.605-.567c.332-.308.727-.504.954-.554.082-.02.343.05.515.097.238.074.484.121.734.14.208 0 .415-.01.625-.034.223-.028.45-.032.672-.02.188.028.36.102.512.211-.281.313-.926.805-2.277 1.004l-.426.063.098.418c0 .003.093.34.117.437l-.008.012c-.09.152-.191.3-.297.441-.648.356-3.808 2.258-5.719 6.426l-.52 1.133 1.083-.625c5.617-3.266 12.258-2.535 15.176-.977l.152.078h.012c.015.004.027.004.183-.066.809-.363 2.407-1.777 2.633-4.547l.012-.367c0-1.09-.281-2.883-1.078-4.668.273-.527 1.644-2.856 4.687-3.524l.961-.21-.836-.512Z"/><path fill="#fefefe" fill-rule="nonzero" d="M22.93 7.855a7.119 7.119 0 0 0-4.762 3.61c.8 1.789 1.086 3.582 1.086 4.668l-.016.36c-.222 2.73-1.785 4.12-2.582 4.472l-.14.062c0-.004-.125-.07-.125-.07-2.938-1.57-9.618-2.305-15.266.977l-.836.484.402-.879c1.907-4.156 5.079-6.055 5.696-6.394.125-.16.238-.329.34-.508 0-.016-.125-.469-.125-.469l-.075-.324.328-.047c1.473-.215 2.13-.781 2.391-1.098l.008-.011-.012-.008a1.241 1.241 0 0 0-.62-.274 3.405 3.405 0 0 0-.692.02 6.69 6.69 0 0 1-.617.031 2.89 2.89 0 0 1-.708-.137c-.207-.054-.457-.125-.562-.101-.238.054-.652.258-.996.582l-.469.433-.047-.636-.015-.414c0-.957.277-1.739.82-2.329.64-.69 1.5-.949 2.101-1.043l.02-.003-.008-.016C6.13 6.691 3.406 5.641 3.38 5.629l-1.184-.445 1.254-.145c3.332-.387 5.617.29 6.446.598l.011.004.004-.008c1.524-2.649 5.88-3.781 6.875-3.918l1.55-.219-1.35.785a5.324 5.324 0 0 0-2.31 2.656l-.007.024.023-.004c2.344-.578 4.844.14 4.95.172l1.293.379-1.329.219a3.877 3.877 0 0 0-1.023.332l.012.046c2.41-.035 4.351 1.137 4.433 1.188l.645.398-.743.164Z"/><path fill="#002d5b" fill-rule="nonzero" d="M22.89 7.555s-2.722-1.672-5.636-.985c0 0 .984-.925 2.328-1.144 0 0-2.934-.86-5.352-.008 0 0 .38-2.102 2.622-3.402-.754.105-5.446 1.234-6.79 4.011 0 0-2.515-1.152-6.554-.683 0 0 3.203 1.203 4.472 3.726 0 0-3.39-.008-3.12 3.504.355-.328.812-.582 1.14-.652.328-.074.918.219 1.344.226.426.008.965-.097 1.343-.046.383.058.731.25.989.539 0 0-.524 1.132-2.75 1.46.043.188.097.38.164.563a5.191 5.191 0 0 1-.477.723c-.179.227-3.597 1.867-5.617 6.281 5.742-3.332 12.574-2.582 15.563-.984.738-.329 2.187-1.63 2.398-4.22.043-.507.02-2.585-1.105-5.003 0 0 1.289-3.082 5.039-3.906h-.001Z"/><path fill="#e72c29" fill-rule="nonzero" d="M16.29 7.21c.316-.709.88-1.28 1.585-1.605.707-.328-1.504-.406-4.352.54a4.776 4.776 0 0 1 1.168-2.926c.707-.813-2.957.89-4.398 3.558 0 0-2.012-.945-4.852-.894 0 0 2.235 1.168 3.18 3.437.035.09.074.18.106.274.636-.117 1.335.191 1.867.73.55.559.926 1.356.86 2.168 0 0-.294.551-.727.332a.898.898 0 0 1-.297-.258.577.577 0 0 0-.153.184.694.694 0 0 0-.07-.207c-.8 1.539-2.8 1.691-2.867 1.785 0 0 .055.2.09.281 0 0-.215.356-.61.954l.465-.286c.16-.227.305-.464.434-.71.129-.247.898.038 2.472-1.235.009.373.067.744.172 1.102.105.358-4.715 1.578-8.136 5.773 0 0 2.937-2.742 6.453-3.348.133.18.285.348.457.493 0 0-3.254.425-5.594 2.195 0 0 3.2-1.555 6.7-1.402 0 0 .82.566 3.347-.122-.27-.101-.555-.289-.535-.57.043-.543 1.55-1.2 1.66-3.219.062-1.168-.688-2.863-1.852-3.68 0 0 .43-.917 2.063-1.23 0 0-1.797-1.652-4.422-.328a3.268 3.268 0 0 1 1.27-1.793c-.14.234-.212.502-.208.774.008.27.418-.668 1.02-1.004-.16.238-.254.507-.281.793.32-.391.73-.692 1.195-.883 0 0-.395.406-.488.82 0 0 .425-.45 1.008-.543a.944.944 0 0 0-.442.531c-.074.223.887 0 2.05.786.204.148.392.316.556.503.378.434.804 1.313 1.191 2.317a.531.531 0 0 1 .047-.188c.453-.921 1.844-3 4.156-3.554 0 0-1.719-1.13-5.293-.344l.005-.001Z"/><path fill="#fedd4e" fill-rule="nonzero" d="M10.277 12.75a.577.577 0 0 1 .153-.184c.082.106.18.196.297.258.257-.097.543-.316.492-.781-.086-.77-.328-1.32-.625-1.719-.531-.539-1.23-.851-1.867-.73a3.782 3.782 0 0 0-.106-.274c-3.48.047-3.363 2.504-3.363 2.504s.535-.418 1.492-.648l.43-.52.52.227s-.095-.094.366-.188c.422-.082 1.02.024 1.23 0 .208-.02.294-.07.388-.062.093.012.117.05.218.18.141.164.23.367.262.582 0 0-.598-.47-.742-.47-.145 0-1.406.184-2.828.774 0 0 .672.074.793.063.523-.067 1.164-.246 1.816.011.73.286.942.563 1.004.77a.694.694 0 0 1 .07.207Z"/><path fill="#002d5b" fill-rule="nonzero" d="M9.39 16.32c.208-.215.43-.414.669-.593a.31.31 0 0 1-.137-.094c-.035-.043 1.3-.633 1.285-2.297 0 0-.102 1.61-1.555 2.172.04.043.078.086.125.125-.023.078-.457.41-.855.695 0 0 1.394 1.98 3.047 1.695 0 0-1.196.141-2.578-1.703H9.39Zm3.848-4.808c.778 1.453.317 3.117.317 3.117a4.64 4.64 0 0 0-.735-3.242 3.038 3.038 0 0 0-.332-.442c.164.403.246.832.242 1.266a2.97 2.97 0 0 0-.199-.566 2.277 2.277 0 0 0-.375-.602c.102.23.18.477.242.723.594 2.433-.816 4.941-.816 4.941.824-1.7.793-3.566.637-4.633l-.024-.129c-.175-.984-.613-1.351-.613-1.351-.437.113-1.012-.387-1.012-.387s.164.066.457-.055c.293-.117.465-.453.743-.691.425-.363 1.617-.297 1.617-.297-1 .188-1.395 1.164-1.395 1.164a.67.67 0 0 1 .356.102c.289.16.593.523.89 1.082Zm-4.441-1.66c.258.03.336.375-.418.343 0 0 .668.164.82-.125.094-.172-.402-.218-.402-.218Z"/><path fill="#fefefe" fill-rule="nonzero" d="M16.188 8.977a3.595 3.595 0 0 0-.56-.5c-1.163-.786-2.05-.786-2.05-.786a.942.942 0 0 1 .442-.53c-.582.093-1.008.542-1.008.542.093-.418.492-.82.492-.82-.466.187-.877.49-1.195.879.022-.283.118-.555.277-.79-.602.337-1.016 1.005-1.016 1.005a1.406 1.406 0 0 1 .203-.774 3.268 3.268 0 0 0-1.27 1.793c2.63-1.328 4.423.328 4.423.328-1.63.313-2.063 1.227-2.063 1.227 1.164.82 1.914 2.515 1.852 3.683-.11 2.02-1.617 2.676-1.656 3.22-.024.28.261.468.535.57-2.531.683-3.352.12-3.352.12-3.5-.156-6.699 1.403-6.699 1.403 2.34-1.77 5.594-2.195 5.594-2.195a3.051 3.051 0 0 1-.457-.493c-3.516.606-6.453 3.348-6.453 3.348 3.425-4.195 8.14-5.773 8.14-5.773a4.265 4.265 0 0 1-.156-.774c-.68.336-3.613 1.832-5.543 3.457.14-.05.293-.078.445-.078 0 0-2.078 1.344-3.68 4.074 1.567-1.32 6.563-3.386 13.903-2.37 1.273-.552 1.687-2.571.851-4.161 0 0 .727.434.891 1.555 0 0 .34-.996-.617-2.375 0 0 .887.406 1.266 1.906 0 0 .273-1.191-.957-2.734a3.816 3.816 0 0 1 1.484 2.02c.016-1.282-.617-2.84-.82-3.462l-.059-.195c-.387-1.004-.813-1.883-1.188-2.32h.001Zm-5.301 1.336c.12.078.254.136.39.164.203.043.743-.172.446-.723 0 0-.352.578-.836.559Z"/></svg>