<svg xmlns="http://www.w3.org/2000/svg" xml:space="preserve" width="24" height="24" fill-rule="evenodd" stroke-linejoin="round" stroke-miterlimit="2" clip-rule="evenodd" viewBox="0 0 24 24"><path fill="#6c1d45" fill-rule="nonzero" d="M20.893 8.482c1.229-3.82-3.54-6.927-6.033-7.639 0 0 .353.695.489 1.042 0 0-4.776-2.544-9.198.16 0 0 .888.187 1.253.318 0 0-3.751.467-5.658 4.496 0 0 1.151-.409 1.719-.529-1.872 1.804-4.394 7.16-.632 12.323 0 0 .051-.688.182-1.264 0 0 .131 2.993 4.2 4.798 0 0-.256-1.104-.274-2.101 0 0 1.356 3.842 6.746 2.989 0 0-1.213-.905-1.605-1.537 1.703 1.115 4.098 1.417 6.501-.479-3.648-.598-4.046-2.083-4.046-2.544 1.718.33 2.811-.085 3.193-.267 5.869.456 6.773-5.909 3.165-9.768l-.002.002Z"/><path fill="#fff" fill-rule="nonzero" d="M12.959 12.296c.318.79.091 1.44.091 1.44-.854-2.544-2.413-2.579-2.413-2.579.399.83 1.487 2.88 3.063 4.104.409-2.208-.739-2.965-.739-2.965h-.002Zm1.542-3.592a.671.671 0 0 1-.665-.763.434.434 0 0 0 .609.16 13.862 13.862 0 0 1-.518-1.042c-1.275.786-.114 2.709 1.178 1.93a3.398 3.398 0 0 1-.308-.354.687.687 0 0 1-.296.069Zm4.919-.114c-1.035 0-1.48 1.304-3.455.957 1.372 1.167 1.184 1.919 1.184 1.919-4.667-3.94-10.627-.701-10.627-.701 4.287.529 3.41 7.024 10.069 6.961-1.269-2.083-.933-4.092-2.014-4.82-.314 2.412.91 4.057.91 4.057-3.603-.632-5.755-5.862-5.755-5.862-.855-.303-1.736-.432-1.736-.432 6.045-1.048 5.88.837 8.003 1.798 2.595 1.008 3.398 3.928 1.77 4.679 6.688 1.052 4.353-7.895 1.651-8.556Zm-.069 1.572c-.421.011-.894.222-.899.774 0 .051-.063.074-.096.04-.688-.661.267-1.429 1.024-.922.051.034.029.109-.029.109v-.001Zm-3.102-7.919c.654.637.87 1.549.87 1.549-1.718-1.32-5.515-2.902-9.067-1.736 1.264.147 1.958.598 1.958.598-4.337-.028-6.385 2.738-6.385 2.738 1.308-.405 2.334-.211 2.334-.211-.534.369-6.25 4.587-3.432 11.366.131-2.117 1.451-3.216 1.451-3.216s-1.611 4.752 2.123 7.258c-.364-2.288.746-4.098.746-4.098s-.325 5.288 4.883 5.863c-.563-.37-1.691-2.181-1.064-3.837 2.135 4.246 5.72 2.846 5.72 2.846s-3.107-.808-2.789-3.136c-1.992-.825-2.948-1.861-3.625-2.886-.712.632-1.32 1.765-1.32 1.765-.535-1.743 0-3.9 0-3.9-1.885.034-3.029 1.236-3.029 1.236s.058-1.576.95-2.789c-.649-.251-1.468-.427-2.528-.519C6.242 9.61 8.628 8.778 11.001 8.67c-.535-.763-.484-1.275-.484-1.275 1.087 1.28 2.186 1.543 2.186 1.543-1.15-1.173-.405-2.631-.405-2.631-2.357-1.776-5.328.57-5.328.57 2.539-3.917 6.147-1.458 6.147-1.458-.688-1.15-1.889-1.936-1.889-1.936 3.979 1.167 2.851 5.242 5.573 5.242 1.268 0 .894-1.707.472-2.482 1.008.757 1.052 1.565 1.052 1.565.416-1.349-1.035-3.062-1.035-3.062 2.346 1.571 2.101 3.432 2.101 3.432.416.04.621.289.621.289 1.395-2.886-3.239-5.987-3.762-6.227l-.001.003Z"/></svg>