<svg xmlns="http://www.w3.org/2000/svg" width="24" height="24" viewBox="0 0 24 24"><path fill="rgb(0%,50.980392%,72.941176%)" d="M12.457 7.566a2.204 2.204 0 0 0-.394.637c-.043.113-.067.23-.07.352 0 .023.003.047.007.066.125.207.25.418.367.633.098.09.203.172.317.246.265.176.546.32.843.441l1.149.48 1.105.485 1.067.477 1.015.465.266.125a7.77 7.77 0 0 0 .226-1.774s-2.011-2.492-5.898-2.633Zm0 0"/><path fill="rgb(0%,50.980392%,72.941176%)" d="m12.762 18.094.343-.977c-.093.031-2.445.414-2.445.414l1-1c-.144-.047-.289-.093-.43-.14a14.016 14.016 0 0 1-1.28-.528c-.41-.191-.81-.406-1.196-.64-.32-.2-.649-.383-.98-.559a12.93 12.93 0 0 0-.88-.422c.254.535.57 1.047.934 1.516 1.063 1.336 2.54 2.336 4.277 3.055a12.324 12.324 0 0 0 2.56-1.422l-1.903.703Zm0 0"/><path fill="rgb(0%,50.980392%,72.941176%)" d="M6.39 12.844c.055.015.11.027.165.039.011.004.015.004.015.004l.114.023c.046.012.093.02.14.031.223.043.438.086.656.133h.008a2.423 2.423 0 0 1-.37-.754c-.079-.273.878.86 2.652 1.235.574.125 1.144.25 1.718.383l.149.03.156.04.238.055.059.011.285.067a3.555 3.555 0 0 1-.063-.672v-.012l.434.156c.008.215.035.426.082.637l.074.016.328.082h.012a3.314 3.314 0 0 1-.094-.59l.446.16c.023.184.062.367.113.543l.043.012.227.054.156.04a3.02 3.02 0 0 1-.125-.5l.465.167c.03.153.078.305.136.454.813.203 1.621.414 2.426.636l.156.043c2.23.516 4.528.676 6.809.473 2.281-.203-.25-.156-.762-.453a44.76 44.76 0 0 0-.945-.528c-.426-.23-.855-.457-1.285-.683a100.47 100.47 0 0 0-4.453-2.152c-1.09-.497-2.192-.973-3.301-1.434a5.666 5.666 0 0 1-.965-.504 3.01 3.01 0 0 1-.531-.441c-.305-.56-2.106-3.766-4.117-4.7 0 0 .32 1.73.152 2.95-.172 1.082-.633 2.12-1.707 2.578v.004L0 12.824v.016l.125-.031c2.664-.68 5.535-.125 6.266.035Zm0 0"/><path fill="rgb(0%,50.980392%,72.941176%)" d="m14.672 15.387.492.043c-.223-.14-.418-.403-.555-.742-.156-.04-.316-.083-.476-.122.129.368.316.657.539.82Zm0 0"/><path fill="rgb(0%,50.980392%,72.941176%)" d="M13.328 15.273c-.226-.226-.402-.59-.5-1.023l-.336-.082c-.039-.008-.078-.016-.117-.027.086.46.258.843.48 1.093Zm0 0"/><path fill="rgb(0%,50.980392%,72.941176%)" d="m13.758 15.309.476.043c-.222-.188-.41-.5-.527-.891-.152-.035-.305-.074-.465-.113.11.418.29.754.516.96Zm0 0"/><path fill="rgb(0%,0%,0%)" d="M4.816 9.754s.52-.64 1.54-1.336a7.22 7.22 0 0 1 .664-.766l.097-.09c.008-.109.012-.222.016-.335-2.352 1.039-3.38 2.527-3.38 2.527 0 .285.013.57.04.851l1.039-.398c-.008-.156-.016-.305-.016-.453Zm0 0"/><path fill="rgb(0%,0%,0%)" d="M13.84 6.352c-.016.011-.035.023-.05.035a7.425 7.425 0 0 0-.438.324l-.043.035c4.007.445 6.082 3.008 6.082 3.008 0 .793-.149 1.707-.414 2.625l.753.363.192.098a9.237 9.237 0 0 0 .531-3.086c0-1.05-1.941-2.816-6.613-3.402Zm0 0"/><path fill="rgb(0%,0%,0%)" d="M11.332 8.906a1.449 1.449 0 0 1-.043-.43c.012-.18.05-.355.117-.523.067-.176.156-.344.258-.5.11-.164.23-.324.363-.469.133-.152.278-.296.426-.433a8.778 8.778 0 0 1 .93-.742c.281-.196.57-.383.863-.555.504-.3 2.223-.188 2.223-.188l1.992-1.18c-.555.098-1.055.173-1.504.235a24.01 24.01 0 0 1-1.207.137c-.527.05-1.055.066-1.578.039-.715-.043-.828-.192-.828-.192l.32 1.293a18.005 18.005 0 0 0-2.121.508 12.55 12.55 0 0 0-.895.313 9.65 9.65 0 0 0-.8.34c-.051.023-.102.05-.153.074.606.71 1.153 1.472 1.637 2.273Zm0 0"/><path fill="rgb(0%,0%,0%)" d="M7.793 7.895a6.3 6.3 0 0 0-.984 1.094 5.3 5.3 0 0 0-.446.745 3.329 3.329 0 0 0-.277.743c1.074-.461 1.535-1.5 1.707-2.582Zm0 0"/><path fill="rgb(0%,0%,0%)" d="m17.191 15.367-.156-.043c-.805-.222-1.613-.433-2.426-.636.137.34.332.601.555.742l-.492-.043c-.223-.164-.41-.453-.54-.82-.112-.028-.171-.044-.382-.094l-.043-.012c.117.39.305.703.527.89l-.476-.042c-.227-.207-.406-.543-.516-.961a18.621 18.621 0 0 1-.414-.098c.098.434.274.797.5 1.023l-.473-.039c-.222-.25-.394-.632-.48-1.093-.11-.024-.754-.176-1.21-.278-.466-.105-.93-.21-1.395-.308-1.774-.375-2.653-1.235-2.653-1.235.078.27.203.524.371.754-.218-.043-.441-.09-.664-.133-.047-.007-.094-.02-.14-.03l-.114-.024-.015-.004a2.495 2.495 0 0 1-.164-.04C5.648 12.68 2.695 12.11 0 12.84a10.392 10.392 0 0 1 2.598-.274c.441.008.882.04 1.32.098.512.07 1.016.172 1.516.309.265.074.543.164.828.261a13.268 13.268 0 0 1 1.836.805c.347.184.691.375 1.023.582.363.223.738.426 1.125.606a14.493 14.493 0 0 0 2.762.95l-.336.335.777-.235c.207.047.418.086.625.125l.028.004-.176.504 1.015-.375c.149.02.301.035.446.05v.724l1.672-.606c.086.004.175.004.261.008l-.265.562.875-.558a24.12 24.12 0 0 0 3.02-.219l.21-.027a20.86 20.86 0 0 0 1.54-.282c.437-.093.874-.207 1.3-.347a21.569 21.569 0 0 1-6.809-.473Zm-.718.168c-.75-.09-.32-.008-.793-.336l1.879.332s-.336.09-1.086.004Zm0 0"/><path fill="rgb(0%,0%,0%)" d="M12.105 20.117a15.495 15.495 0 0 0 3.723-1.96c.059-.134.121-.27.18-.395-.055.02-.38.125-.73.238a14.524 14.524 0 0 1-3.173 1.797c-2.043-.852-3.777-2.043-4.984-3.563a10.362 10.362 0 0 1-1.39-2.433c-.391-.13-.79-.235-1.192-.317.375.856.863 1.657 1.445 2.387 1.32 1.656 3.364 3.254 6.121 4.246Zm0 0"/></svg>