<svg xmlns="http://www.w3.org/2000/svg" width="24" height="24" fill-rule="evenodd" stroke-linejoin="round" stroke-miterlimit="2" clip-rule="evenodd" viewBox="0 0 24 24" xml:space="preserve"><path fill="#592b8c" fill-rule="nonzero" d="m23.17 20.738.594.545-.325.261a9.593 9.593 0 0 1-4.441 1.859 12.983 12.983 0 0 0 3.87-2.39l.302-.275Zm.623-8.284-.398 2.747-.481-.035-.079 1.293-.537.19-.265.738s-.68.923-.91 1.189l-.146.151 1.873 1.723-.318.298C20.264 22.876 17.242 24 13.795 24H7.477l3.181-5.169-.293-.18c-1.484-.916-2.605-2.188-3.241-3.679l-.056-.133L.25 20.012l6.304-6.999-.001-.018c.008-.787.353-1.758.639-2.264.443-.785 1.592-2.121 3.488-3.518.58-.419 1.194-.789 1.834-1.108.286-.115.591-.176.899-.182h.002c.496.002 1.069.18 1.536.369 0 0 2.814-2.442 3.516-3.048C19.879 2.022 22.379 0 22.379 0S21.087 1.586 19.8 3.09c-.689.805-3.81 4.269-3.81 4.269l-.08.708c-.016.138-.325.319-.327.252.001-.093-.005-.975-.007-1.206a.1.1 0 0 0-.044-.079l-1.217-.643s.915.762.932.778a.132.132 0 0 1 .039.083c.004.168.044 1.155.032 1.274-.012.119-.385.356-.39.261l-.066-1.252a.077.077 0 0 0-.039-.063l-1.124-.637.832.746a.112.112 0 0 1 .033.071c.015.232.087 1.287.092 1.341.001.112-.44.408-.445.309l-.097-1.19a.117.117 0 0 0-.057-.095l-1.132-.739s.775.757.801.787a.189.189 0 0 1 .057.117l.18 1.408c.006.056-.167.214-.334.278a8.626 8.626 0 0 1-.166.173l-2.09 2.253c.092.07.182.143.182.143.73.648 1.382 1.55 1.755 2.135.159.027 3.477.557 3.539.566.489-3.695 2.239-5.366 2.239-5.366.111-.111.228-.215.351-.313.256.098.442.188.442.188 1.655.78 3.667 2.586 3.752 2.662l.16.145Zm-8.427-5.975s.445.168.567.321l4.541-4.903-5.108 4.582Zm-5.289 5.414.269.93 2.93-3.159.172-.019a.039.039 0 0 0 .034-.038l-.001-.009c-.036-.184-.157-.772-.195-.983a.13.13 0 0 0-.076-.108c-.322-.152-1.749-.78-1.615-.953.143-.184 1.096-1.085 1.096-1.085-.618.309-1.21.667-1.77 1.07-1.935 1.426-2.991 2.708-3.376 3.391a6.7 6.7 0 0 0-.474 1.223l3.912-4.101c.664.146 1.312.354 1.937.621l-2.16 1.939-.305-1.138-7.948 8.455 7.57-6.036ZM8.202 23.595l4.045-4.784.011-2.424-3.3-2.743-.641.503c.964 1.7 2.932 3.024 2.932 3.024l-.004 1.479-3.043 4.945Zm12.523-4.549c-2.264 2.706-7.983 3.422-7.983 3.422s3.507-3.136 4.06-6.767l.018-.155-3.498-.557v4.07l-3.993 4.536h4.466c1.344 0 5.266-.147 8.459-3.142l-1.529-1.407Zm2.636-6.436s-2.032-1.833-3.653-2.596c.537.609 2.09 2.179 2.09 2.179l.118 1.996.228.268-.659.401-.968-1.56a8.87 8.87 0 0 0-1.823 2.682l-.973-.146s-.208 1.656-1.429 3.673l.044-.033a6.179 6.179 0 0 0 2.026-2.608c.426-1.038 1.331 1.218 1.451 1.316.08.064.166.119.258.165.128.057.27.079.41.065a.463.463 0 0 0 .336-.101 6.33 6.33 0 0 0 .39-.504l-.459-.53.085-.242.6.376.233-.232-.94-.585-.541.152.138-.324.4-.231.783.576.247.171.166-.434-.355-.327-.014-.231.656.305.241-.085.088-1.434.513.037.313-2.159Zm-1.829 1.28.081-1.546c-.326.251-.64.517-.939.799l.858.747Z"/></svg>