<svg xmlns="http://www.w3.org/2000/svg" width="24" height="24" viewBox="0 0 24 24"><path fill="rgb(100%,100%,100%)" d="m19.996 18.453-1.32.77-.2.113-.105.062-6.371 3.7-6.48-3.762L4 18.453a5.128 5.128 0 0 1-2.543-3.922l4.867-1.996-.328-6.926 1.035-.14A6 6 0 0 1 8.328 3.55C8.645 1.695 9.938.812 9.938.812h4.12s1.294.883 1.61 2.739c.7.68 1.094 1.449 1.3 1.914L18 5.609l-.328 6.926 4.867 1.996a5.128 5.128 0 0 1-2.543 3.922Zm-1.734-6.293.332-7.047-1.239-.168a6.706 6.706 0 0 0-1.16-1.672C15.793 1.328 14.441.383 14.383.34l-.145-.098h-4.48L9.613.34c-.058.043-1.41.988-1.812 2.933a6.59 6.59 0 0 0-1.156 1.672l-1.243.168.332 7.047L.84 14.168l.05.426a5.722 5.722 0 0 0 2.825 4.351l1.52.883L12 23.758l6.766-3.93 1.515-.883a5.715 5.715 0 0 0 2.824-4.347l.051-.43Zm0 0"/><path fill="rgb(4.705882%,13.72549%,25.098039%)" d="m17.246 7.633-.266-.91s-1.574-.336-3.332-1.477c.125.07 2.079.883 3.153 1.094.09.02.398.047.504.055Zm-1.98 2.047-1.926.93-.219-.301 1.852-.891v-.434l.656-.336Zm-2.305 5.875-.106-4.575.36.168.098 4.282Zm-1.3-11.82-.786-2.383h2.137l-.785 2.382ZM12 23.101l-6.48-3.766-1.118-.648c-1.746-1.696-2.144-3.708-2.152-3.743l3.762-1.543c.656 1.52 2.144 3.504 5.988 6.297Zm-1.32-11.954.363-.168-.105 4.575-.352-.125Zm.09-.847-.22.297-1.929-.926-.351-1.035.652.336v.433ZM7.113 6.42s3.657-1.042 4.82-2.015v5.602L7.466 7.73l.785 2.278 2.016.96-.098 4.216-3.207-3.602-.274-5.11Zm3.63-3.69.487 1.492c-.972.59-2.652 1.164-3.59 1.445.313-.828 1.176-2.363 3.102-2.938ZM18 5.608l-1.031-.14a6.053 6.053 0 0 0-1.301-1.918C15.352 1.695 14.063.812 14.063.812H9.936s-1.292.883-1.609 2.739c-.7.68-1.094 1.449-1.297 1.914l-1.035.144.328 6.926-4.867 1.996A5.128 5.128 0 0 0 4 18.453l1.52.883L12 23.098l6.371-3.7c.098-.09 2.031-1.707 2.723-4.367L18.44 13.59l3.305 1.355c-.008.035-.406 2.047-2.148 3.739l-.922.539 1.32-.77a5.142 5.142 0 0 0 2.547-3.922l-4.867-1.996Zm0 0"/><path fill="rgb(100%,78.039216%,17.254902%)" d="m8.27 8.637.351 1.035 1.926.926.223-.301-1.848-.89v-.434Zm6.703.347.656-.34-.363 1.036-1.926.93-.219-.301 1.852-.895Zm0 0"/><path fill="rgb(0%,63.921569%,87.843137%)" d="M13.648 5.246c1.758 1.14 3.332 1.477 3.332 1.477l.266.906.063-1.234a6.857 6.857 0 0 1-.504-.055c-1.078-.211-3.032-1.024-3.157-1.094Zm-2.773-3.894.79 2.382h.562l.789-2.382Zm-.133 1.375C8.816 3.3 7.953 4.84 7.641 5.668c.937-.281 2.617-.856 3.59-1.445Zm11.004 12.218-3.305-1.355 2.653 1.441c-.688 2.66-2.625 4.278-2.723 4.367l.11-.062.195-.113.922-.54c1.742-1.69 2.14-3.703 2.148-3.738ZM6.012 13.402 2.25 14.945c.012.035.406 2.047 2.152 3.739l1.118.652L12 23.098v-3.399c-3.844-2.793-5.332-4.781-5.988-6.3Zm6.843-2.422.106 4.575.351-.125-.097-4.282Zm-1.812 0-.363.168-.094 4.282.351.125Zm-4.082.598-.274-5.105.426-.051s3.657-1.043 4.824-2.016v5.602L7.465 7.73l.789 2.278 2.012.96-.094 4.216Zm0 0"/></svg>