<svg xmlns="http://www.w3.org/2000/svg" width="24" height="24" viewBox="0 0 24 24"><path fill="rgb(100%,100%,100%)" d="M3.86 13.203c-.141.48-.06 1.133.324 1.715v.004l-.04-.031-.152-.114-.137-.117-.132-.12-.121-.126-.114-.125-.101-.129-.094-.133-.082-.132-.074-.137-.059-.137-.055-.137-.039-.14-.027-.14-.02-.142-.003-.144.007-.133.02-.125.027-.11.043-.1.055-.09.062-.087.075-.074.086-.07.097-.059.11-.054.117-.047.129-.04.14-.034.149-.024.164-.02.164-.007.18-.004.183.004.192.011.195.016c-.652.164-1.082.574-1.27 1.332Zm10.902 6.594c.168-.79.25-1.598.25-2.41 1.89-.04 2.949-.215 3.472-.332.328-.07.438-.102.438-.102-1.32 2.11-4.16 2.844-4.16 2.844Zm.418-.477c.703-.258 2.008-.84 2.953-1.863-.93.148-1.867.23-2.805.25-.015.54-.062 1.078-.148 1.613Zm-6.192-1.933c0 .812.082 1.62.25 2.41 0 0-2.847-.746-4.164-2.856 0 0 .051.016.188.055.39.102 1.457.344 3.726.39ZM8.82 19.32a13.172 13.172 0 0 1-.148-1.613 20.386 20.386 0 0 1-2.8-.25c.94 1.027 2.245 1.605 2.948 1.863Zm10.922-4.343.125-.086.149-.114.136-.117.133-.12.121-.126.114-.125.101-.129.094-.133.082-.132.074-.137.063-.137.046-.137.043-.14.028-.14.02-.142.003-.144-.004-.133-.023-.125-.031-.11-.043-.1-.055-.09-.063-.087-.078-.074-.086-.07-.097-.059-.11-.054-.12-.047-.134-.04-.14-.034-.152-.024-.165-.02-.168-.007-.18-.004-.183.004-.191.011-.18.016c.656.16 1.09.57 1.277 1.332.114.496.008 1.176-.406 1.774Zm-5.46 4.925a4.76 4.76 0 0 0 .144-.66l.015-.086.028-.191.011-.102.016-.113.012-.117.015-.121.012-.13.012-.132.012-.145.023-.296.004-.157v-.16l-.004-.168-.004-.172-.012-.175-.023-.368-.016-.183-.02-.184-.038-.375-.047-.367-.02-.184-.027-.175-.023-.172-.028-.172-.023-.164-.024-.156-.023-.149-.024-.144-.023-.133-.02-.125-.023-.114-.016-.101-.015-.094-.016-.074-.035.023-.078.047-.047.028-.043.027-.047.027-.047.032-.05.03-.051.036-.102.062-.047.036-.054.03-.051.032-.047.035-.102.063-.046.035-.043.027-.086.063-.079.054-.003.004-.043.024-.043.031-.04.027-.042.028-.172.125-.043.035-.04.031-.042.031-.04.036-.042.03-.078.063-.07.063-.009.004-.324 5.015-.027.442-.027-.442-.32-4.98-.016-.012-.032-.031-.035-.031-.031-.028-.035-.035-.04-.027-.034-.035-.079-.063-.039-.035-.039-.031-.043-.031-.078-.063-.043-.031-.039-.031-.043-.028-.039-.027-.039-.024-.047-.027-.043-.031-.047-.028-.093-.062-.051-.031-.05-.035-.052-.032-.054-.035-.047-.031-.055-.031-.05-.036-.102-.062-.047-.035-.094-.063-.043-.027-.047-.027-.078-.055-.039-.024-.027-.015-.008.07-.02.094-.02.101-.019.114-.02.125-.023.136-.023.141-.024.149-.023.156-.023.164-.028.168-.047.351-.027.184-.02.184-.023.183-.039.375-.02.184-.015.183-.024.368-.011.175-.004.172-.004.168v.16l.004.157V17.8l.011.16.012.148.012.141.012.133.011.129.016.12.012.118.011.113.016.102.016.098.011.09.028.171.039.211c.012.055.027.11.039.164.008.051.023.106.039.156l.031.098 2.235 2.324 2.285-2.324a.227.227 0 0 0 .02-.05Zm-6.84-.382a8.697 8.697 0 0 1-3.176-2.977h-.008l-.223-.09-.215-.09-.207-.097-.203-.098-.195-.11-.192-.109-.183-.113-.176-.117-.168-.121-.144-.106.117.301.16.363.176.371.199.375.219.375.242.375.265.375.29.368.312.359.344.351.363.34.399.325.421.308.454.29.484.269.52.246.55.222.582.192.621.164.653.133.695.093.66.055-1.336-1.387a11.263 11.263 0 0 1-2.3-.835Zm13.902-3.801-.176.117-.184.113-.191.11-.195.109-.203.098-.207.097-.438.18-.012.004a8.811 8.811 0 0 1-3.23 2.973c-.715.359-1.469.64-2.242.832l-1.364 1.382.551-.047.707-.093.664-.133.633-.164.594-.195.562-.22.528-.245.492-.27.46-.289.43-.312.403-.32.37-.34.349-.352.32-.36.293-.367.265-.375.247-.375.222-.375.2-.375.18-.37.16-.364.116-.297-.136.102ZM.714 1.715l-.007-.09h22.594l-.012.09-.016.18-.02.226-.026.27-.032.304-.03.34-.036.371-.04.399-.038.425-.043.446-.043.465-.047.476-.047.492-.047.496-.14 1.512-.047.5-.047.488-.043.48-.043.466-.04.445-.038.406-.094-.066-.152-.098-.164-.093s-.004 0 0 0l-.008-.004-.11-.047a4.461 4.461 0 0 0-1.425-.328l-.239-.012h-.285l-.3.012-.32.023-.337.04-.347.054-.372.066-.367.074-.363.086-.262.067a.904.904 0 0 0 .239-.602.836.836 0 0 0-.07-.336l-.825.336.555-.699a.902.902 0 0 0-.57-.21.887.887 0 0 0-.883.882v.027a.9.9 0 0 0 .66.883l-.192.066-.312.122-.301.125-.289.125-.277.132-.27.133-.258.137-.246.137-.086.05a7.114 7.114 0 0 0-.465-.707 14.884 14.884 0 0 1 2.934-2.34c1.957-1.195 4.086-1.765 4.086-1.765l-.195 2.816c.382.004.761.078 1.12.219l.305-4.285s-2.855.457-5.71 2.39c-1.676 1.188-2.536 2.07-2.907 2.5a11.022 11.022 0 0 0-.578-.628c.695-.735 2.66-2.7 4.774-3.75 2.683-1.368 4.59-1.707 4.59-1.707l.222-2.22c-2.129.798-4.871 2.048-6.66 3.755-1.735 1.668-2.684 3.035-3.098 3.758a8.494 8.494 0 0 0-.578-.489 9.435 9.435 0 0 0-.566.48c-.418-.726-1.375-2.085-3.153-3.75-1.73-1.706-4.476-2.956-6.601-3.753l.222 2.219s1.903.34 4.536 1.707c2.175 1.058 4.132 3.05 4.796 3.773-.195.191-.378.39-.554.598-.375-.43-1.246-1.309-2.957-2.492C4.922 6.378 2.07 5.921 2.07 5.921l.297 4.289a3.104 3.104 0 0 1 1.078-.219l-.144-2.82s2.125.57 4.086 1.766a15.032 15.032 0 0 1 2.922 2.332c-.172.23-.329.468-.473.718l-.094-.054-.242-.137-.254-.137-.266-.133-.277-.132-.285-.125-.3-.125-.31-.122-.19-.066a.92.92 0 0 0 .679-.883.918.918 0 0 0-.516-.82.92.92 0 0 0-.965.113l.57.707-.84-.324a.927.927 0 0 0-.054.324.9.9 0 0 0 .211.598l-.238-.063-.363-.086-.372-.074-.367-.066-.351-.055c-.063-.008-.13-.012-.196-.02l-.136-.019-.32-.023-.301-.012h-.286l-.218.012a4.28 4.28 0 0 0-1.57.386l-.157.086-.152.094-.098.07-.035-.406-.04-.445-.042-.465-.043-.48-.047-.489-.047-.5-.14-1.512-.047-.496-.047-.492-.043-.476L1 4.676.957 4.23l-.039-.425-.04-.399-.034-.37-.031-.34L.78 2.39l-.023-.27-.024-.226-.015-.18Zm3.536.62c1.68.798 3.469 1.821 4.813 3.13 1.457 1.426 2.351 2.617 2.914 3.473.496-.766 1.507-2.047 2.964-3.473 1.344-1.309 3.133-2.332 4.817-3.13Zm8.285 9.388c.281-.168.672.23.672.511 0 .106.02.211.059.309l.109-.07.2-.133.179-.117c-.027-.051-.055-.106-.086-.157l-.063-.105a3.046 3.046 0 0 0-.18-.277l-.034-.047a8.06 8.06 0 0 0-1.114-1.27c.004 0-.289-.258-.289-.258l-.043.036a7.64 7.64 0 0 0-1.406 1.601l-.059.082c-.015.027-.035.059-.054.09a5.1 5.1 0 0 0-.176.32l.156.102.196.133.128.09a.868.868 0 0 0 .07-.329c0-.28.337-.68.673-.507.222.168.336.625 0 .793-.137.09-.25.203-.336.34l.133.1.136.114.125.102.114.097.097.086.09.079.07.07.063.055.012.015.074-.074.078-.066.086-.079.101-.086.114-.097.129-.102.136-.113.153-.113.011-.012a1.191 1.191 0 0 0-.324-.316c-.336-.168-.281-.625 0-.793Zm10.356.18-.059-.114-.062-.113-.075-.11-.086-.109-.093-.102-.102-.101-.113-.098-.125-.09-.133-.086-.148-.082-.16-.074-.176-.066-.184-.063-.203-.05-.211-.043-.23-.032-.243-.023-.261-.016h-.274l-.293.012-.305.027-.328.035-.34.051-.359.067-.367.074-.356.082-.343.09-.332.101-.328.106-.313.113-.305.117-.296.121-.282.125-.273.13-.262.128-.254.133-.238.133-.23.136-.22.133-.206.13-.196.128-.187.129-.164.117-.156.117-.008.008-.149.11-.136.109-.122.102-.113.093-.097.082-.086.078-.07.067-.06.055-.046.043-.035.03-.02.024-.105.106a9.643 9.643 0 0 0-.2-.203l-.058-.06-.07-.065-.082-.075-.098-.086-.11-.09-.12-.101-.133-.11-.305-.23-.168-.125-.18-.125-.191-.129-.207-.129-.215-.133-.227-.136-.238-.133-.25-.133-.262-.129-.27-.129-.28-.125-.293-.12-.301-.122-.317-.11-.324-.105-.332-.101-.344-.09-.355-.082-.363-.074h-.004.004-.02.016l-.356-.067-.343-.05-.325-.04-.308-.023-.29-.012-.277.004-.257.012-.247.023-.226.032-.215.043-.2.05-.187.063-.172.066-.16.074-.148.082-.137.086-.125.09-.113.098-.102.101-.09.102-.085.11-.075.109-.066.113-.059.113-.047.114-.043.117-.035.117-.027.113-.02.114-.011.113-.012.11v.105l.004.105.012.106.02.109.026.117.04.117.042.121.055.122.059.125.07.128.078.125.082.13.09.128.102.133.105.129.117.129.121.125.13.129.136.12.14.126.15.121.155.121.164.113.172.114.176.113.184.105.187.098.195.098.204.093.203.09.215.082.218.078.223.07.297.087.3.074.305.066.309.059.309.047.308.043.309.035.308.027.309.024.3.015.301.012.293.004h.29l.285-.004.152-.004.008-.133.031-.375.008-.109-.13.008h-.218l-.226.008h-.723l-.254-.008h-.008l-.25-.012-.254-.023-.246-.032-.246-.039-.238-.047-.234-.05-.231-.059-.227-.066-.218-.07-.219-.079-.207-.086-.2-.09-.195-.093-.191-.102-.18-.105-.172-.114-.168-.117-.16-.12-.148-.126-.14-.129-.134-.133-.12-.14-.11-.14-.106-.145-.09-.149-.081-.152-.07-.153-.06-.156-.046-.164-.031-.16-.02-.164-.008-.168.008-.16.023-.156.043-.145.055-.133.07-.12.086-.114.098-.102.11-.086.12-.078.133-.066.141-.055.152-.047.157-.035.164-.027.175-.02.18-.011.188-.004.195.004.2.011.206.02.211.027.215.031.223.04.222.042.23.051.235.055.234.058.239.067.238.07.484.156.243.082.02.008-.013-.004.235.09.234.098.23.098.22.101.214.106.211.101.2.106.195.105.066.04.121.07.18.105.172.105.168.106.16.101.148.102.145.098.137.097.117.086.004.004.043.027.043.032.046.03.086.063.043.036.043.03.043.036.043.031.04.035.042.036.04.03.038.036.04.031.035.035.035.028.07.062.059.059.027.023.047.047.02.016.015-.016.05-.047.06-.05.066-.06.074-.062.086-.066.09-.078.101-.078.106-.082.117-.09.125-.09.133-.094.137-.097.148-.098.152-.102.16-.105.169-.106.175-.101.184-.11.191-.105.196-.105.203-.106.21-.101.216-.106.222-.101.227-.098.234-.098.242-.094.239-.082.476-.156.238-.07.235-.063.23-.062.235-.055.226-.05.227-.044.219-.039.214-.03.215-.028.203-.02.203-.011.196-.004.187.004.184.011.176.02.164.027.164.035.148.047.145.055.129.066.125.074.113.09.098.102.09.11.07.124.058.133.04.145.023.156.012.16-.008.168-.02.164-.035.164-.047.16-.055.156-.074.153-.078.152-.09.149-.105.144-.11.14-.125.141-.132.133-.141.13-.148.124-.157.121-.168.117-.172.114-.183.105-.188.102-.195.093-.203.09-.207.086-.215.078-.219.07-.226.067-.23.059-.235.05-.242.047-.242.04-.25.03-.25.024-.254.012h-.004l-.254.004-.25.004h-.242l-.235-.004-.226-.004h-.223l-.125-.008.012.11.015.187.012.187.008.133.133.004.285.004h.293l.297-.004.3-.012.305-.015.309-.024.312-.027.309-.035.312-.043.309-.047.309-.059.304-.066.305-.074.297-.086.223-.07.218-.079.211-.082.207-.09.203-.093.196-.098.187-.101.184-.102.176-.113.168-.11.164-.117.156-.121.152-.121.14-.125.137-.121.13-.13.12-.124.114-.129.11-.129.1-.133.09-.129.087-.129.074-.125.066-.128.063-.125.05-.122.047-.12.035-.118.032-.117.02-.11.01-.105.005-.105-.004-.106-.008-.11-.015-.112-.02-.114-.027-.113-.036-.117-.039-.117Zm0 0"/><path fill="rgb(8.235294%,12.156863%,42.745098%)" d="M.133 1.195.285 2.81c.2 2.132.555 5.914.766 8.312a2.477 2.477 0 0 0-.688 1.715c.004.672.41 1.469 1.13 2.203.054.059.112.117.171.172.371 1.133.918 2.2 1.621 3.16 1.492 2.008 4.004 3.813 8.094 3.961l.621.633.629-.64c4.059-.18 6.559-1.966 8.05-3.954a11.106 11.106 0 0 0 1.63-3.137c.07-.062.136-.129.203-.195.715-.734 1.12-1.531 1.125-2.203a2.454 2.454 0 0 0-.696-1.727c.118-1.3.274-3 .426-4.625.164-1.761.332-3.523.5-5.289l.016-.16H.117Zm10.285 20.492-.695-.093-.653-.133-.62-.164-.583-.192-.55-.222-.52-.246-.484-.27-.454-.289-.421-.308-.399-.325-.363-.34-.344-.351-.312-.36-.29-.367-.265-.375-.242-.375-.22-.375-.198-.375-.176-.37-.16-.364-.117-.3.144.105.168.12.176.118.183.113.192.11.195.109.203.098.207.097.215.09.223.09h.008A8.697 8.697 0 0 0 7.44 19.52c.735.363 1.508.64 2.301.835l1.336 1.387Zm-1.18-1.89s-2.847-.746-4.164-2.856c0 0 .051.016.188.055.39.102 1.457.344 3.726.39 0 .813.082 1.622.25 2.41Zm-5.054-4.879v.004l-.04-.031-.152-.114-.137-.117-.132-.12-.121-.126-.114-.125-.101-.129-.094-.133-.082-.132-.074-.137-.059-.137-.055-.137-.039-.14-.027-.14-.02-.142-.003-.144.007-.133.02-.125.027-.11.043-.1.055-.09.062-.087.075-.074.086-.07.097-.059.11-.054.117-.047.129-.04.14-.034.149-.024.164-.02.164-.007.18-.004.183.004.192.011.195.016c-.652.164-1.082.574-1.27 1.332-.14.48-.058 1.133.325 1.715Zm-.02-1.621c.04-.172.102-.332.188-.488.191-.25.812-.856 2.168-.625l.132.035.235.062.234.07.234.075.239.078.246.086.219.082.23.098.227.097.214.098.211.101.204.102.195.102.2.109.05.031.008.004a.324.324 0 0 0-.024.082l-.011.066-.016.09-.063.348-.02.133-.027.14-.046.313-.024.164-.027.172-.047.355-.027.18-.02.191-.023.18-.016.14-.137.009-.437.007-.23.004h-.239l-.242-.004-.254-.004-.238-.011-.242-.024-.243-.03-.23-.036-.235-.043-.218-.05-.211-.056c-.739-.214-1.172-.523-1.406-.753a1.498 1.498 0 0 1-.254-.332c-.301-.516-.317-1.028-.227-1.348Zm7.813 8.98-2.235-2.324-.031-.098a1.016 1.016 0 0 1-.04-.156 2.496 2.496 0 0 1-.038-.164 15.227 15.227 0 0 1-.067-.379l-.015-.093-.012-.098-.016-.102-.011-.11-.012-.116-.016-.125-.011-.13-.012-.132-.012-.14-.023-.305v.004l-.004-.157v-.16l.004-.168.004-.172.011-.175.008-.184.031-.367.02-.184.04-.375.023-.183.019-.184.027-.184.024-.175.023-.172.028-.172.023-.164.023-.156.024-.149.023-.144.024-.133.02-.125.019-.114.02-.101.019-.094.008-.066.027.011.04.024.034.027.043.028.047.027.043.031.047.028.047.03.047.036.101.062.051.036.055.03.047.032.054.035.047.032.055.035.05.03.094.063.047.028.043.031.047.027.04.024.077.055.086.062.078.063.043.03.04.032.038.035.079.063.035.035.039.027.035.035.031.028.035.03.032.032.015.012.317 4.98.03.442.028-.438.324-5.015.008-.008.07-.063.079-.062.043-.031.039-.032.043-.035.039-.031.043-.035.172-.125.082-.055.043-.031.043-.024.007-.004.036-.027.039-.027.086-.063.043-.027.046-.035.051-.031.047-.032.05-.035.052-.031.054-.031.047-.036.102-.062.05-.035.051-.031.047-.028.043-.031.094-.055.078-.047.035-.023.016.074.015.094.016.101.024.114.019.125.023.136.024.141.023.149.024.156.023.164.028.168.023.176.027.175.02.184.047.367.039.375.02.184.03.367.008.184.008.175.008.172.004.168v.164l-.008.153c-.004.05-.004.101-.008.152l-.011.148-.012.141-.012.133-.012.129-.015.125-.012.113-.016.113-.011.102-.028.191-.015.086a4.734 4.734 0 0 1-.145.66.165.165 0 0 1-.02.051Zm8.171-9.074c-.187-.762-.62-1.172-1.277-1.332l.176-.016.195-.011.184-.004.18.004.167.008.165.02.148.023.144.03.133.044.121.047.11.054.097.059.086.07.078.074.063.086.055.09.043.102.03.11.02.124.008.133-.008.145-.015.14-.031.14-.04.141-.05.137-.059.137-.074.137-.082.132-.094.133-.101.13-.114.124-.12.125-.134.121-.14.117-.149.114-.12.086c.413-.598.519-1.278.405-1.774Zm-.656-.562a.883.883 0 0 1 .172.207c.078.132.137.28.172.437.074.324.043.84-.258 1.352a1.565 1.565 0 0 1-.316.402 2.598 2.598 0 0 1-.371.274c-.41.242-.86.414-1.328.507-.18.04-.36.07-.54.094l-.285.04-.16.015-.242.011-.254.004-.242.004h-.242l-.23-.004-.446-.007-.121-.004-.016-.149-.023-.183-.024-.18-.02-.184-.05-.351-.027-.176-.024-.16-.047-.313-.047-.277-.078-.438-.015-.082c-.004-.023-.008-.05-.016-.078l.059-.03.191-.106.2-.106.202-.098.211-.101.22-.098.222-.093.23-.098.219-.086c.004 0 .246-.086.246-.086l.234-.078.23-.074.235-.07.227-.063.086-.02c1.137-.21 1.765.16 2.07.446Zm-4.48 4.746c1.89-.04 2.949-.215 3.472-.332.328-.07.438-.102.438-.102-1.32 2.11-4.16 2.844-4.16 2.844.168-.793.25-1.598.25-2.41Zm6.636-1.89-.117.296-.16.363-.18.371-.203.375-.218.375-.247.375-.265.375-.297.368-.316.359-.348.351-.371.336-.403.325-.43.312-.46.29-.492.269-.528.246-.562.219-.594.195-.633.164-.664.133-.707.093-.55.047 1.359-1.382a10.704 10.704 0 0 0 2.246-.832 8.77 8.77 0 0 0 3.226-2.973l.016-.008.223-.086.215-.09.207-.097.203-.102.195-.105.191-.11.184-.113.176-.117.168-.121.136-.106Zm1.332-3.364.036.113.027.117.023.114.012.109.008.113.004.106-.004.101-.012.11-.02.109-.03.117-.036.117-.047.121-.05.122-.059.125-.07.125-.075.128-.085.13-.09.128-.102.13-.11.128-.113.129-.12.129-.13.125-.136.125-.14.125-.153.121-.156.117-.165.117-.167.114-.176.113-.184.101-.187.102-.196.098-.203.093-.207.09-.21.082-.22.078-.222.07-.297.087-.305.074-.304.066-.309.055-.309.05-.312.044-.309.035-.312.027-.309.024-.304.015-.301.008-.297.008h-.293l-.285-.004-.13-.004-.007-.133-.031-.375-.008-.109.125.004.219.004.226.004.235.004h.242l.25-.004.254-.004h.004l.254-.012.25-.023.25-.032.242-.039.242-.047.234-.05.23-.059.227-.066.22-.07.214-.079.207-.086.203-.09.195-.097.188-.098.183-.105.172-.114.168-.117.157-.12.148-.126.14-.129.133-.133.125-.14.11-.14.105-.145.09-.149.082-.152.07-.153.055-.16.047-.16.035-.16.02-.168.008-.164-.012-.164-.024-.152-.039-.145-.058-.133-.07-.125-.09-.113-.098-.098-.113-.09-.121-.078-.133-.062-.145-.055-.148-.047-.16-.035-.168-.027-.176-.02-.184-.011h-.187l-.196.003-.199.012-.207.016-.21.027-.22.031-.218.04-.227.042-.226.051-.23.055-.47.125-.476.148-.235.078-.242.086-.238.09-.238.098-.227.101-.222.102-.215.102-.211.101-.203.106-.196.105-.191.105-.18.11-.176.101-.168.106-.16.105-.156.102-.148.098-.137.097-.133.094-.121.094-.117.086-.11.082-.097.082-.094.074-.082.066-.078.067-.067.054-.058.051-.047.047-.02.016-.015-.016-.024-.02-.027-.027-.027-.023-.059-.059-.035-.031-.035-.027-.031-.032-.04-.035-.035-.031-.043-.035-.039-.031-.078-.07-.047-.032-.039-.031-.043-.035-.047-.036-.129-.093-.046-.032-.043-.027-.004-.004-.117-.086-.137-.097-.14-.098-.153-.102-.16-.101-.164-.106-.176-.105-.18-.106-.12-.07-.067-.035-.196-.11-.199-.101-.207-.105-.215-.102-.222-.102-.227-.101-.234-.098-.235-.09.008.004-.02-.004-.242-.086-.242-.078-.238-.078-.242-.07-.239-.063-.234-.062-.23-.055-.23-.05-.227-.044-.22-.039-.214-.03-.215-.028-.207-.016-.2-.012-.194-.004h-.184l-.184.012-.171.02-.168.027-.157.035-.152.047-.14.055-.13.066-.125.078-.109.09-.098.098-.086.113-.07.121-.055.137-.042.14-.02.157-.012.164.008.164.02.164.035.164.047.16.054.156.07.157.083.148.09.152.105.141.11.145.124.136.13.133.144.13.148.124.156.121.168.117.172.114.18.105.191.102.196.097.203.09.207.082.215.078.218.07.227.067.23.063.235.046.238.047.246.04.25.03.25.024.254.016h.004l.254.004h.723l.226-.004.219-.004.133-.008-.012.11-.031.374-.008.133-.074.004h-.078l-.282.008-.586-.008-.3-.012-.301-.015-.305-.024-.312-.027-.309-.031-.617-.094-.309-.059-.304-.066-.301-.074-.297-.082-.223-.075-.218-.074-.211-.086-.207-.09-.204-.09-.195-.097-.187-.102-.184-.105-.176-.113-.172-.11-.16-.117-.156-.117-.152-.121-.141-.125-.137-.125-.129-.13-.12-.124-.114-.129-.11-.129-.097-.129-.094-.133-.082-.125-.078-.129-.07-.128-.059-.125-.05-.122-.047-.12-.04-.118-.027-.117-.02-.11-.011-.105-.004-.105v-.106l.012-.11.011-.112.024-.114.027-.113.031-.117.043-.117.051-.114.055-.113.066-.113.075-.11.085-.105.09-.106.102-.101.117-.098.121-.09.137-.086.148-.082.16-.074.172-.066.188-.063.199-.05.215-.043.23-.032.243-.023.257-.012.278-.004.293.016.304.023.325.035.343.055.36.063.367.074.351.082.344.094.332.097.328.106.313.113.305.117.289.121.28.125.274.13.258.128.25.133.238.133.227.136.215.133.207.13.191.128.184.129.168.121.3.23.137.11.117.102.11.09.098.085.082.075.07.066.058.059.204.203.097-.102.008-.004.016-.02.035-.034.047-.043.058-.055.07-.067.087-.078.097-.082.113-.093.122-.102.136-.105.149-.114.008-.004.105-.082.219-.156.183-.129.196-.125.207-.133.218-.133.23-.132.24-.133.253-.137.262-.129.273-.129.281-.125.297-.12.305-.118.316-.113.325-.106.336-.097.343-.094.352-.082.367-.074.36-.067.343-.05.324-.036.305-.027.293-.012.274.004.261.012.246.023.227.032.215.043.199.05.188.063.171.066.16.074.149.082.137.086.12.09.118.098.102.101.09.106.085.105.075.11.125.226.046.114.043.117Zm-10.445.387c.13.082.238.19.324.316l-.011.012-.153.113-.136.113-.13.102-.113.094-.101.09-.086.078-.078.066-.059.059-.015.011-.012-.011-.063-.055-.07-.07-.09-.079-.097-.086-.114-.097-.125-.102-.133-.113-.136-.106c.086-.132.199-.25.336-.335.336-.168.222-.625 0-.797-.336-.168-.672.226-.672.511a.95.95 0 0 1-.07.329l-.13-.09-.195-.133-.156-.102a1.502 1.502 0 0 1 .082-.156c.027-.059.063-.113.094-.164l.054-.094.06-.078a7.877 7.877 0 0 1 1.405-1.605c.024-.016.043-.032.043-.032s.293.258.29.258c.413.383.788.809 1.113 1.27l.035.047c.062.09.125.18.18.277l.062.105a2 2 0 0 1 .086.157l-.18.117-.199.129-.11.074a.833.833 0 0 1-.058-.309c0-.285-.39-.68-.672-.511-.281.172-.336.629 0 .797ZM23.301 1.625l-.012.09-.016.18-.02.226-.026.27-.032.304-.03.34-.036.371-.04.399-.038.425-.043.446-.047.465-.043.476-.047.492-.047.496-.14 1.512-.047.5-.047.488-.043.48-.043.466-.04.445-.038.406-.094-.066-.152-.098-.164-.093s-.004 0 0 0l-.008-.004-.11-.047a4.461 4.461 0 0 0-1.425-.328l-.239-.012h-.285l-.3.012-.32.023-.337.04-.347.054-.372.066-.367.074-.363.086-.262.067a.904.904 0 0 0 .239-.602.836.836 0 0 0-.07-.336l-.825.336.555-.699a.902.902 0 0 0-.57-.21.887.887 0 0 0-.883.882v.027a.9.9 0 0 0 .66.883l-.192.066-.312.122-.301.125-.289.125-.277.132-.27.133-.258.137-.246.137-.086.05a7.114 7.114 0 0 0-.465-.707 14.884 14.884 0 0 1 2.934-2.34c1.957-1.195 4.086-1.765 4.086-1.765l-.195 2.816c.382.004.761.078 1.12.219l.305-4.285s-2.855.457-5.71 2.39c-1.676 1.188-2.54 2.07-2.907 2.5a9.578 9.578 0 0 0-.75-.792 8.494 8.494 0 0 0-.578-.489c-.27.207-.523.434-.766.676-.195.191-.378.39-.554.598-.375-.43-1.246-1.309-2.957-2.492-2.797-1.934-5.653-2.391-5.653-2.391l.301 4.289a3.104 3.104 0 0 1 1.078-.219l-.144-2.82s2.125.57 4.086 1.766a15.032 15.032 0 0 1 2.922 2.332c-.172.23-.332.468-.473.718l-.094-.054-.242-.137-.254-.137-.266-.133-.277-.132-.285-.125-.3-.125-.31-.122-.19-.066a.91.91 0 0 0 .163-1.7.911.911 0 0 0-.965.11l.57.707-.84-.324a.846.846 0 0 0-.054.324.9.9 0 0 0 .211.598l-.238-.063-.363-.086-.372-.074-.367-.066-.351-.055c-.067-.008-.13-.012-.196-.02l-.136-.019-.32-.023-.301-.012h-.286l-.218.012a4.28 4.28 0 0 0-1.57.386l-.157.086-.152.094-.098.07-.035-.406-.04-.445-.042-.465-.043-.48-.047-.489-.047-.5-.14-1.512-.047-.496-.047-.492-.043-.476L1 4.676.957 4.23l-.039-.425-.04-.399-.034-.37-.031-.34L.78 2.39l-.023-.27-.024-.226-.02-.18-.007-.09ZM5.66 10.723h.019Zm0 0"/><path fill="rgb(0%,51.764706%,23.921569%)" d="M4.39 14.645c-.3-.516-.316-1.028-.226-1.348.04-.172.102-.332.188-.488.191-.25.812-.856 2.168-.625l.132.035.235.062.234.07.234.075.239.078.246.086.219.082.23.098.227.097.214.098.211.101.204.102.195.102.2.109.05.031.008.004a.324.324 0 0 0-.024.082l-.011.066-.016.09-.063.348-.02.133-.027.14-.046.313-.024.164-.027.172-.047.355-.027.18-.02.191-.023.18-.016.14-.137.009-.437.007-.23.004h-.239l-.242-.004-.254-.004-.238-.011-.242-.024-.243-.03-.23-.036-.235-.043-.218-.05-.211-.056c-.739-.214-1.172-.523-1.406-.753a1.498 1.498 0 0 1-.254-.332Zm13.036-2.45-.086.024-.227.062-.23.067-.235.074-.234.078-.246.086-.219.086-.23.098-.223.093-.215.098-.215.101-.203.102-.195.102-.195.105-.059.031a.624.624 0 0 1 .016.082l.02.079.073.437.047.277.047.313.024.16.027.176.05.351.024.184.02.184.027.183.012.145.12.004.446.007.23.004h.243l.246-.004.25-.004.242-.011.16-.016.29-.039c.179-.023.359-.055.535-.094a4.253 4.253 0 0 0 1.328-.508 2.58 2.58 0 0 0 .37-.273c.13-.117.239-.25.321-.402.297-.512.332-1.028.254-1.352-.031-.156-.09-.3-.172-.437a.867.867 0 0 0-.168-.207c-.3-.286-.933-.657-2.07-.446Zm.094-5.761c2.683-1.368 4.59-1.707 4.59-1.707l.222-2.22c-2.129.798-4.871 2.048-6.66 3.755-1.735 1.668-2.684 3.031-3.098 3.758.059.054.114.109.172.164.695-.735 2.66-2.7 4.774-3.75Zm-9.243-.172c-1.73-1.707-4.476-2.957-6.601-3.754l.222 2.219s1.903.34 4.536 1.707c2.175 1.058 4.132 3.05 4.796 3.77.063-.063.133-.126.2-.192-.418-.727-1.375-2.086-3.153-3.75Zm3.7 2.676c.496-.766 1.507-2.047 2.964-3.473 1.344-1.309 3.137-2.332 4.817-3.13H4.25c1.68.798 3.469 1.821 4.816 3.13 1.454 1.426 2.348 2.617 2.91 3.473ZM5.87 17.456c.941 1.027 2.246 1.605 2.95 1.863a13.172 13.172 0 0 1-.15-1.613 20.386 20.386 0 0 1-2.8-.25Zm12.262 0c-.93.148-1.867.23-2.805.25-.015.54-.062 1.078-.148 1.613.703-.258 2.008-.84 2.953-1.863Zm0 0"/></svg>