<svg xmlns="http://www.w3.org/2000/svg" width="24" height="24" fill-rule="evenodd" stroke-linejoin="round" stroke-miterlimit="2" clip-rule="evenodd" viewBox="0 0 24 24" xml:space="preserve"><path fill="#f67011" fill-rule="nonzero" d="M13.613 15.145a.316.316 0 0 0-.187-.153c-.383-.164-.969-.195-1.121.012a.498.498 0 0 0-.07.156c-.122.367-.2.75-.235 1.137a5.129 5.129 0 0 0-.234-1.137.561.561 0 0 0-.07-.156c-.153-.207-.739-.176-1.122-.012a.326.326 0 0 0-.187.153c-.125.222-.227.46-.293.71-.047.18-.074.368-.082.555.085-.399.266-.772.527-1.086l.168.781c.082.368.121.75.258.997l.2-.34.3.37.281-.355.254.364.254-.364.281.356.305-.371.195.34c.133-.247.18-.63.258-.997l.168-.78c.262.312.441.687.527 1.085a2.888 2.888 0 0 0-.078-.555 3.093 3.093 0 0 0-.297-.71ZM7.059 6.727l.082-.512 3.03-.793a.044.044 0 0 1 .04.008c.012.008.02.02.02.035l.269 2.45a.045.045 0 0 1-.023.046l-1.25.672-.954-.266-.796-1.082-1.13 2.934a.19.19 0 0 0-.015.094l.027.89 1.184-2.652.18.894 1.363-.09.406.364.742-.469-.41-.5a.04.04 0 0 1-.011-.028c0-.012.005-.023.015-.031.016-.02.04-.023.059-.007l1.261.847h1.704l1.261-.847a.042.042 0 0 1 .028-.01c.014 0 .027.006.035.017a.042.042 0 0 1 0 .059l-.41.5.742.473.406-.368 1.367.09.18-.894 1.18 2.652.027-.89a.203.203 0 0 0-.016-.094l-1.129-2.934-.796 1.082-.95.266-1.254-.672a.045.045 0 0 1-.023-.047l.27-2.45c0-.015.007-.027.02-.034.01-.008.026-.012.038-.008l3.031.793.082.512.985.703.441 1.078 1.242-.766-1.593-1.008-1.68-1.316-2.773-1.106L12 4.7l-1.559-.386-2.777 1.105-1.68 1.316-1.593 1.008 1.246.766.437-1.078.985-.704Zm6.183 1.703L12 9.059l-1.242-.63c-.016-.007-.024-.023-.016-.038l.012-.016c.008-.004.016-.004.023-.004.399.11.809.172 1.223.18a4.96 4.96 0 0 0 1.223-.18c.015 0 .03.008.035.02.008.015 0 .03-.016.039Zm-2.566-.657-.102-2.136c-.004-.004 0-.008.004-.012s.008-.004.012-.004h.008l.007.008.774 1.918-.703.223v.003Zm2.648 0-.703-.226.774-1.918c.003-.008.011-.012.02-.008.007 0 .015.008.015.016l-.102 2.136h-.004ZM8.406 5.59l1.797-.93L12 5.336l1.8-.68 1.794.93c.011.008.015.016.015.027 0 .012-.004.024-.015.028-.008.004-.016.004-.02 0l-1.918-.582L12 5.87l-1.656-.812-1.914.582-.008.004c-.012 0-.024-.012-.027-.024-.004-.012 0-.027.011-.031v.001Z"/><path fill-rule="nonzero" d="m20.305 9.672.074-.293-.434-.172 1.86-1.137-2.059.14.945-.675-2.199-1.215-1.527-1.347-3.18-1.328L12 4.078l-1.785-.433-3.18 1.328L5.508 6.32l-2.2 1.215.95.676-2.063-.14 1.86 1.136-.434.172.074.293-2.172.324 2.008.785-1.77 1.086 1.606.344.113.73-1.292 1.188 1.414-.031.066.43.8.222-.257.617 3.523 1.985 2.008 3.039L12 19.953l2.258.438 2.008-3.04 3.527-1.984-.262-.617.801-.223.066-.43 1.415.032-1.29-1.188.11-.73 1.605-.344-1.77-1.086 2.009-.785-2.172-.324Zm-.223 1.605.93.383-1.012.102-.21 1.293.8.554-.88-.168-.085.516-1.063.297.29.762-3.082 1.957-1.993 2.527h-3.554L8.23 16.973l-3.082-1.957.29-.762-1.063-.297-.086-.516-.879.168.8-.554L4 11.762l-1.008-.102.926-.383.644-.836-1.269-.25 1.371-.062-.2-.402.68-.504-1.28-.602 1.605.352.168-.465-1.246-.766 1.593-1.008 1.68-1.316 2.777-1.106L12 4.7l1.563-.386 2.773 1.105 1.68 1.316 1.593 1.008-1.242.766.164.465 1.606-.352-1.282.602.684.504-.203.402 1.371.062-1.27.25.645.835Zm-3.801-1.832-1.367-.09-1.562 1.403c-.004.004-.008.008-.008.012 0 .007.008.015.015.015h.008l1.582-.773.317.195-1.82.887c-.008.004-.008.011-.008.02.003.003.007.007.015.007l2.32-.445.516.293-2.75.422c-.004 0-.008.004-.012.004-.004.007-.004.015 0 .02.004.003.008.003.012.003l2.672.117-.984.777-.114.051-2.633-.824a.3.3 0 0 1-.21-.285v-.188l1.906-2.316a.042.042 0 0 0 0-.059c-.02-.02-.043-.023-.063-.007l-1.261.847h-1.7l-1.261-.847c-.012-.008-.02-.012-.032-.012a.05.05 0 0 0-.046.047c0 .011.003.023.011.031l1.906 2.316v.188a.3.3 0 0 1-.21.285l-2.633.824-.114-.05-.984-.778 2.672-.117c.004 0 .008 0 .012-.004s.004-.012 0-.02c-.004 0-.008-.003-.008-.003l-2.754-.422.52-.293 2.316.445h.012c.004-.004.007-.012.004-.02 0-.003-.004-.003-.008-.007l-1.82-.887.316-.195 1.582.773c.008 0 .015 0 .02-.008.003-.004.003-.015-.005-.02L9.086 9.356l-1.363.09-.18-.894-1.184 2.652 2.317 2.48 1.172 4.442.144.715a.103.103 0 0 0 .055.07c.027.016.062.02.09.008l1.863-.72 1.863.719c.03.011.063.008.09-.008a.107.107 0 0 0 .055-.074l.144-.711 1.176-4.441 2.313-2.48-1.18-2.653-.18.894Zm-2.496 8.664a.143.143 0 0 1-.058.114.155.155 0 0 1-.13.027l-.753-.23c-.242-.055-.602-.192-.844-.247-.238.055-.602.192-.84.247l-.758.23a.156.156 0 0 1-.129-.027.143.143 0 0 1-.058-.114c-.07-.988-.074-1.586.234-2.152.13.652.149 1.14.465 1.773l.285-.511.27.328.281-.336.25.336.25-.336.281.336.27-.328.285.511c.316-.628.336-1.12.465-1.773.312.566.304 1.164.238 2.152h-.004ZM8.156 14.3A.313.313 0 0 0 8 14.134l-1.629-.82-1.07-1.547 1.008-3.473a.057.057 0 0 0-.032-.063c-.027-.007-.054.004-.062.028l-1.563 3.148.141 1.543 1.613 1.996 1.153 1.196.593-.254 1.215 1.468a.022.022 0 0 0 .02.012c.008.004.015 0 .02-.004.011-.008.019-.023.011-.039L8.156 14.3Zm9.535-6.007 1.008 3.473-1.07 1.546-1.629.82a.33.33 0 0 0-.156.169l-1.262 3.023c-.004.004-.004.008-.004.012 0 .02.016.031.031.031h.004a.03.03 0 0 0 .02-.008l1.215-1.472.593.254 1.153-1.196 1.613-1.996.14-1.543-1.558-3.148c-.012-.028-.039-.04-.066-.028a.05.05 0 0 0-.032.063Zm-4.23 7.031-.168.785c-.078.364-.121.75-.258.993l-.195-.336-.305.367-.281-.352-.254.364-.254-.368-.281.356-.3-.367-.2.336c-.133-.243-.176-.63-.258-.993-.059-.27-.168-.785-.168-.785a2.522 2.522 0 0 0-.527 1.086c.008-.187.035-.375.082-.555.066-.25.164-.488.293-.71a.326.326 0 0 1 .187-.153c.383-.164.969-.195 1.121.016a.538.538 0 0 1 .07.152c.122.371.2.75.235 1.137.035-.387.113-.766.234-1.137a.46.46 0 0 1 .075-.152c.148-.211.734-.18 1.117-.016.08.024.147.079.187.153.13.222.227.46.297.71.047.18.07.368.078.555a2.522 2.522 0 0 0-.527-1.086Zm1.473-2.527c-.133 1.09-.297 2.133-.739 2.984.004-1.164.016-2.14-.336-3.355-.004-.02 0-.04.016-.055.012-.016.035-.02.05-.016l.9.274c.073.02.12.09.109.168Zm-5.129 2.984c-.442-.851-.606-1.894-.739-2.984a.157.157 0 0 1 .11-.168l.894-.274c.02-.003.043 0 .055.016.016.012.02.035.016.055-.352 1.215-.34 2.191-.336 3.355Zm1.375-3.711c.02-.004.039-.008.058-.004l.723.082h.078l.723-.082a.184.184 0 0 1 .062.004l.692.188s-.059 1.074-.106 1.168a2.146 2.146 0 0 0-.523-.754l-.172.414-.242-.414-.207.426-.266-.41-.266.41-.207-.426-.242.414-.172-.414a2.146 2.146 0 0 0-.523.754c-.047-.094-.106-1.168-.106-1.168l.696-.188Zm.453-1.745a.104.104 0 0 0-.059-.048l-.285-.105a.146.146 0 0 1-.05-.035l-.15-.188a.068.068 0 0 1-.007-.066.063.063 0 0 1 .059-.035h1.718c.036 0 .063.027.063.062v.004a.062.062 0 0 1-.012.035l-.148.188a.12.12 0 0 1-.051.035l-.285.105a.099.099 0 0 0-.059.047l-.305.535a.07.07 0 0 1-.062.038.07.07 0 0 1-.062-.038l-.305-.534Zm1.59-1.954a4.96 4.96 0 0 1-1.223.18 4.96 4.96 0 0 1-1.223-.18h-.011a.03.03 0 0 0-.02.008c-.008.008-.012.016-.008.023a.03.03 0 0 0 .02.028L12 9.059l1.242-.63c.016-.007.024-.023.016-.038-.004-.012-.02-.024-.035-.02Zm.898-2.496c0-.008-.008-.012-.016-.012-.007 0-.011.004-.015.012l-.305 2.012 1.05.515.798-.332 1.246-1.586-2.484.559-.274-1.168ZM9.164 8.402l1.05-.515-.304-2.012c-.004-.008-.008-.012-.015-.012-.008 0-.016.004-.016.012l-.274 1.168-2.48-.559L8.367 8.07l.797.332ZM8.5 7.113l.266.117a.267.267 0 0 0 .265.407.261.261 0 0 0 .219-.184l.254.113A.563.563 0 0 1 8.44 7.45a.505.505 0 0 1 .059-.336l.001-.001Zm6.25.34a.264.264 0 0 0 .262.195.27.27 0 0 0 .227-.413l.261-.122a.505.505 0 0 1 .059.336.567.567 0 0 1-1.063.117l.254-.113Zm-4.145-1.824c-.003-.004-.007-.012-.015-.008h-.008c-.008.004-.012.012-.008.016l.102 2.136.703-.226-.774-1.918Zm2.809-.008h-.012l-.007.008-.774 1.918.703.223.106-2.133a.016.016 0 0 0-.016-.016ZM8.43 5.64l1.914-.581L12 5.87l1.656-.812 1.918.582.004.004a.034.034 0 0 0 .031-.024c0-.012-.004-.027-.015-.031l-1.797-.93L12 5.336l-1.797-.68-1.797.93c-.011.008-.015.016-.015.027 0 .012.004.024.015.028a.025.025 0 0 0 .024 0V5.64Z"/><path fill="#fefefe" fill-rule="nonzero" d="m20.863 9.29.016-.063L23.03 7.73l-1.797-.035.297-.21-2.781-1.532-1.52-1.348-3.406-1.488L12 3.61l-1.824-.492-3.403 1.488L5.25 5.953 2.473 7.484l.293.211-1.797.035L3.12 9.227l.016.062-3.012.512 2.258 1.09-1.801 1.191 2.363.5.008.105-1.707 1.852 1.973.027.047.317.593.164-.218.52 3.78 2.097 2.118 3.2L12 20.382l2.46.48 2.122-3.199 3.777-2.098-.218-.52.593-.163.047-.317 1.973-.027-1.707-1.851.008-.106 2.363-.5-1.8-1.191 2.257-1.09-3.012-.51Zm1.375 2.577-1.605.344-.113.73 1.293 1.188-1.415-.031-.066.43-.8.222.261.617-3.527 1.985-2.008 3.039L12 19.953l-2.258.438-2.008-3.04-3.523-1.984.258-.617-.801-.223-.066-.43-1.414.032L3.48 12.94l-.113-.73-1.605-.344 1.77-1.086-2.009-.785 2.172-.324-.074-.293.434-.172-1.86-1.137 2.063.14-.95-.675 2.2-1.215 1.527-1.347 3.18-1.328L12 4.078l1.785-.433 3.18 1.328 1.527 1.347 2.2 1.215-.946.676 2.059-.14-1.86 1.136.434.172-.074.293 2.172.324-2.008.785 1.769 1.086Zm-1.531-1.676-1.371-.062.2-.402-.68-.504 1.28-.602-1.605.352-.164-.465-.441-1.078-.985-.703-.082-.512-3.03-.793a.052.052 0 0 0-.04.008.042.042 0 0 0-.02.035l-.269 2.45c-.004.019.008.038.023.046l1.25.672.954-.266.796-1.082 1.13 2.934c.012.03.017.062.015.094l-.027.89-2.317 2.48-1.172 4.442-.144.71a.108.108 0 0 1-.055.075.105.105 0 0 1-.09.008L12 18.199l-1.863.719a.11.11 0 0 1-.04.008c-.05 0-.093-.04-.105-.09l-.144-.711-1.172-4.441-2.317-2.48-.027-.892c0-.03.004-.066.016-.093l1.129-2.934.796 1.082.95.266 1.254-.672a.045.045 0 0 0 .023-.047l-.27-2.45a.04.04 0 0 0-.02-.034c-.01-.008-.026-.012-.038-.008l-3.031.793-.082.512-.98.703-.442 1.078-.164.465-1.61-.352 1.282.602-.68.504.2.402-1.372.062 1.27.25-.645.836-.926.383 1.012.102.207 1.293-.8.554.878-.168.086.516 1.066.297-.293.762 3.082 1.957 1.993 2.527h3.558l1.992-2.527 3.079-1.957-.29-.762 1.063-.297.086-.516.879.168-.8-.554.21-1.293 1.012-.102-.93-.383-.645-.836 1.27-.25Zm-7.621 7.539-.285-.511-.27.328-.281-.336-.25.336-.25-.336-.281.336-.27-.328-.285.511c-.316-.628-.336-1.12-.465-1.773-.312.566-.304 1.164-.234 2.152 0 .047.023.086.058.114.04.027.086.039.13.027l.757-.23c.238-.055.602-.192.84-.247.113.026.253.07.394.115l.056.017c.141.045.281.089.394.115l.754.23c.047.012.09 0 .129-.027a.143.143 0 0 0 .058-.114c.07-.988.078-1.586-.234-2.152-.13.652-.149 1.14-.465 1.773Zm6.121-4.782-1.613 1.996-1.153 1.196-.593-.254-1.215 1.468c-.004.008-.016.016-.024.016a.034.034 0 0 1-.03-.031c0-.004 0-.008.003-.016l1.262-3.023a.328.328 0 0 1 .156-.168l1.629-.82 1.07-1.547-1.008-3.473a.05.05 0 0 1 .032-.063c.027-.011.054 0 .066.028l1.559 3.148-.141 1.543Zm-9.84 4.41-1.215-1.472-.593.254-1.153-1.196-1.613-1.996-.14-1.543 1.562-3.148c.008-.02.023-.031.043-.031.015 0 .031.007.039.02.012.015.016.03.012.046L5.3 11.766l1.07 1.546 1.629.82c.07.036.125.095.156.169l1.262 3.023c.004.004.004.008.004.012v.001a.03.03 0 0 1-.03.03h-.005a.03.03 0 0 1-.02-.008l.001-.001Zm.703-5.003-.894.274a.157.157 0 0 0-.11.168c.133 1.09.297 2.133.739 2.984-.004-1.164-.016-2.14.336-3.355.004-.02 0-.04-.016-.055-.012-.016-.035-.02-.05-.016h-.005Zm4.754.274-.894-.274c-.02-.003-.043 0-.055.016-.016.012-.02.035-.016.055.352 1.215.34 2.191.336 3.355.442-.851.606-1.894.739-2.984a.149.149 0 0 0-.11-.168Zm-3.711.043.172.414.242-.414.207.426.266-.41.266.41.207-.426.242.414.172-.414c.226.21.406.469.523.754.047-.094.106-1.168.106-1.168l-.692-.188a.184.184 0 0 0-.062-.004l-.723.082h-.078l-.723-.082c-.02-.004-.039 0-.058.004l-.696.188s.059 1.074.106 1.168c.118-.286.296-.543.523-.754Zm1.157-1.418c0 .133.085.246.21.285l2.633.824.114-.05.984-.778-2.672-.117c-.004 0-.008 0-.012-.004v-.008c-.004-.008.004-.015.012-.015l2.75-.422-.516-.293-2.32.445h-.008l-.008-.008v-.011c0-.004.004-.004.008-.008l1.82-.887-.316-.195-1.582.773h-.012c0-.004-.003-.004-.007-.008s-.004-.015.004-.02l1.156-1.038-.742-.469-1.496 1.816v.188Zm-1.637-.469-1.582-.773-.317.195 1.82.887c.005.004.008.004.008.008v.011s-.003.004-.003.008h-.012l-2.317-.445-.52.293 2.755.422c.004 0 .012.007.012.015 0 .004-.004.004-.004.008-.004.004-.008.004-.012.004l-2.672.117.984.777.114.051 2.633-.824a.3.3 0 0 0 .21-.285v-.188L10.234 9.25l-.742.473 1.156 1.035c.004.004.008.008.008.012a.017.017 0 0 1-.015.015h-.008Zm1.367.113a.07.07 0 0 0 .063-.039l.304-.535a.099.099 0 0 1 .059-.047l.285-.105a.117.117 0 0 0 .05-.035l.15-.188c.015-.02.019-.047.007-.066a.06.06 0 0 0-.059-.035H11.14a.062.062 0 0 0-.062.062v.004c0 .013.004.025.012.035l.148.188a.15.15 0 0 0 .051.035l.285.105a.099.099 0 0 1 .059.047l.305.535c.011.024.035.04.062.04v-.001Zm3.633-2.827-.797.331-1.05-.515.304-2.012c0-.004.004-.008.008-.008 0-.004.004-.004.007-.004.008 0 .016.004.016.012l.274 1.168 2.484-.559-1.246 1.587ZM9.605 7.046l.274-1.172c0-.008.008-.016.016-.016.003 0 .007.004.011.008 0 0 .004.004.004.008l.305 2.012-1.05.515-.798-.332-1.242-1.586 2.48.559v.004Zm-.511.841a.555.555 0 0 0 .41-.32l-.254-.114a.273.273 0 0 1-.484.07.266.266 0 0 1 0-.289l-.266-.12a.502.502 0 0 0-.059.335.562.562 0 0 0 .653.438Zm5.812 0a.562.562 0 0 0 .653-.438.505.505 0 0 0-.059-.336l-.262.117a.278.278 0 0 1-.008.29.267.267 0 0 1-.261.117.267.267 0 0 1-.219-.184l-.254.113a.551.551 0 0 0 .41.32v.001Z"/></svg>